<mxfile host="app.diagrams.net" agent="Mozilla/5.0 (Macintosh; Intel Mac OS X 10_15_7) AppleWebKit/537.36 (KHTML, like Gecko) Chrome/133.0.0.0 Safari/537.36" version="26.1.3">
  <diagram name="Page-1" id="YMGRMMktXAIzvMU1lXqS">
    <mxGraphModel dx="1241" dy="640" grid="1" gridSize="10" guides="1" tooltips="1" connect="1" arrows="1" fold="1" page="1" pageScale="1" pageWidth="827" pageHeight="1169" math="0" shadow="0">
      <root>
        <mxCell id="0" />
        <mxCell id="1" parent="0" />
        <mxCell id="Iwh2j_EmFfEqPvJCqRrq-50" value="" style="rounded=0;whiteSpace=wrap;html=1;" parent="1" vertex="1">
          <mxGeometry x="560" y="178" width="780" height="552" as="geometry" />
        </mxCell>
        <mxCell id="Iwh2j_EmFfEqPvJCqRrq-49" value="" style="rounded=0;whiteSpace=wrap;html=1;strokeColor=none;fillColor=light-dark(#efefef, #ededed);" parent="1" vertex="1">
          <mxGeometry x="586" y="358" width="720" height="177" as="geometry" />
        </mxCell>
        <mxCell id="Iwh2j_EmFfEqPvJCqRrq-40" style="rounded=0;orthogonalLoop=1;jettySize=auto;html=1;entryX=0.5;entryY=0;entryDx=0;entryDy=0;strokeWidth=1.5;strokeColor=light-dark(#4383fb, #ededed);" parent="1" source="Iwh2j_EmFfEqPvJCqRrq-2" target="Iwh2j_EmFfEqPvJCqRrq-10" edge="1">
          <mxGeometry relative="1" as="geometry" />
        </mxCell>
        <mxCell id="Iwh2j_EmFfEqPvJCqRrq-2" value="&lt;font style=&quot;font-size: 14px;&quot;&gt;Publisher&lt;/font&gt;" style="rounded=0;whiteSpace=wrap;html=1;fillColor=light-dark(#f3f3f3, #ededed);strokeColor=none;" parent="1" vertex="1">
          <mxGeometry x="633" y="252" width="131" height="41" as="geometry" />
        </mxCell>
        <mxCell id="Iwh2j_EmFfEqPvJCqRrq-39" style="rounded=0;orthogonalLoop=1;jettySize=auto;html=1;strokeWidth=1.5;strokeColor=light-dark(#4383fb, #ededed);" parent="1" source="Iwh2j_EmFfEqPvJCqRrq-3" target="Iwh2j_EmFfEqPvJCqRrq-10" edge="1">
          <mxGeometry relative="1" as="geometry" />
        </mxCell>
        <mxCell id="Iwh2j_EmFfEqPvJCqRrq-3" value="&lt;font style=&quot;font-size: 14px;&quot;&gt;Publisher&lt;/font&gt;" style="rounded=0;whiteSpace=wrap;html=1;fillColor=light-dark(#f3f3f3, #ededed);strokeColor=none;" parent="1" vertex="1">
          <mxGeometry x="780" y="252" width="131" height="41" as="geometry" />
        </mxCell>
        <mxCell id="Iwh2j_EmFfEqPvJCqRrq-38" style="edgeStyle=orthogonalEdgeStyle;rounded=0;orthogonalLoop=1;jettySize=auto;html=1;entryX=0.5;entryY=0;entryDx=0;entryDy=0;strokeColor=light-dark(#4383fb, #ededed);strokeWidth=1.5;" parent="1" source="Iwh2j_EmFfEqPvJCqRrq-4" target="Iwh2j_EmFfEqPvJCqRrq-12" edge="1">
          <mxGeometry relative="1" as="geometry" />
        </mxCell>
        <mxCell id="Iwh2j_EmFfEqPvJCqRrq-4" value="&lt;font style=&quot;font-size: 14px;&quot;&gt;Publisher&lt;/font&gt;" style="rounded=0;whiteSpace=wrap;html=1;fillColor=light-dark(#f3f3f3, #ededed);strokeColor=none;" parent="1" vertex="1">
          <mxGeometry x="1060" y="252" width="131" height="41" as="geometry" />
        </mxCell>
        <mxCell id="Iwh2j_EmFfEqPvJCqRrq-5" value="&lt;font style=&quot;color: light-dark(rgb(255, 255, 255), rgb(237, 237, 237));&quot;&gt;Message&lt;/font&gt;" style="rounded=0;whiteSpace=wrap;html=1;fillColor=light-dark(#4085f5, #ededed);strokeColor=none;fontSize=11;" parent="1" vertex="1">
          <mxGeometry x="671" y="304" width="93" height="17" as="geometry" />
        </mxCell>
        <mxCell id="Iwh2j_EmFfEqPvJCqRrq-6" value="&lt;font style=&quot;color: light-dark(rgb(255, 255, 255), rgb(237, 237, 237));&quot;&gt;Message&lt;/font&gt;" style="rounded=0;whiteSpace=wrap;html=1;fillColor=light-dark(#d94436, #ededed);strokeColor=none;fontSize=11;" parent="1" vertex="1">
          <mxGeometry x="671" y="331" width="93" height="17" as="geometry" />
        </mxCell>
        <mxCell id="Iwh2j_EmFfEqPvJCqRrq-7" value="&lt;span style=&quot;color: rgb(255, 255, 255);&quot;&gt;Message&lt;/span&gt;" style="rounded=0;whiteSpace=wrap;html=1;fillColor=light-dark(#34a956, #ededed);strokeColor=none;fontSize=11;" parent="1" vertex="1">
          <mxGeometry x="777" y="321" width="93" height="17" as="geometry" />
        </mxCell>
        <mxCell id="Iwh2j_EmFfEqPvJCqRrq-8" value="Message" style="rounded=0;whiteSpace=wrap;html=1;fillColor=light-dark(#4085f5, #ededed);strokeColor=none;fontColor=light-dark(#ffffff, #ededed);fontSize=11;" parent="1" vertex="1">
          <mxGeometry x="1077" y="312" width="98" height="17" as="geometry" />
        </mxCell>
        <mxCell id="Iwh2j_EmFfEqPvJCqRrq-9" value="Message" style="rounded=0;whiteSpace=wrap;html=1;fillColor=light-dark(#d94436, #ededed);strokeColor=none;fontColor=light-dark(#ffffff, #ededed);fontSize=11;" parent="1" vertex="1">
          <mxGeometry x="1077" y="334" width="98" height="17" as="geometry" />
        </mxCell>
        <mxCell id="Iwh2j_EmFfEqPvJCqRrq-41" style="edgeStyle=orthogonalEdgeStyle;rounded=0;orthogonalLoop=1;jettySize=auto;html=1;entryX=0.5;entryY=0;entryDx=0;entryDy=0;strokeWidth=1.5;strokeColor=light-dark(#4383fb, #ededed);" parent="1" source="Iwh2j_EmFfEqPvJCqRrq-10" target="Iwh2j_EmFfEqPvJCqRrq-11" edge="1">
          <mxGeometry relative="1" as="geometry" />
        </mxCell>
        <mxCell id="Iwh2j_EmFfEqPvJCqRrq-10" value="Topic" style="rounded=0;whiteSpace=wrap;html=1;strokeColor=none;fontSize=14;" parent="1" vertex="1">
          <mxGeometry x="690" y="386" width="153" height="41" as="geometry" />
        </mxCell>
        <mxCell id="Iwh2j_EmFfEqPvJCqRrq-44" style="edgeStyle=orthogonalEdgeStyle;rounded=0;orthogonalLoop=1;jettySize=auto;html=1;strokeWidth=1.5;strokeColor=light-dark(#4383fb, #ededed);" parent="1" source="Iwh2j_EmFfEqPvJCqRrq-11" target="Iwh2j_EmFfEqPvJCqRrq-20" edge="1">
          <mxGeometry relative="1" as="geometry" />
        </mxCell>
        <mxCell id="Iwh2j_EmFfEqPvJCqRrq-45" style="rounded=0;orthogonalLoop=1;jettySize=auto;html=1;entryX=0.5;entryY=0;entryDx=0;entryDy=0;strokeWidth=1.5;strokeColor=light-dark(#4383fb, #ededed);" parent="1" source="Iwh2j_EmFfEqPvJCqRrq-11" target="Iwh2j_EmFfEqPvJCqRrq-18" edge="1">
          <mxGeometry relative="1" as="geometry" />
        </mxCell>
        <mxCell id="Iwh2j_EmFfEqPvJCqRrq-46" style="rounded=0;orthogonalLoop=1;jettySize=auto;html=1;entryX=0.5;entryY=0;entryDx=0;entryDy=0;strokeWidth=1.5;strokeColor=light-dark(#4383fb, #ededed);" parent="1" source="Iwh2j_EmFfEqPvJCqRrq-11" target="Iwh2j_EmFfEqPvJCqRrq-19" edge="1">
          <mxGeometry relative="1" as="geometry" />
        </mxCell>
        <mxCell id="Iwh2j_EmFfEqPvJCqRrq-11" value="Subscription" style="rounded=0;whiteSpace=wrap;html=1;strokeColor=none;fontSize=14;" parent="1" vertex="1">
          <mxGeometry x="690" y="468" width="153" height="41" as="geometry" />
        </mxCell>
        <mxCell id="Iwh2j_EmFfEqPvJCqRrq-42" style="rounded=0;orthogonalLoop=1;jettySize=auto;html=1;strokeWidth=1.5;strokeColor=light-dark(#4383fb, #ededed);" parent="1" source="Iwh2j_EmFfEqPvJCqRrq-12" target="Iwh2j_EmFfEqPvJCqRrq-13" edge="1">
          <mxGeometry relative="1" as="geometry" />
        </mxCell>
        <mxCell id="Iwh2j_EmFfEqPvJCqRrq-43" style="rounded=0;orthogonalLoop=1;jettySize=auto;html=1;entryX=0.5;entryY=0;entryDx=0;entryDy=0;strokeWidth=1.5;strokeColor=light-dark(#4383fb, #ededed);" parent="1" source="Iwh2j_EmFfEqPvJCqRrq-12" target="Iwh2j_EmFfEqPvJCqRrq-14" edge="1">
          <mxGeometry relative="1" as="geometry" />
        </mxCell>
        <mxCell id="Iwh2j_EmFfEqPvJCqRrq-12" value="Topic" style="rounded=0;whiteSpace=wrap;html=1;strokeColor=none;fontSize=14;" parent="1" vertex="1">
          <mxGeometry x="1054.5" y="387" width="142" height="40" as="geometry" />
        </mxCell>
        <mxCell id="Iwh2j_EmFfEqPvJCqRrq-48" style="edgeStyle=orthogonalEdgeStyle;rounded=0;orthogonalLoop=1;jettySize=auto;html=1;entryX=0.5;entryY=0;entryDx=0;entryDy=0;strokeWidth=1.5;strokeColor=light-dark(#4383fb, #ededed);" parent="1" source="Iwh2j_EmFfEqPvJCqRrq-13" target="Iwh2j_EmFfEqPvJCqRrq-21" edge="1">
          <mxGeometry relative="1" as="geometry" />
        </mxCell>
        <mxCell id="Iwh2j_EmFfEqPvJCqRrq-13" value="Subscription" style="rounded=0;whiteSpace=wrap;html=1;strokeColor=none;fontSize=14;" parent="1" vertex="1">
          <mxGeometry x="962" y="468" width="153" height="41" as="geometry" />
        </mxCell>
        <mxCell id="Iwh2j_EmFfEqPvJCqRrq-47" style="edgeStyle=orthogonalEdgeStyle;rounded=0;orthogonalLoop=1;jettySize=auto;html=1;entryX=0.5;entryY=0;entryDx=0;entryDy=0;strokeWidth=1.5;strokeColor=light-dark(#4383fb, #ededed);" parent="1" source="Iwh2j_EmFfEqPvJCqRrq-14" target="Iwh2j_EmFfEqPvJCqRrq-22" edge="1">
          <mxGeometry relative="1" as="geometry" />
        </mxCell>
        <mxCell id="Iwh2j_EmFfEqPvJCqRrq-14" value="Subscription" style="rounded=0;whiteSpace=wrap;html=1;strokeColor=none;fontSize=14;" parent="1" vertex="1">
          <mxGeometry x="1127" y="467" width="153" height="41" as="geometry" />
        </mxCell>
        <mxCell id="Iwh2j_EmFfEqPvJCqRrq-15" value="Message" style="rounded=0;whiteSpace=wrap;html=1;fillColor=light-dark(#d94436, #ededed);strokeColor=none;fontSize=11;fontColor=light-dark(#ffffff, #ededed);" parent="1" vertex="1">
          <mxGeometry x="664" y="542" width="93" height="17" as="geometry" />
        </mxCell>
        <mxCell id="Iwh2j_EmFfEqPvJCqRrq-16" value="Message" style="rounded=0;whiteSpace=wrap;html=1;fillColor=light-dark(#34a956, #ededed);strokeColor=none;fontSize=11;fontColor=light-dark(#ffffff, #ededed);" parent="1" vertex="1">
          <mxGeometry x="718" y="569" width="93" height="17" as="geometry" />
        </mxCell>
        <mxCell id="Iwh2j_EmFfEqPvJCqRrq-17" value="Message" style="rounded=0;whiteSpace=wrap;html=1;fillColor=light-dark(#4085f5, #ededed);strokeColor=none;fontSize=11;fontColor=light-dark(#ffffff, #ededed);" parent="1" vertex="1">
          <mxGeometry x="791" y="542" width="93" height="17" as="geometry" />
        </mxCell>
        <mxCell id="Iwh2j_EmFfEqPvJCqRrq-18" value="Subscriber" style="rounded=0;whiteSpace=wrap;html=1;fillColor=light-dark(#f3f3f3, #ededed);strokeColor=none;fontSize=14;" parent="1" vertex="1">
          <mxGeometry x="601" y="597" width="139" height="41" as="geometry" />
        </mxCell>
        <mxCell id="Iwh2j_EmFfEqPvJCqRrq-19" value="Subscriber" style="rounded=0;whiteSpace=wrap;html=1;fillColor=light-dark(#f3f3f3, #ededed);strokeColor=none;fontSize=14;" parent="1" vertex="1">
          <mxGeometry x="780" y="597" width="139" height="41" as="geometry" />
        </mxCell>
        <mxCell id="Iwh2j_EmFfEqPvJCqRrq-20" value="&lt;span&gt;Subscriber&lt;/span&gt;" style="rounded=0;whiteSpace=wrap;html=1;fillColor=light-dark(#f3f3f3, #ededed);strokeColor=none;fontSize=14;" parent="1" vertex="1">
          <mxGeometry x="697" y="653" width="139" height="41" as="geometry" />
        </mxCell>
        <mxCell id="Iwh2j_EmFfEqPvJCqRrq-21" value="Subscriber" style="rounded=0;whiteSpace=wrap;html=1;fillColor=light-dark(#f3f3f3, #ededed);strokeColor=none;fontSize=14;" parent="1" vertex="1">
          <mxGeometry x="969" y="597" width="139" height="41" as="geometry" />
        </mxCell>
        <mxCell id="Iwh2j_EmFfEqPvJCqRrq-22" value="&lt;font&gt;Subscriber&lt;/font&gt;" style="rounded=0;whiteSpace=wrap;html=1;fillColor=light-dark(#f3f3f3, #ededed);strokeColor=none;fontSize=14;" parent="1" vertex="1">
          <mxGeometry x="1134" y="597" width="139" height="41" as="geometry" />
        </mxCell>
        <mxCell id="Iwh2j_EmFfEqPvJCqRrq-23" value="Message" style="rounded=0;whiteSpace=wrap;html=1;fillColor=light-dark(#4085f5, #ededed);strokeColor=none;fontColor=light-dark(#f5f3f3, #ededed);fontSize=11;" parent="1" vertex="1">
          <mxGeometry x="994.5" y="537" width="81" height="17" as="geometry" />
        </mxCell>
        <mxCell id="Iwh2j_EmFfEqPvJCqRrq-24" value="Message" style="rounded=0;whiteSpace=wrap;html=1;fillColor=light-dark(#4085f5, #ededed);strokeColor=none;fontColor=light-dark(#f5f3f3, #ededed);fontSize=11;" parent="1" vertex="1">
          <mxGeometry x="1157" y="537" width="81" height="17" as="geometry" />
        </mxCell>
        <mxCell id="Iwh2j_EmFfEqPvJCqRrq-25" value="Message" style="rounded=0;whiteSpace=wrap;html=1;fillColor=light-dark(#d94436, #ededed);strokeColor=none;fontColor=light-dark(#f5f3f3, #ededed);fontSize=11;" parent="1" vertex="1">
          <mxGeometry x="994.5" y="555" width="81" height="17" as="geometry" />
        </mxCell>
        <mxCell id="Iwh2j_EmFfEqPvJCqRrq-26" value="Message" style="rounded=0;whiteSpace=wrap;html=1;fillColor=light-dark(#d94436, #ededed);strokeColor=none;fontColor=light-dark(#f5f3f3, #ededed);fontSize=11;" parent="1" vertex="1">
          <mxGeometry x="1157" y="555" width="81" height="17" as="geometry" />
        </mxCell>
        <mxCell id="Iwh2j_EmFfEqPvJCqRrq-27" value="Many-to-many pattern" style="text;html=1;align=center;verticalAlign=middle;resizable=0;points=[];autosize=1;strokeColor=none;fillColor=none;fontSize=16;" parent="1" vertex="1">
          <mxGeometry x="680" y="207.5" width="180" height="30" as="geometry" />
        </mxCell>
        <mxCell id="Iwh2j_EmFfEqPvJCqRrq-29" value="One-to-many pattern" style="text;html=1;align=center;verticalAlign=middle;resizable=0;points=[];autosize=1;strokeColor=none;fillColor=none;fontSize=16;" parent="1" vertex="1">
          <mxGeometry x="1040" y="208" width="170" height="30" as="geometry" />
        </mxCell>
        <mxCell id="Iwh2j_EmFfEqPvJCqRrq-31" value="" style="shape=image;verticalLabelPosition=bottom;labelBackgroundColor=default;verticalAlign=top;aspect=fixed;imageAspect=0;image=data:image/png,iVBORw0KGgoAAAANSUhEUgAAAJQAAACGCAYAAAA7IqNEAAAKq2lDQ1BJQ0MgUHJvZmlsZQAASImVlwdQk9kWgO//p4eElhCKlNCbIJ0AUkJooUsHGyEJEEoIgaBiwcLiCqwoIiKgCLoqouCqFFkrolhYFFSwL8iioqyLBVFReT8wBHffvPfmnZkz58vJOeeee+femfMDQJbniEQpsDwAqcJMcYi3Oz0qOoaOGwYwoABlMB/IcrgZImZwsD9AZNb+XT70AmjK3jabqvXv//9XUeDxM7gAQMEIx/EyuKkIn0L0JVckzgQAtQ/x667IFE1xO8JUMdIgwvemOGGGR6Y4bprRYDomLISFMBUAPInDEScAQKIjfnoWNwGpQ3JD2ELIEwgRFiHskpqaxkP4OMJGSAziI03VZ8R9VyfhbzXjpDU5nAQpz+xlWvAeggxRCmfV/3kc/1tSUySzaxggSkoU+4QgVhE5s3vJaX5SFsYFBs2ygDcdP82JEp/wWeZmsGJmmcfx8JPmpgT6z3K8wIstrZPJDptlfoZn6CyL00Kka8WLWcxZ5ojn1pUkh0v9iXy2tH52YljkLGcJIgJnOSM51G8uhiX1iyUh0v75Qm/3uXW9pHtPzfhuvwK2NDczMcxHunfOXP98IXOuZkaUtDce38NzLiZcGi/KdJeuJUoJlsbzU7yl/oysUGluJnIh53KDpWeYxPENnmXAAmkgBVExoAN/5JcHAJn8lZlTG2GliVaJBQmJmXQm8sL4dLaQaz6fbmVhZQvA1HuduQ7vaNPvEKJdn/NtGARg4R+Tk5Nn5nz+yKVsRM6E+HbOZ7QaAHIXAFdzuBJx1oxv+i1hABHIASpQBZpAFxgBM2AF7IATcAOewBcEgTAQDZYBLkgEqUjnK8AasAHkgQKwDewE5aAK7AeHwTFwAjSDM+AiuAJugFvgLngI+sEQeAVGwQcwAUEQDiJDFEgV0oL0IVPICmJALpAn5A+FQNFQLJQACSEJtAbaBBVAxVA5VA3VQr9Ap6GL0DWoG7oPDUDD0FvoM4yCSTAV1oAN4AUwA2bCfnAYvBROgNPhbDgX3gqXwTXwUbgJvgjfgO/C/fAreAwFUDIoGkobZYZioFioIFQMKh4lRq1D5aNKUTWoelQrqgN1G9WPGkF9QmPRFDQdbYZ2Qvugw9FcdDp6HboQXY4+jG5Ct6NvowfQo+hvGDJGHWOKccSwMVGYBMwKTB6mFHMQ04i5jLmLGcJ8wGKxNKwh1h7rg43GJmFXYwuxe7AN2AvYbuwgdgyHw6niTHHOuCAcB5eJy8Ptxh3Fncf14IZwH/EyeC28Fd4LH4MX4jfiS/FH8OfwPfjn+AmCPEGf4EgIIvAIqwhFhAOEVsJNwhBhgqhANCQ6E8OIScQNxDJiPfEy8RHxnYyMjI6Mg8wiGYHMepkymeMyV2UGZD6RFEkmJBZpCUlC2ko6RLpAuk96RyaTDchu5BhyJnkruZZ8ifyE/FGWImsuy5blyebIVsg2yfbIvpYjyOnLMeWWyWXLlcqdlLspNyJPkDeQZ8lz5NfJV8iflu+TH1OgKFgqBCmkKhQqHFG4pvBCEadooOipyFPMVdyveElxkIKi6FJYFC5lE+UA5TJliIqlGlLZ1CRqAfUYtYs6qqSoZKMUobRSqULprFI/DUUzoLFpKbQi2glaL+2zsoYyU5mvvEW5XrlHeVxlnoqbCl8lX6VB5a7KZ1W6qqdqsup21WbVx2poNRO1RWor1PaqXVYbmUed5zSPOy9/3ol5D9RhdRP1EPXV6vvVO9XHNDQ1vDVEGrs1LmmMaNI03TSTNEs0z2kOa1G0XLQEWiVa57Ve0pXoTHoKvYzeTh/VVtf20ZZoV2t3aU/oGOqE62zUadB5rEvUZejG65botumO6mnpBeit0avTe6BP0GfoJ+rv0u/QHzcwNIg02GzQbPDCUMWQbZhtWGf4yIhs5GqUblRjdMcYa8wwTjbeY3zLBDaxNUk0qTC5aQqb2pkKTPeYds/HzHeYL5xfM7/PjGTGNMsyqzMbMKeZ+5tvNG82f71Ab0HMgu0LOhZ8s7C1SLE4YPHQUtHS13KjZavlWysTK65VhdUda7K1l3WOdYv1GxtTG77NXpt7thTbANvNtm22X+3s7cR29XbD9nr2sfaV9n0MKiOYUci46oBxcHfIcTjj8MnRzjHT8YTjX05mTslOR5xeLDRcyF94YOGgs44zx7naud+F7hLrss+l31XbleNa4/rUTdeN53bQ7TnTmJnEPMp87W7hLnZvdB9nObLWsi54oDy8PfI9ujwVPcM9yz2feOl4JXjVeY1623qv9r7gg/Hx89nu08fWYHPZtexRX3vftb7tfiS/UL9yv6f+Jv5i/9YAOMA3YEfAo0D9QGFgcxAIYgftCHocbBicHvzrIuyi4EUVi56FWIasCekIpYQuDz0S+iHMPawo7GG4UbgkvC1CLmJJRG3EeKRHZHFkf9SCqLVRN6LVogXRLTG4mIiYgzFjiz0X71w8tMR2Sd6S3qWGS1cuvbZMbVnKsrPL5ZZzlp+MxcRGxh6J/cIJ4tRwxuLYcZVxo1wWdxf3Fc+NV8Ib5jvzi/nP453ji+NfJDgn7EgYTnRNLE0cEbAE5YI3ST5JVUnjyUHJh5InUyJTGlLxqbGpp4WKwmRhe5pm2sq0bpGpKE/Un+6YvjN9VOwnPpgBZSzNaMmkIoNRp8RI8oNkIMslqyLr44qIFSdXKqwUruxcZbJqy6rn2V7ZP69Gr+aublujvWbDmoG1zLXV66B1cevacnRzcnOG1nuvP7yBuCF5w28bLTYWb3y/KXJTa65G7vrcwR+8f6jLk80T5/Vtdtpc9SP6R8GPXVust+ze8i2fl3+9wKKgtOBLIbfw+k+WP5X9NLk1fmtXkV3R3m3YbcJtvdtdtx8uVijOLh7cEbCjqYRekl/yfufynddKbUqrdhF3SXb1l/mXtezW271t95fyxPK7Fe4VDZXqlVsqx/fw9vTsddtbX6VRVVD1eZ9g371q7+qmGoOa0v3Y/Vn7nx2IONDxM+Pn2oNqBwsOfj0kPNR/OORwe619be0R9SNFdXCdpG746JKjt455HGupN6uvbqA1FBwHxyXHX/4S+0vvCb8TbScZJ+tP6Z+qbKQ05jdBTauaRpsTm/tbolu6T/uebmt1am381fzXQ2e0z1ScVTpbdI54Lvfc5Pns82MXRBdGLiZcHGxb3vbwUtSlO+2L2rsu+12+esXryqUOZsf5q85Xz1xzvHb6OuN68w27G02dtp2Nv9n+1thl19V00/5myy2HW63dC7vP9bj2XLztcfvKHfadG3cD73b3hvfe61vS13+Pd+/F/ZT7bx5kPZh4uP4R5lH+Y/nHpU/Un9T8bvx7Q79d/9kBj4HOp6FPHw5yB1/9kfHHl6HcZ+Rnpc+1nte+sHpxZthr+NbLxS+HXoleTYzk/anwZ+Vro9en/nL7q3M0anTojfjN5NvCd6rvDr23ed82Fjz25EPqh4nx/I+qHw9/Ynzq+Bz5+fnEii+4L2Vfjb+2fvP79mgydXJSxBFzpkcBFKJwfDwAbw8hc0I0AJRbyPyweGaenhZo5htgmsB/4pmZe1rsAKhHzNRYxLoAwHFEDREmIzo1EoW5AdjaWqqzs+/0nD4lWOSLZZ/NFPXQ0kngHzIzw3/X9z8tmKo6nf43+y8G9wY6F7oCEgAAAJZlWElmTU0AKgAAAAgABQESAAMAAAABAAEAAAEaAAUAAAABAAAASgEbAAUAAAABAAAAUgEoAAMAAAABAAIAAIdpAAQAAAABAAAAWgAAAAAAAACQAAAAAQAAAJAAAAABAAOShgAHAAAAEgAAAISgAgAEAAAAAQAAAJSgAwAEAAAAAQAAAIYAAAAAQVNDSUkAAABTY3JlZW5zaG90WCZ/mgAAAAlwSFlzAAAWJQAAFiUBSVIk8AAAAttpVFh0WE1MOmNvbS5hZG9iZS54bXAAAAAAADx4OnhtcG1ldGEgeG1sbnM6eD0iYWRvYmU6bnM6bWV0YS8iIHg6eG1wdGs9IlhNUCBDb3JlIDYuMC4wIj4KICAgPHJkZjpSREYgeG1sbnM6cmRmPSJodHRwOi8vd3d3LnczLm9yZy8xOTk5LzAyLzIyLXJkZi1zeW50YXgtbnMjIj4KICAgICAgPHJkZjpEZXNjcmlwdGlvbiByZGY6YWJvdXQ9IiIKICAgICAgICAgICAgeG1sbnM6ZXhpZj0iaHR0cDovL25zLmFkb2JlLmNvbS9leGlmLzEuMC8iCiAgICAgICAgICAgIHhtbG5zOnRpZmY9Imh0dHA6Ly9ucy5hZG9iZS5jb20vdGlmZi8xLjAvIj4KICAgICAgICAgPGV4aWY6VXNlckNvbW1lbnQ+U2NyZWVuc2hvdDwvZXhpZjpVc2VyQ29tbWVudD4KICAgICAgICAgPGV4aWY6UGl4ZWxYRGltZW5zaW9uPjE0ODwvZXhpZjpQaXhlbFhEaW1lbnNpb24+CiAgICAgICAgIDxleGlmOlBpeGVsWURpbWVuc2lvbj4xMzQ8L2V4aWY6UGl4ZWxZRGltZW5zaW9uPgogICAgICAgICA8dGlmZjpSZXNvbHV0aW9uVW5pdD4yPC90aWZmOlJlc29sdXRpb25Vbml0PgogICAgICAgICA8dGlmZjpYUmVzb2x1dGlvbj4xNDQvMTwvdGlmZjpYUmVzb2x1dGlvbj4KICAgICAgICAgPHRpZmY6WVJlc29sdXRpb24+MTQ0LzE8L3RpZmY6WVJlc29sdXRpb24+CiAgICAgICAgIDx0aWZmOk9yaWVudGF0aW9uPjE8L3RpZmY6T3JpZW50YXRpb24+CiAgICAgIDwvcmRmOkRlc2NyaXB0aW9uPgogICA8L3JkZjpSREY+CjwveDp4bXBtZXRhPgoeWEm5AABAAElEQVR4Ae292XYkOa6m65qlmDKzqva5Ohfn/d+sV+3KISaNLp3v+0GY0V2uiMio7FqrewclM5IgAIIkCNJoNPrRE27zw/2ogb+oBo7/Ij4/2PyogdTAD4X6oQh/aQ38UKi/tDp/MPuhUD904C+tgR8K9ZdW5w9mPxTqhw78pTXwQ6H+0ur8weyHQv3Qgb+0Bk43m5fWNV+Cm//RJMQcnsB/Ojjn12F5f4m/eI1rhh22nxRdQ+bUbw2L1xK0L6zdy5LNuTa2/ssUM9afCZvTv8d1lnUOV20eLdwP5DKjj2QUSjenvBQuzBJfHDl4dbjTv8eXR+f7RKjjKsYxuRwoTHAed+hWHoZOIojvAeT2ONh32PgW8gcC28ftRrzHJ/I6JjeyS+m4nXCdcTuDXcP0lUxehuOSkZDJLYnCjEwUO2kTzZ8Idm7tLywbcIjXgmRiI3adPyeotugWmIhX0rVokA8LNafOGe2Hjct0Zfw0hU39Hie3kqAVxFjLdLyEDNjYqxOnaYQ2nUgnS0zFUYEa+0FF2j5t7h42m9u7W/x70h83j4+nm+OTi83x8TEXSgObc5Tp6hxKMla5jgkKf+Lif3Xyf3xcYUncR5ooFEY3QEan1CQ9vz3HmtkktQEz8Uw2h4Ojysx1WPW0kpcyFdkkrAgCvdqRfEChGqN9seewTO2fDf1KNTTpi2jdO0Ts65GQYQtTvvnFLdEVd6VrWCmT+LuWCEUC5X5b1+39w+bm9n5ze3+72WJhtijE8cnp5kSN4f8EJbo4fcKKHcHnaXNGsYWdYq1ODVc1bI6SLTdwVrlL3Gf33R5Roo+6kc0XqqlYTbjJdtCE1tvs5ngQRuISNrBeJXvhCNUdjbYuyRbClUykCTyGPKVsFmK0m2ET1cyhUQ/5M/mh9B1YI+vP10Dq5IVmv+pXmkbVV6HaGqE/m7thme62WxTpbnNzd4eFuhsKRbUd32OMqBbYaxsvUB5GxM0T1/nJA0p1tDl3/DtneAxOVXXdWyZz7vAicMFeShpoX0memX05LKN99wXmh5SpyE3pIW+fIfUCz7mPUHN2s87dSjC8H29GpvdVocZsjMXfTyA+Z7zgJbAiV+iAZRLPxKWdWg7l12R3OQyXXRMdo7N5UJHuGN7unzY3948o0MPmnmHuFkXSOmXIg/kjlmhzdIKcqtJ5LM/25D7DnFlcnD5szjFNph0z/h0PjUq5uB0dYxkZOlPL5D0JW+FF9iQuyco5F82wbgfdSCckdfe2g7ubtMt8J62Z6s8c5oxm+A5xIvup1RXDTCbNSLSOd7hJ9deroeHet2bT8faFPyPYRe7kdW7WkGaCv/AxzWtVpqfYFeOggef8Sct0c4syMWm6vr0jjkJtuR71txnqZNmSSFcXcyJwro9ggmZuz7xK4U4yNEJE9hkhI6YdoRXctAAJdHiOF7jzNNbhxjLe4WAn8gyaJG/Jrpks0L1Ak7efHJYIyHO4aXekaOBBv4a88JDIy4jXd7qvkXb6Ujmdz07CqMivFaRlLh4qU8leE/maPzH5xjLd3qIYN7ebzzc3UaIHxjGf7raYHudHakUkgOURkyLnU08oGyFYPjDseaFQWybuWKIzlOsUa6WV4uEwVZcGxcopxyL50soLpKp5SKrk5uvVGJFjxGc4oGeuaZ4l7AO+yOhLXOa0OTwy2AOdpiSmLRnOGIa7eINBPOGN1/6c/mfDnUf7M/2X+JclUsaaA5SvdcuSAJbp/n5cD1ss05bhT0WqeQFjFJjYFB7pjnysOzojY/vYqVBUjVSUSaWKpUO3jnnMuydyz6Piw/Y4E3Ts12KXoj/QLdWZokxlGEHTu7T7fmPv8gijnZt4X8NZMtmhnCOd2wzrcEtm/ABeC9Do+GWhGrBIJ+YB7Gfi72Uy5988X/KXvF4iahlg8BJKeA/LMtBUJtG1TvdOwFGoOx7t7hj3MtShCCqAj/0qlMOVtyMe2Y6OzomcQe+wZg3A68knxuNSUAiPM6lHqeDp06IrCubn1a6UqmOTb164Gbcgu3fTB+qU8CyXKe0Q/k7ybqQzyNrHOuVuucy7wi1F+7tsDsV2FeoZxsyopRBphg+iluYZj5cAErxE9AX+sxjhIK5KVH+dWz3d1RNerBJW5VHLFPqiScOPCZDKU3wq78yh5A/+EYgqlUMjBm48NT5uzrWA8Dwfi1IZ+SAPjYIUqyrmCHeJD/mNLunsyp42hSnVbbyXa39EX/Jk0ahLuAGVVDz73txXnIW1oBZpSn6uUEtGTTphN2jHf0awk/rliLTztY/9tbwLvziIW9bJeJ7uaHytyIMTai6V7Cmmx4VL8BMuWKoQxXCLvQohvcsFuict2fFpLJt8tHwOeVq+i+0R/GtNSnbm3b60KUFulSbsJRfalxIDF2PXFeuJUsBQ8KXBZ5IJNeARjzUGEPKhdVWbQ/iZxxzu5OGzbLe6TlsEWQAdOIj9ck29gF4Ec+Iqw2iCFfASGnDrbXai9qXyMKfGmjiRVqFYFjDRyooi+S5lYkBaFCk+SpXFzOKOOoF7Aj0TdZC0UnfwPOe6355kOIwSwS5ZVC4Hw3JsnH2/ctu/izVfc3pxKOtquMszhWftbtJO3vOlnkErvyYc/nPEBWHHQjWzJfUZYEkhYKKuC1Gx5d7JC+BLgReQ9zXmAAspD10OTyrRdiwLGG88J9wOYypU57wqE/wAeiUxOOLx5Kg8wF0ofcA6PWCatioUyMekNUmL2TUjvN0cbtif91/iIrxznbkegDVq+zP6nw1P7HcU6hmfCbFq94WCiJekiWAK7vIF8cW0XcysLHaWnceg/ZquSfaYoY6FAZa5vZYvxnxXMhQqORJtJRInyncggyiZlk6+KiqX7/+yIDoeOBVvv3gtunnN4eT9lZvlaJqV79oRRsVPXPYpjLdbOTRk8ZtsAXxjIO+dxIU3/19WqIWnufW1AHcDyhrZvyC0FF9J3mVqbCpp07b/HHkH4s6BrAZQaPUneS8VIGoxqimocYc2lxLwDQoi4LpUlc35VQo59LGeEn33F/0Mft2W7AbMeFEW3y7V7E/kLwSLS/N5AWnkNOc4Ywr/q9wsSZXkL1KorpZZ0D3B96Iz5hfD+/VCvIvR/iH6NHD0g8bWhy6KsYdcymQmdUWZgjsQo2C+rCbfnQxVIhWWC3yvxTXeDCPRaCctuFNgD31KMahVek7dkOe0nRLSvYzBfk5QOIfge5IkKl6yGPlYwQBeVqiFsQTzFXaHb0smnTyY7PDqtG/1yTvCHsafJZvDWidXsk/ZGnDiijbv3o7yri6rUJQI7PpHUdxN4FV5mJ3BReyRdc+7fNd3guk7Ye1KC3gy5vfizzS+1tNF/JHQamG08qjha6YL0c6tsQWu4SEusA4NLo3SvukjaWX7DFBJJdSK9mJInlz2sqFMZnJYoXbyMof5OpRDE8jc9I7v4xZcbruOVsG9RNVVv0tTsZdo3FpySunOz3lNcmfjY0l4OitlQQIqov5qa0oUSgVweJQ1N+UsyQwJrzR5q0ynaBO6mm0s4oUO1GVUNZust0tP6mCsNyDxiT5zpuvoBgOnQgXvVEsQpgO34YmOW8NWvDk1YVG+kPwMfwaEbmXwXKF2GIu4f83c9sM7xEmUul2Hyxe3+mtRVdUUVIrG7nDF5wpcU57n6zB3dspOS1rcS2v1wCT6iKez/C0KZU7IAXst1GxNwt+EKMU2inOCObo4O811zpsa90apTK1QiyTyysrVMFMtbLRN5ah8BVfY0G6pO77wVM5gFcRylGu/eO3DdrkObikX4ZX5wrmTBvMveObrtTLxpdWa3wofTJpg9kfSM28lFttMyi/EmYMCL2lpQRsks5dCJnXmtlZc8S2kEjxPZWAfsU40OxtYS3JGo5+xd+n8/oQ1o+3mmG0s0mzd4KQaMDRKu8jknEnWxR44CpFri1K6e/Ns8+rqYvP66mxzdeFmu1KOyEuhmnQ1U0q1lLaCQc7NxGdOxW6K8ONmeYQ1vMLFIzikHDFs+1q85AeaMRfMaMjIJsNUMZJHpJdBRQbSt3gS6NqvWFmokqsgy92eJfL+tSBMgVWixjZxDne8ufZ8RbgVIK5OTipXNdOYDCe1t9datbqybj7Cu0aUd3GhLl7ydG6jBTlnq6VD3x1K5XzKFfAjrkeHNxCdE0n6NOK2XstjwJy8zmF2dYlCXZ7jH23wMuTF6EQicHcIjfSlzLhON9+CLKDGtP1TPyCIE2UayAvOzAos860uzFbl8AUQ5KYQKBPj404mT+ycsK723Yq5nzLHi1dxKyY7Q97Kt4Ww+VsFGjYz7LBpVZyCVFjKdp114mRkIRrWvvipPPyCycfVaZUG67I0gpLayMWnwlIIqXunOXdSma6eLjLxVvnysvjBVya+9NXXBlKxZh7CsImMJ1T4+fE5OzdPUKRSKBXpnJrTOmkFLUv2mhcZ9/16Mz4YL623yruQjYByyG8UJ9Cqj66XfQplUEHNQ5yqmwi2MKm0IBBUAX0NtYhThDt5BvfgraWZiUpgjPghIU3cJ9rn3AJqZG2J2T+shs3xkN/c5lysIKuGhWnEIUTX28dLhZDecP1uPqWywS/GprgnNi49sb335A6J2YXAdvLNlrALk/WODwIYZE1TRvB1jeni/Hzz+mKzeY0ivWKYuzwHdlZfwlTJqyNAUUSpO4g1NavJIg2mEVjmtT0GjDhl1hkPTDkCKX+IMyBf9qJOEEfBdjRml6E8F7cTWaBfCLR0uyixULu8RGzk/XATF0X1g2p0K6SpxDIsTNPtuy+VIqacFGGmV/0y7qMome8Im1zlYpNVg0uz9L6qLpql0roM4hj2Muz6kMOeCnOBRXpke4qJ2jw/UrhlB+fHayRl64rmP2ZqaAkGiAnY0+bdq5PNm1dHm1co0QXkTsaVN2jgiLa6lJpoSVv+mhpslyigElPiGVMYrwhzMZqj7KO+QDIflylc+3I49woMuDzaRY9JqamDUianToZoYLfg7TcG8Zlfg5/7YjWmTJ6tQzXC7MumidbmrKKsymQlqChpk0EhlW/i3ctdb/1HZVFice084p/SQM5J0oBmh+syqrSxHjQCVFwlS6WXyU5PLLKIWjil7iqUcySHEZcGZJxtKFol4tc3d5sPH+5QJpqYFpL7I4IdscX37IRdmVc0DEK+RqGukPUcm840LJe8ba5un5q823hcpM31VgCBdVXnEgcHSKqur+y1cmtMLkpthwRBZbJz+KChUp9B2EOu9MpStQNLAjU/BDg7M9Ytlst4hA14Dhbgz9135lBF2iI99xtSApQyWYw0OpK4zUMcL57OY5mub57Ydut+bpXKN/VcaJPbQNzU7yT5nGHkNZX3hmHF7+B4KEsWwyOMQqQCpoIXCvd2I2e86v+q1bChg9aPVVRklxNOmKSoWNfXt5s/PnyiGLQa8rj2aeOcoOXOla5QrKOjy80lMvJf6074UVTwdpUJHotqKBeZKVbEzi2Rqi/TcYBFsePZ6W6pp2v2v9/eVke8Yx+8uyXcNXGKTH5xc0E98aCJTKVYT1jOdEZ4JRcZmvWiNEIF4hTYYBAbnkiSB1bCf+5WTPcUqtm1v7KspjHeiqQQpUxUv8HI2JRapc/Xm83HT0+b9x9vUCq/LnEPEVs+VCgqKN/Asfp4cXm1efv6dHODFXhziWJxbWh0FaCUigANVcXuwrdP0uSULmNrHpnt1loxaU+iBM6J3MZrb9+i3J9VqD8+xUIJbJU4pdXeYJLeXqCWsHSR1Mqy4ZSp5BoZp9erhpa+r5G24ykz1/BMElvKm66vz0+bj5/vkItPvPxmkKu24PBd4PnF5hIt9ynTZYtXV8zpsOyvLnkCRan8+ku54sijJJntN5C2UElVEJ2YHQ7gu297CtV8ZG4muv2MqjpLwVSoGibErAKUeVaZfv/wtPnj/WcswGcqaVUoe6OVVAp1hkI9onBXm5ubs83DW3cf0eg0pHOF7mQsTY4czGlPpog6YIRj7sWy8rhUsigAKJn74GthnIzf3DxsPqLwDnNPJEahIDsncMLT3cPWLcGrIpmLV5wJS8DIuIKwYAE3jATDgs+qZ35ac6pn8wed748PN6kz6+vm5h7Lfh/F17KfXzygPA8Mv3ygenfBMsglaTCQP+XMS+oUFBA8HeGVqFTKkE6/oKXKEnTc9O91Vd49hRLYGRfCLvulaQCrTOsQJ57DiUMb05LNv35/2Pz3rx+onOvNHx+vMeOYbkq49VEdOnF5uQab+83p7REK9bi5+Qy/h1eoKN/E0dhOOo+ZK1SRlUdV23NhNMHIQ3ydw6SV2q6DKpMWSqtlg/hVDBsv+crFWRodwnQ+QPCjhSMEaKVuevU04VSVFENFGqEz1A+xCfBDmGATTT5A0ZnMMf/4+LT5799vNr+//7R5nw7IN4N3W2SrDyScoJ8xqbq5PwL/EcvFh6rU6b1K9cC3Jm99d0nZqS+z9FI8L/OqOqlpQDqZIi0YhbmOQqZ9n9tTKJmYU2pqcEzOAy6olKotUwsdwbmpTO+pnH/9/mnzv/75BxV0vfnw6TaVUNpBj8c2O77nPAGHJoag81PMvFaJvGsexUo0Q5+VpEhKYU8znwoTiAUitgMEDkY+bxITc+Wfldp0VrYKpduiPaVQYAFXmZxHnaH4yqkVLeUr/ORFfmZtUzmcrvUlsIUxHUa5zMwnTPiTHArzIuzU4CNzzN8/bDf/+u3j5jcU6o8P15tP1/dZL3MTn4d4+EBxirW6zPwKxUITb6nsRx6hnx6vqKeLzdUVw6LzKfJpZ17mrlQ66yJyL7IZ70sMZf5W1+VrGmQMqfwC89aR9mfmplflNLRFUXAnlU7A//hwv/nw8XbzwbnALb3p4Zh5k9bF7nNO5ahQVcF58vJxHrt/cvSA8t1vfju73lyxuv3qijUjaueCyXFVyjwfGBLQspHUGzkYW4qn5ox4l0Y+SQ8+qTbWo5NxLkyXI4gzri1fuzxmOC8rDDh00sq2u5XwjLGRAqbh27mRFhMZgkoiaKr1hQFiyeJp8+v7JxTp8+Y3hrsPn/l+ECt0x8a9B2SL5aSuXITbYjFvtch3fnDB5j6ULV8vw8u51ds3LuISoc6U0TzwckUswlU/a6ykEdqw6rSgfsXJuWlW1C98lydBuWqiFsUKrkybnX4UCqW4poLe08NUqI+f7ngs9xs2VqNpoJwZQEXFQtmQ8MlFpfvUd8I3cB8/3/OUt928vTzevHv7Jk80Wikf1XuIbbl8TI8M3LR49cSl3KqNDqmiVBVL5XJrUAwccmT7CjTOqbROzqceVSjT5DUKutATbx7Fef8upi4U8WWRC5C+iutTL7OBza+/X0ehYpmY091RX/cqOf39EfNYZy2Ugt9v7xma2THKB4cPKJa16MELb15fMURipXhadi4VPSYPXeddMeIRT6iuU/VNaN+0P+9eGPJklFwnjsb7WsFmrzK5eOlHlT7yfsIyOWfym7gtFfNE7zqidz15YaW2WihKVcsMNFqsFR9h8tn3DZVUigg9w6d87ZRzMQ2Xs7GtUGOjEsWltcuWIW8TDqKUSpy+VBgfj7jq2zw5geWwrFKhYYM0WaYGTJ6BJUzdk4FBAmk5kYuHUcn68uHE+nKOmSc75kUqE6+heeo8i1JrQTcnZwy9WHbrwuISsP6o3M01Zy+cMOzesEB7d3+R5QfWYuPicet8oYhY8RcMYy2R/poalD9521WohZ9Mm3H7cl7DswgW0k379cn3FqvUyqSy1JlLDncP2GJ7vsMJdYEh8f3ZaEyGO9/X3T/cbK6xVE5I7cHOcdL4oHeeSrI4h4N2jbCKOYiGQQfeliV6KD4KpQzHPNEtS8/i2aCkKef+vD/ZdR7h0QIIFKAvk+ET7kY11aJ7qVDOOVdlAkbdbDijygeCJ60UCnWCMh0xR1KLXTlXs9wj746JOzrg5yiUH7Lu1hdZRJqphoAoUzulqZFnVFTiuziN+23+rkJJ0/XRlbLHp0TYBQbGrZ+YfAK5Z7Lpp9q+6jg+rgrCfqMcwKJUDJxPpMVC2Gh+98a8AQVynuAL3LZO3aDms7hDgnRiEEfF6TnPApapSOIBDZgKXw12xMJhngDBOaYBsyVmUtjBcadJFlO1CNdYCmN4V5labH3LdUs5P9MB8zbBuSSKdKRyH9XLbBXaL5ozjGVIdpLEAWkOhyiUh34c5WnQqUWMVvgu4hBoZV4l02I62VCZxPRaU4l8t3uuULIK/90MOts5J2E6O6Jv9U/ylR8TcCpJhfJjSLeI+Fb+Ka81avhzgll1bZHIjkrzoozB9QymmHrTuHT63dN2JUty3cJsBBEqQ1fDmtGErvIomy+Pnc2eMPtnCx6TX+wpL+1cLDwFSbw5T/dTleSDWSzRfgZNtFLOoiRMkkrlGpOWKMPuUKjqXCwEs0TwhIyOylaRb8vK6p8x53Qm5tc3foXjRB0crvqQwjoMwahDJR51MsQ2eXUDOVhttXbLveJOIcnWIiLdS25CnPAX7E7Wp7wUmsah5o/QjCcmjtsth3hxoJfDiGP+Ee/Kjqm0Y0qpYngSnM65iI/PTJ+w5Ew4GRjdrMQ0PorajSmNFO1LqxNmDxy1JqiACSQnkvgDR1l1Gh2XAs447+nq/BMPAJ9QprPN6eUrGo1hDjlPOWnsDbXDe+HNOdZCTrpqLLMwUx0IaTnD5mCz45blBOPi1l5GQ/Lq6+iROuLyuz5XSLJHi/QnNU0lYWL6hJxaT1l6eAcTBnA5/Ix6Ot2yIvp4S5Xpm67lX6WLdVes1HfnHoDAceEt5TG8H3seLywRm4e+pdTJv13BK9b5jjSTGrXR4gukMFbSBXuP3ry+rHdSZ4zrlOiJg73yxATyMdaJJogcktkW7v1RrjNfw7gjkhXhiwu27oLYK9vmM19E4+SxCFWg6Q5FrGEpcR7BSVWZtD6//LTZ/H//72set53rveKqhwatwynbfK8YXf7BguFbXm9YNvP3ZoOVa18pDKs8uMzYhRmPOo8wQyuhdvJ8RTl/efdqc8Q61H1O0/Pd3S2UPL44/+QV0CmVIG7KijIdP/Ey++EanGve5z2yXnfFbggsKq1pR+1OaJ0yTU2dlyzNpf2WZlXAyqPLU5I2Vsu9+s9TnluoXV5VCugk3U+ScViSoGIYvmD96A0vma6vt5uPZ1QMk8YHLI9PS8dYq2OGxXoKo4jQeLVCnTM5vqRWfFelYrpcoPWz+PLui+BwZkxwaeCGTz61WpvPCuYL4WOejC44NuWXdzTa6evN//OPK+ZsDNX35uQchXwJurPg7asN7/NKocwsMnjTmXfckKzhNHo1oGpR4ZqzOG9RqWAOrehXUajXTK550jvi9RRzoi0W6xEzenZ6Tn34dKxckIQGhXqkPlWop8+bSzZp/fLuEjmpsyiU9VXyRhxuUhdEBR+8RllMKbG9d5hgClcpxla3FHoFhUPRP1co0Zqm+Rkn3NHmNMDpETY8nTpvwd+yJvL5mndOrPY6fN2yUMdUAL4Oh3WIl4/kcTCxJ9mAZyjcFfOYN69d1OQdH23rS9nucVUx8hlXCyoDnfDZ7YF9ID9iqDg9oYejUH6nd3b6uHnNy9V7BHxgi3BmGgx5OZzV8iADokTps294NM+SV1eC+UaxyTT5mqAyUQfmG2tVK29wh78WhRe7vID+ibfh17wU/nzF8OYk6K52kR4RfuK0PTugquzO1SM65yl1al2/otJ8gf0O66Slu4BfDpYlR0Xoi2Bcd4uK7VfWQIr3pTQR5vQUdiFGrO93zcoGRxeyT8d9TW9en/HkcsbaCOxptCMWN49ciMMcPdADn3i680mvJqH0WOyyC5fnp/fZF/X2DW/Uo1BUEJqqsnVekTYRNRS+ZG7PTRl3kKpcnVR+9V2f3k5PVCh5q1Q0OePhI+/EjnjaVHH7tF/TnLhrScvSMTySnqwM6Ibv2lDtT7ezKJ89voSSp/ZKxVIKMdz1+ZoF3HvK+1mFYv3uCeuj4tRLYeXCtsHCLNTXk80tdUVnZY737gLLhIWyrq4wT+6Rcr9UvyqqnPfqLvJ0CkwPuq+lF1EX31hTPFeoTpkzOgQbTGRqclkotse6/YQ5yc0dHwU8MJFkk9oJVuDkxkU7nlqcsLtEwBrLURbsmGSeXOYdlFtF3r2hx749442686myUG2ASqSYOoLmTJjENvAp4CilMg2MNK1U2gk+hiJ/n6oYjGgpHwhsZvksT5/CiIaeW/acY2Wdy6jcbTHNQ6evUkexiamU6zwq3MHQ+qlK4qtQZU1esaKy5ZXJ9fUFL3vZj2Lq0R114lafeyy763OlVEdU8hkWlp0+m3eYzp+vfJugRb/Kq5c8lapQZDLLBtMvxBtTLF1JuIYrVLXR4Zf9Uqh9ngfxrd4Ud0kV0qSGrWw3fbmr4D7bPi7Yw+O2C3ojw5+bx1xvYVkuPT4Hn9qruDKZZ+70t5/PNj//5A5JNt75otMGXPLhCTDNTG498bXlo1g2EalDoFkhVBpWMjLs5jhDFwV91HbdhlFJ61QWCiQsp09Kzutc+3HItefnOucIH0yAMtmBbLiIoycpl65EsGoFFLCVvmqw4Ers/nTd3TuXD16TX32hc8mUwbcGdyzGxUJp6cn0gpfVb6iXn7BKPzPUeb15c7VOEcCJXPAszmEfKRw4lafhKna59o11uP2BssDlYVqVq/wVtxSqafb94JUQldTMjJU4LZ6oFuTCCqI1XKh09fkUhVKpLpinXLPgaSVlMg6+ipRv5piAX2Cy31yebv7GU9VP7Il6haWzEVdlKhtTBRiFiVKZs2l0zUk8IUbNy/mbT5t+lHBDA7kY6Ft8j5t2SNn6ugPF8mXrhuH4yRfZ0Kk0bre1k/g0lfOhSHMYLI2iFkaeeotLBGIXjyKFgLJO0TqTAqG+QHFIxRiRJO9X+UrnMq+v3A+lQsVGsVnDedLx5i0PLj+xZfMnrNQ7zPgr1jau2KqcDgg/20H+u26WcFWlFbMp2t+lXmOmz7zWFEOW+LALXwn3r1UEU3Z7HhaFuck5JXqNiXDrxym9+pJtFW9uTlI57uXx3Z4P8idnWLCzS3B4QqHhrlDGNzxRub3VylmVyZy0TmX+1yILF2uoj8MfIK2RVkmor294rYgi+ZrDXs87L4ZdF12jRCoSJuDRVXysVm3KqzIew0wd883+A9qnEt4h1zkNesELM/pBlMH54yoTmSpWnLKZKMBGtNQqh/AJDWKM8+bd67KIl1TAW170qky3D66YY1H5O2bSfY55fEW9vqbO3qDtTFdRdoZCfOVY6yxZLJmUfHT/BBYBB5LAwhiAP+mt/Gq1bY1PfAUeuta8SgSbrUL2QdXAHnKMtTmn+11QU69oyFsvlMmGfPL9HXinZ1gwGsjLXu+vFpxTYveUA7IpwrlN9ZrzHBrClwi1nwmQCqVV8gX1tfu0WT/8jInynHIVqg4LU1koZcZHcmPMko2vhJAq5XhggdZlj1seKhwubzlO+vLharOlbI9+TkUd5dggy4zcQ4wSMKLZxF6mWTsAzY9/k8X3sjM5oXYP2DuGYHQJZdJ/k/eJDyxoZg6FQl1QR5dUMg92+XAie6CgTf7FGo7FX1/+uvYrxl05hKplkXVJOYA8pUmaqPcqRd3bQu3kVKiF2ASzX4xXkmLVVNULfTCm+hSUisrHkmjIpcMLFdWfK3kiSnqVPqh0sqwWq24qk83Q+cjXsI3SxSEQVyoNnH/lcM7h658McczZVKZrhtpbLxTsnneM6MakTMpqjiNX5cZZ3w43Dzx1eU75E62cF9axaKyqM0SZqYuHPqVKVpQSy0FHgngjIZ1jCZMEngbMMitCz9vO6AwX5KO1LYtL34eNbyOsp1zwOSNTFbHzXvKX3yKDdTci8cTqRMIdBLq4GTYzBaGSZoSFqoe8ObHD+oeuldh0G5gZU9dXaEp4U2woLZAT7OzcyZymTf5EFOWxOZeLrLV0cWO225VGVQEu2VJVJKSzAVWZet6Ujf+8kci2ZKyjypTtIQxvPjh0D60zyrWvdgOvmu+Yn/w9WjEH5T/xMx1uyc0kXlvzCqvA2zW04YjhSHmVSjoDhr31p+5GKyEpCTr5t3iWWwvjhF/lWleuDGtxYYqGnMI8dSQNl69PVTSz9Bbf8HAkA7MUq0sYfmm9OWFFeTEkvwg+MJp/54zsggrtsN/p7Q9OEw3lQaVmHqpMKZS+glsJ+jZ45SO8XPupVEBWcq4pXTI5lmsKeKT1VsmtfHu0u0djmdwyiyL5Vv8ORXhgucJ3dUNHR2OPym1FUjIqHLukxHAkTj4Oj3lXmfkc79/Y4nLGk4UPDy6Sal0Up3l3AVMbETm33SKEZ9gHbl2qO9bFyDn+lsVMIb6E8eWVypurRAtt3+ZaqpKRAnB9ZSTmkEWvCQTP7ktp4BWHRnJu6EQhYIGVvPJr2D58xZhDpTgFKdZyrFB6Akk2j7IL7VJ0LlLGOgCol6D4IlsRVGK6YejEnJ1INkM1gNbJdSP3Zvn7Lj5Z5oNJxriaYKNMMpZMRzgyRAtoQlenh1Aq0zGLiD5onDIRfmRNaItiHsmfIfCEedXNPR+EMqS6Fdd3j2Et++ZfuYzqNS9rQ2eI/NAeO08EUrkoigoljpdKRTfIVTWIMgGrSQVpxSy4gBcXsDcK0zhBGmUL986oqSJHRyZfOLy+khyCSaGMHyKJVMXxmdjhsdxWCyIoRRp+hR1MrM7Opau2rZtjPpsSchleph7WSFbWV8qSVQ71xGiKl3MjlwOcjLuLMXuzMIs5EVieVqKywTMVbUZSUvE5lENfpeKvrJELs+A6ydOysbDoE9c91u7kwY8vVCgeLlCmc578lgk6XM1mdvJMPvqLEzZkUqGAp7iD1toqpRLQdt/QwF34VGCQJTLX9DNhBn0QZ3GKzVfu5nKYaE+hXuIziylOx9ufYOSzZleNpqK18ihGi9K+6brqeeUHAII4SU3X1QQIWa+aj0lZrqyTX5PwiI9WufMzHxzIi5bKi1Z42fA2XCodnk8MKbFMsNI3z7xqAcnJclQsAoogHx4wssHNn0jzKbXezR2hVA596t/iFFcn4xo3ZQ5gIC1lAgWYUVPMTlJRu/5MKcpgkrq64taZCZfRFE8BC8sy/O9w36BQc8azMA3f85U/gre4pPPveG8Z+E8ldWoXV7gVmPTwaIzCr2qkZUNtV7a/i+jkuJy+T5HZisx60y0K5XdtvmbJMJctx+aBQqFUTqjDjzHW+UXexclNObnyRYmKHHVCpVSuFAQIPKNQbM25g88dNXnL7gAn1W4jeVZQQKkX68ZLPhZ2ccKJ5KqEUixlB6xA5r8QtYqJK5GuGVRsvXe6jFZoQsZl8ZL7WvoenUUnj8pl5duhPT9aLYwr4T1usuGai2o9DPbVWSQFx7mOzmRv+lYgT+iFb7pXEgjSUFWZoYCHDQw8GdjkdbltOB9HskTh05tnYTpVjEzE64MJlQT8CKHt8YU1hK71qFxcKlsV0ck4ShnLUnqQhlVWcBz+nJs52ffypXdER7ZIKl4Ao2AB5oYEJgwXJMJkmpV6FW6kZ8Oc6YL6qlwGIBkQ1hlu/gHUbcrqWfpO2mHyidMIrvLNaVGoymAWpAWafcPj2hdgiic4WI22nvNLeVWarj8TxTuIO1MOng2SXiVRoUzyss1LodhPhBJ4Uu+ZyxU0sg8EDo+1Sl8E4aFictXB+KxGu7N0sVwIBmO36G7RGlf+M0eCVx1RjbKZTsYuK9TSgnmVPCmTgukstNXn2kDcSBA2xzusNnelgOprmUSjaCCFTh59STh4Lr6wdiMjPdFG9CDqnN7kO34z2QEmgkI1Z+Mdnv0RTndt+GDU8hONgkzxgbF6U5pcMrQPds31GY9OsIUIp5yOekYYinysz/lJiQt3yGOXKMOdT2MqXIY34NqpKCBM5JO8pHOinVQZq3a6Ugl1QKfFcDh84v1k/MjiZLlsu/xUrBoGXTOqS3iLG21Q7GRgSuUUOSpYgpGii/RDqWJdhUimXlp56uXCqyi8/2knD/l+za0iT5gSt/Dlsy7WAPGeIwQWZRp8DmTeBV0E22c5SOMN+qWjjrQMd6Z5jYaMOMSzv5qhJQuE1iSt4p9wT/Z1hcZjgWwsh6Y7FMqVcn82I+PWIv8QDJ7VsFqaMSQWgATzkWM1YM2rnG+Zo/xUHAW0ZblDF0XVJ74lzZV451+ZmAOL7yuBFM4C6soviVSfhgsxLN8RTAC4PlfOAjVtUSoj7YJMpDg39EW/0fcRhH+BRSt5ka2IY8gT3Ka4E/U7XGRVwhfCFpSr20WsyORtuCm4ch5ZRClF4Nrn43DhsHTkRKoddBaqLUPqVhh4WilGIMJCaXhgKcsQwCwrD0OliMMYECct5lOrJIE8vFQIq8umr4m+YfPXIonZw6+5CbMuRs6ZgwNenQS65BXpwqM4pSAmVkIQuSUT/B72FsCMMIct33/WucKCWJ3xvo8wXfD2lW8OG5eMOk/d7LFYUJdA4RttVILlmk8n6HOVFSEwKjJKJAXWJb+SIA75hycBfz3BbSlaMK/09eRPGD9ByMsfmURpaP5YLJWMyTVJblV+YB3rEatz4kvtGBon6g54KnkNk8okzRGW0l0BeUcpa5xrY+6/0lKlCMnSWwujJCUNXPIvXUANbl+ypeYSEYBrBP0ZnsT/TTfz2c2LGtLkv+BaRpNF6vgewWyVFk6NK4BwLEAnNn37wBOcNDIWRHwTkkEhp/cDsgHl2UOn2cUaAHDj3jHnI7jibubZkhIhjONatsEj2mjeLjhlaHMoRDnIN3vfVUxHQT9aBUXZ/DTMibzrXvL3mCKFUR6yL5FHVspqui+QVSp1skpjngrJRf67r0ZEMqMx9EmQ8uDDp+rF+R84S9kMayL0KodCDDhoJgVBVF2jdXyGBeFbbjKpSxv+3M3M59TOXNiMM8Nn/IRBJH1Uy1qABa+qpCp0AKkMN+hXHlY/NQiPUfVRJqZISe56UxwtgT9IfcbLNb9A9lfPa2nAVBqMy9COk49AlUeFMkx2BTPgqw6VoRRCpWDLYA1zNLZPhVqjEz4fj5VEzh7uoqPhDXtq2g5Q7zKTHVwBoF7eK8P2LSlQGeJXetEHHABJcT00Oy0QYDlDnQ4RlL6ZEJyBIHw/Luyb3MxsJXCB5vvcTqFgsROXqY1nxXQGFLRbf8lRnMYtHqP64MdcCHLT69CvUkmxbTAvw2k08lb/xHft6Zx9Vu6AvGe7SvXhquTgQ6Nv5c/SFbNSKifi1So2+fhogbZVmUqhZMDOTvBOVCjtPPk6cZdOvsrXGbjY6TWBkKvioENCLJZKDOMlbzAaMfBxKyJRgylVnj4tFP9WsyiSPqvzWD0SgjG8ylbgdzhzWl1ZqJcY7uKuVDtwifsSpcI1se0H6xLflCYtRRJbqK5Vq1RK+kfGh6wdMU/xgDOHDq86Ja8VTivhLkoae8xd3PHo+zxPeNuyUu5jdk2wIU6llxRWuE4J+jJ3h7m80kFhhIuXuQ/DnsoSOVRezI7K5LZnNwmiU9nlcM8XLD4UuHQhg5xrzi5Ut/r6zk9e4QkvJTHPlDpioUzI2EpVwyDYJfLqQ6ds5UzUkuPXOB+wXJqs8MY9QGUbqY20MtxBfzki4S5RKdTLFM9TOvOkyExFeO5XU6zknW37XTNzvLgURyfifsNf3/j7wz80EN3eVemPn7ebT59ueIfGtlzMkl8c//zzm827d1gMSnRJF71nC+1ncPwOL0pUqkAQBcvTWslm43a+1n4PSXliI6EtoMUuJSmlUkFPeW/nt4R9Gq9zdk/v9YysG667Oz50RT4/InjL9l53Y17ymZm7U1WooQJpdGVKnZkhsvZk33y9otD4cQBaZn0RxCmuhhQ8gODtt0VRD6IwKNzQzHHBg8/AWLyRy4RQiC8r1CFGO7BWpBLPnFoW/TbaJVERluKJueJWzHv1SS1A8XG44QmL+A09vY9ZZgPB5r3ndnIUtBbI7/w8ve347GpzxSnCzmf8gNIPI/yc/IT3edk9wJiY1XCziqtJt0GHCDurlw2nDHhx+j2EuPqQp0esgGtV2Ynqh6B8IOA2XC2Up8b8wWfl799/4Du7G4beLYrOkTvv+OT9Ldt74eHnYR5t7cY8lWpVrORGhjDKqyCtVcnk4n3LpGBVR4ZKvjY2Yi12Scs8YZZiNRc5EDa6w0yOuBlWkAOouxzN97BCdZ6DUbwJ1kJWnvO9+0L5psy4jjZOkjPqeEtL0RD4fuzpMONDuA2qM0u2M204KZAT8TjtzWMWOZzr9z8+5PJrX3N6+5bv0q7eYgle87UMjYslcPg7Y+f+w7nnULo25aRVieDuEOoaFZNw97enCcjMdtRC4SXziAi6csRSRfAHFKcm4ucMdX7YqkLlyQ5Ct828//g5B9a+f/+Rs7LuN28/PGzevr/Z/PLzu83ffvGbQ79ffOJjDPaFw8O99OaRfPGVUjXLwWLkLzyXMpqUW/lWoYqsMzy7HvLSBsiu0olSaN7NaQAr05W8kNb4CDVVJyzKOwDPFWqf0X48Qqxq0nLMFklYzZ6YS1AKGzKvJRiyXL/J6xJgWV+iFnLmAfML9xypTOhQlE4ZP7NR7j1zkl//uNv8+ivnUP72x+a339/nciLux5d+mvX23Q3Dnt+18Yk2MtvA5zzteULu9ohWRm7XpB5ZWc+LZeVymElF+1ECf9DFQuEbjhJBif6MsJN8T4zDwrCbzm8J84kVCpx5FQV3U59HQv7rtw+bf/36nqH5dvPq9XbzGoX6xPmjtw9/3/zEN3ivX/NBrJf5kKn5qhd4KbvW0PLlHM1IV5ZM5WnFccK9KFMrFfSz63axxWo+hpDQVZdvTHP9dhcZX0B/rlAz4k4+pToKtoZKxyURVmk0GiHnNvmyhFrJR5XOf4B5lmYUihbwySi/pkDre7bUEds/tBAu6Vj5n5grfeAA2PfvbzfvUajf/2Co++Nzfkrj40eHMKwQX9j6I3ieOHyKRdo+vqWhfbZjaMECYAs4ixJT7Je4vlJhKNkyIcvwpaKrCficmQMFGfOv8YJr4CdRfBoTWL4vZF53lq95+BYOzTUPHef658Da3/642fymBeVo6A+cMWoZ7skzX9o8fcp55G/fM9/ji9+fmPPVxZMp2Tu3Uokz2qH4j55ag3X1DYHK4PKFndChNudxMQ46ybfzOOHPYqryI083nb7xFWJ4xhjx1tJCFvhFt/IttM7PWlxdQ1fICHUu7StS6/jss8BHS/l23oOyPK7Pz6YeaMD6sNI0Fcrep0LRfrRU5hLMQdyclsaku/7zt9vNP//5HgXix30+eTi9ykWYQ+qv+Qr5hh/8cYg8Y3vuI6eVnJ19iKweB/TLT6/ynZ8/+XHK6XRsqqQRsFLIVgrkpjvKwnaVJy4GMMIgZUZOeahcS+q9nlaRk7rxJ85OsUyXflipMjHU0QfitEy/e5rv77+j+MjN8dAep/3ZyTmfYvlxhD9TosK9faM1fcPR0ZdYV55IqRMn6x7MkSZA7/3KxrOh8vEpctWQ67xS5eEkdx5r/ZmOzMUsiuVRKfhX1naWo7hWd294QysuQZW4BBjRSlxR5vgL4V2FWpBKjCWazCrLgrXEVfFi26PzCTpD1B27JPORYo5GbKXSUmmlVCbo6HGuRvuTq7nckI1CebTzIz3v1z8eNv/rXxwE/zuN8plJLcPe7Q3HJd6yxsS+ow3nIRzTW49QKPcl3W/5aQ8a1c11vhj2IAq/THZB8YSPCbQwLh8c2auFofB+yJBzDrSpWK8n8vayRTLFotynNNQZdH62dIkVZYmr5j+cK8B3qlE+V8t9WPj8+SMy3MBXJZUPB4FkGD9HoU5RLKAcqmm4fhVL+Vnnwsy8ct2MoTMqY4+LhdJK2fuQnUouS+X80I7JthnOjnDoPWcR128EVZkz6rUtla1ULcW9LdBoS1tzqBBYusKs8PPoAv9KgKqdlWcK7/FvPm2Z2hcuFXWVhrzhXPIbDsbwJy88CTjH5NDAVgB1hDK5P2lVqFoQxIxrnZhIb2lw6geF2m7++esdPf6Wo258HIfu0cVEVq4x+ad85XgSheQUtzNagwp78Gxv+CuL9ZOPSPXRPy2VFtGwX/+eoU13KHgpVXUIFVnlbMVy4PToVn74jM8Ln4ZCHUehtCguE6CXNKyTcSznzSeUhaUCKuSYRD8fO8PycSTY6GwMfyx13PGxwxGn0h1z2szJOcfzgJcPKbBipyo9VtM1ihx9RN1FoaJUUVPKQFmB359tsVKUmbnc1uO6UUctlSdQRX8oO/9VGcIS9qYy2YLVdivctN2YkD/jhkIh9MJH9Wi3AAeg4+2XQFagClOnAJdCeT55nVGuItnIKpFKwdMLfq1G++juezeyp8IetWCwdgp9fU+v5hcC/PTphl56k8PAeL1BpbkSfuaVfdye7/TAEx4TXM5EyBICSuMTm3ydQB/7SK9vI2NlePCj4T0dBiuF8CqF022acFEmlepkWKYL/AsEvETZTk45m+mcM6aYr1kLGssoKjV55iSdxabXLA/4cegRinJ0c4r1OkORHGZZ5qBD3G/5nZaHcyboHHnE3mF/58VPX1QCV+I9HjETaOrNnwsh+9SPMO1QzUHhR8/JnBSeInmWRE3UCVNwy2xrKmfdq21VpkrptCBMt6KYAN8cLIVS4oOu4RajnHrd4jSMMlNhrhVhmbRQuRwGsDZUSrbFptDueHSTGrU2iPW08Dp0cgPJhvamcni8fvMLPZe1HHq9PfvJXki6L39VqlecrfSG+cxPnK/091+ONv/g0s/SAdaurXyUiTErcw8aecsM2HlLlEklRqkcrlUoHwh62PNsAxXJT76jTJ4chwA5nigrZCgosroS/o6lCz+GOD69QrY7lgYeOX/cJz7XpR43H7af6QBlXS8488hfljplAqaF1tkptaw2pW8Fjq0vn0K7bSlE/sgfaTOsuhdMebRKvnI6PmHHqQ84kPqsIrNVqWw3Oegql1KshiXh375RHzC3VXXJrSMNKBFMVKB9J7ZDmesv+dS7509OylEyK0oce06WCaxAAcL1cY1jhaqc9kAPoviJM6L4AmDzwEkkjzc3KBRAev4bzuB8Q4P5Sws/c1rL334+2vzX31Gov6lgHNRBA+e9G7xtLi8l12plfsQwoRI7PfHqT6zMW0T1XaJ8a4evQjn3fuJwVOdHWro8cRVaGv0nFzc5/vkSq/man7J6x08a/HbJz4zwGzZnT9ccuHadenK4P2fh6TUFvNJawpvuUd/mIUu5CmiNVahcsU42PmqA8DV9AI9C+eBwxLyqFIo5KZ0J3Up5IVuc/CjFiA9FTPqEtGB/PSDVqLIF2Q6GG0lJnZkbbovUfjGxyKKrDH3ofSzTOAMqcyaHNnpbrJKLiGnRopO2C6ufODAnz5pre88xLXzHwa9XJ8xLzq9ZDrjk8inuIk9yP7875ugfrAOLOb7acMGQ5OWgDft4laB8ouXITHiGF/OmG6vcaUbjg0gvQ2aoGMJo2TMOSdMadL+WxnxcnPQ4ds8aeM1E+R0/eP0z517+jV+V/IUTwv7BMPiRlXMvz/h8hbJ5jOErlPvCD0mhi7zKlhFjdMDkXTetkYLmRTDzSDuoZ3FqXV2h97xyPhZkPur8DXmAjwaeuCj5KODimyxsz5HdQTehTsGgloU6SCWwM95FMB8VKRc16oRS6+QCo76Wye0jzkt4jJmuSSlbEvzmZS4qlOsqWXdhon7n0c+nLJWf36A8nNr27hRrdLH5r3+cbf72UynUa1eqySZPclXn6Yuz9LGGUwXZVy0enTkWwOi+a/RamKU0KNJJOsUO52ggo2+GPkbfzSPKffuGdTQU/SOn8f2d86l///lk89//+n3zT55ctwydl5yneYkWXjqxZl7mBxWqqXKpTyovKlFWhgpa/lIQ0rGSYvhbMM7X/P7+kTladlu4TgYIo1Xfx4LXZZFGvoGEF5DkJbxSDS0EiXz77bBCha8iTAow8hAa4bgpj2EVwg1ktQfJCTg9B6EzRKJQ+fEbCi5uLvjrz/KnUwZImh2N26V2G6tz8jfWaujhP7/jkC2U6u+/HDPMcfAWac6XPFtKka2XlinxkcVgu1jEznrBAaHDps1O2qxZpTRtlwo/VpQMlT02Cyby0cLlB4/8pU2E8gnxCnPI98WEz3jQsNNQLjrMqRN8VvLzcBIuI3d4Wn89R0rBwttMonaLRCkzjcAqGz/Lhm7B36Gc/6rnwTKyEdaPxHknaawgAXuz0N/pJosI07Rqc9rNxNh+PgsGCb5V97VGtsamhGKXeU1vW5Cbf5JTloW3PYrHZRdCnUx6YOspv29/df4zluERZXrF5Zv7swxzlz7+UwJx5aH45qqCG7fadYbrZqBcYASbruHxZTJc1q7gGjxgK13BYjlUKifSJJouucPpkXO5WE6WD3h5XSe11KsiSphOpwV3qSL5SJ8MHILhzJUPIqzPlmGxkIDITRxVx3p3TNjSBs5FnSOGRyRa5Qp7SXFlBStcUneqPDvc6d/ml0IttAZktrpO6ix2Uklc01kc1PRaQC5tm5VTl2F7W/GNx61pExjAvGdDqfxlKIcxn4bOmIdcMon1cHetkifc5dQ20m3EVhy5y9Ons+I5csAboRJg4BlZ+lDyF7IElrC2taHyKbstLi4NKowGzWy+8opyIZ/l9yUwUx4sF8f/8GTn+lydTjcWKLtiksuQFMK8e6RK4xAgr6pQqHzRTL6lTPhozxMdDnVCkXhWjTaZYcmyX3b57cK6dPq7Kcl7vn0lebJQM9XLYfnl4tbtFqVB+nVjWAnYhrkb3IZI/Se5GkkbVm1SFeN4V1/vkkKreAreW5YGfHqzYTw1N5ZrNFaXr2VScoec9E4qNy5I8KMx5l6ZF8Nkrh/X/sK0ApbPIc2SWwbvg2Dxc7CGvLQgELSiqlha0TZfbk/+dH3KDy2iKZw39MTJfvc+sqUzgiytGSKSOY2qGrmaZhkqW7104iDDL4qkBnpRQV90crdEB1wY78EPIu7hEP2KQlmcw5yEzpdKk14JUF9K37ZZ+FRLKgygjbbWki0Vl94GTnCloUVMcu3Gpzef5Dx3E/0K3DTQnl22pHAr2veKaagIEShpTQWS8kUYZVLZlZf0yGc64dF6XSapFwTxFx6CJfQa2k5I/DwsAPJrGF/X+JziL5zW4mqWUwcd/CSvSoufBWBAJVPJU51Cpan8nD1pIY2XPJWvZIeddO3msNJGgGIwgo15yG/qqpeXFMqKCUajFaspu1gBocKsbM8Q8POlUx71twBc00nP70YF08oqKwbRyCMrwqlFRaNiggQefg2hfh5ei3Vpa9DE1AqJani0udDw4BZ6V7qDp5ADVuUSDxePW+fZ8UoFPnBCX6pYSYO+GAw8+YiPz389lDBYCgt9eTybUJ5SMv2Ut+V2yGxZJKJgPrV1XfVkPDIkn1Ikh2S3QefUF9thTBfq49QhcYtsnfBXHanS1rtIQ1iBU3DFWUPNcoW8pFBizC1BVN6dXfsNs8wWoi7eMxF3wlRjvD1Hk962oSxPrBcpcs7QE+5UELQ1R3BO5n5NTzTh5a6vEoipnzsF7VLZEOmlIuCIZ/SZkZcKGoE0HuG0ujRcNtSOayL9IJTfeEkecGAZahEyr5eccPuUq+Cg2PF0VFWUyrmeClXWRbm9HFyrhlMP0Iih0zIllEoA1+nB6IR2HvnWvvXxMDDyC3GKNZTJci+tmdRxmwlm+PPwfi2VxC8q1JcZd6qWwXAsFLfsycG3oqIwqWCFIbthRoqW3mShpA+T0RBQpe6tONKtWH86w4pKI5hXX9CSFLZl5rtBrGiLN7mRd1XiBI/0c1y6knDlMcFEDWtvfQlcXWel39Zp8QeaOeSBw6UEXgW5DcVjGq0zleTJ954JD2kGU+misGKyYs9W1wlmbQAAE1JJREFUhDz9Wt/WvQeDeDC/W1rcvBELKE3yLXmrXgMYKaO8DfoGv/gdRjwwh4rYO9gzZM7esFcUigLE1NLixtPr0pNASAMXdu5WkP/46b2pPqvTIc9eaM+FD6SnrVAjvijUyFfc6tlVYTZI8kseEEXCrgLjc5jo4kzDBWXgLHJXUpVj5NN87BidR7Mwb6HxUA0CCxUB4TnNFwU44weL3IKSLRbME+pwfR8mVClKC26yCEfBdj6VToVi/QrStkxni4LSuVGqaoeFEFZKoWubV+FkEri3kn2J7gWaQ4ONN4XhAwoFNFiN1qRFODMUw8uekF5BxaSCKJg9yYcOK0icFAHioi/THfp0XytJPHpadiP6opMhFMb5mTMqrfNqP1Klwa18rROceXSuHGYpg1lw8zKptLgTBIywfhD20qZck2cni9sXwbAx3mHkAea+r3aiOJRl1wMK5S9I5Otj3n3eRlGst5qoh11pJWyIwdpOZ8VaX8dc9SNHrnOxJZlLa5e1L9BVKJ2e6lnWqepeSIeCtHMbhDuwZL8DGSWF0yg6/mGFGoXYod6LdJaiOhk840Wnjf/AthCvUijWRqwEexV/ZdIFQES3K12qMEjVc1Gkc/j4xco5innFFy1WkJbJPL3iZEMvrc+ioBUhRcNLTS6YAasH/JvNglbW0PxrUYCUchNpAHPcAtOQixLLT6cZSbgBAxag+GPhAXItiu8cfVGcH1IKKd8QsiLpGlJZKZXROnGZQAFSQPLQAvOg4kW6Q53Dpr9TWDs4ncuCDboUUipRD3V2WmG7Lhi7oL3YVKqk7Mcb/bBCdeoLfgtpcoqK5K61bHmsf6Cm3LNdzu0rVhyFohF8q+9OAv+qmBZ0oFI5+WATJfJHGC/41kgFde3JdafkA6q+bZcNaDasZtCKj5KaGIzGxDen9aG67CUCDyuV7OEnWcKDsjICNtLCKDexaDHyS9NEuUYjRTCRFFA8fS8VyjJUOVQoLXo6WfaJufuBumFelPzQel/3RJGUC+FaNnn5VOdOUIdNlSj1ZZ1xGbeDtzIVnTLIRzlnuQJN2pduRb1i7MfXlJcsVDCarItivMPFomOUDU7cqAQ30D0+1j4flxJKoawsV4WrF2qpMsRBkkdbS48T/4oXc6/YXO1Q4O+fZCuv7U+6l6haGXtyfQzZcpIgholRqrVKncOUAlV12ry2s5SiV0BgkbZyJU9JgQ8RE66bFsemLYuhFZaZjVZu+A7DBmWCIiqBChXrTPiR7wdtZg8zszwO8/e8w3QXaNuYWClwZCJ7DXANdfyMLT+BohXXSmU7MJ1a/slOFrioPoCCKUxdi1g72CFZbuLM7lBcvs3rRQsVwmDtspiJm0nMq4WgJWKB2KrrZjYXJd1Hnv1GaNY92zH9EZ58SkXlq0xuVanPiKgIaF5dolBUkp8n+c2bypo2IjPzjq5Q8SpkDT3d67rYwRKTKys0CSvrzkWyOuB62dCF+CkLaeZjw6lIXtLq6yIDaQJ93UJ3ISxAkEplWLXFl9B4LGjUKXzsf+53j/QpoLsNGN45F/0OjXBLULapmAcpWYEnpCXWAjnXdFSIQtEB3SfvUKfl8wlSCXTlK4Q5Ga+w8XSCDPeNLcXqxJzd1+LiHlSofcKVqSlr5oYaom8D+HTh7/n6xOcWXUckL+cH9/6goPMrzTtzAC2S5zvpOwnX97NyK0pzbgNa104bkpEVRR5eKmN2wqUxBILjbWiH7WcVzk9YNrFy2vm1nH6dw4cleTtfL1RRcph3B1GZES+P4Gc2InFETFatXAqT3RQRUhFAMhc9Lx0y2pAuDChDWapSUEYo0vzzgcS5kNuF+UDVh7jUXSmCVMWSuvIXHNxDRT1dsqfKL5GzTodQymfVNL6K3UpUYGtAZbJTVt6p5HAvOu9ize5LcdO6qAcVamZkWOSZ4RzvsL4FsZf4lj1zAlo1hgTiLUPhHfvCH/zig5JYIH9s0Mm3Smiv8uqMbMg0GrRWrLcausikNAqgbkiWhjTqpJb8ibuhL6mQ6IcNvnvI3ZDmLtP6UmYolZvURoP4MtfGZhqXX4q68iOKjO0ll/zMMldqyKoE4BCY3MAw2mF8G7Ya13nQNEm3A8HbId69ZZ4co0Jp3f1CqFnIzvxUeOsu8lHX6OAki3mOrOMr6a5SBkIb2EbZLBg5pfr33UGFCn8bZEcQY7rK3XvFG5LEpQf3LsgYDJIU3l605XMnnXAbzV6WX6UaDRl80tLTgsmNzGxo0IfrnI2aWDIlMY/oIOsDLktVyoS+RJk+8knWh09sgOObuc9+4+cpLSiZQ3M9VflpV1nKVzTYO34Z/R3vE/2xa4dn9cocvchp8ZNnhGjVbTnxtQiDLihQ1V/Vo0VwG7mzLL/62eZ7Q9pAVhMb8VIX1geCuBnRutKRtLgKF2EpsekdJwyjWPnU3Uy5sPiuwHOFmnivwVWQUqtK6fQur3GtlAXWtTJV2KWFgiXOTbxUkDReJuhgaFw2+jXMiGyauXWOBHVGRRQBvyaxgAXhTLZd3NjmL1T9xocD//z1lo9I/Rjzhi9+/fhgWDMtB8p4gqa76vyGrZj/9ctrOoQbBbEKWBGdI23EMRxAyVsxISNzc8e6RlnpQXkIAea8y0FQvMaUjdZHhc2HEgquG36P7hIsxR3VUohrrsZLgYq4lanx/KZRi7/mrhR9Nda3+C2ktBiIL5OI1ASFqWAtYtMWK2IDPYU1kfgu9aBYCEZ8Dxx6CBc06z2MvDXH9iUW06saqAnFUJHQoSjTRyyS17/+UKE+8YUvCsU3TNd8Q5ivhyHMKXZUtj8i7Sku13zQWVbrKhbB309+5EnKIdmG13Xuhh3KSkahLaO+w05LtNKoVKYs1reZNe/BIlHDBAIa/q7VI71QuIvVeQ4mJhY1fiuTnMPdxH/DlXBfUaiXBFGsYrAvQYvWlB3fxzsUb9z0xEZoRokbGVfDu6umZpvDgpWtsB5Qxlfhm9/4VPzX94+bf/2OMn3gJJfrLd//sf+bz7NUqP5W0KGL2V3Wgo557P+Nz995PmXO8ob5Cpv8OOQim+bQnW7QHqpVYKWIJC2OChpdb4DCiymeja5S1ZwqwC5b+wI7jL902CDXrTlXbFYkCZt4IvhLgsV3zvsrCmWuh4RR4OpvL8nVmTyj7oQXCF9OHpz2GRoP0UopqC/nRv5e3ifmTb+9v+cjgQ8MeTd8K8eXvoyB7oPP18a+nEU7sl0EBfAJcuvBr+x4OH5iIxxmzon51eUvmfe50p3HvlEOFYspWF5Ym3f0R8FsfflFvNyaAl9MnfWpgkn17W7mNlMVvHnPKYb3qTqu3+F9mkqZOXbrr+OVtDx5PidtyEy+H66Mi+muEDOmnHZTi3fjHErr3OM3YgP34+Eul74asZpKdBvZhXuf6j6zQ/IPTkX59Ll+/1hFeszhB3xAytOUSwkMZugA1YKVekBL7jgB5TO/5LnhwIsPn9g9+pmDzS6v2PRXNsacF7EIGHZ+Ug6GmfMR2zErYs2UzQGlUjPj2h/Rb/SKqvm138T7PDvefuMd9sXa5diWsFOsvS+6mbzDnbnxDg8mgGZIUyxZjMQZZ0l7zm1OGiWZOcpljq/oM9RwDrNAJ1So9ygU343yGTg6wskFR3xnxzfjsU7syMZGACOeuQ3KwFdhOQWFkxo2H/kc6uPnV5yecskku7qTdmWnPESysIli1PMDlS7CDtIqa4WU0quR8FOIjs/4wkY63nOM5hUGM+Fe+DnlHsLBaFHNeXQ+Nb3/ikLJswlm/sK+LtA+xiFOK9c9njNywg1of6U8JIuNiX3I4mUtYpaVyu/ouWLPU5vrVPapJxUK3GwZJuwZAfY914GOeCXCDCiqpmJ6PNF8wIZSWM4McTsFHgoF4zJYJs6y74VjmWbYxGwGL7m1FVSCdiLuIHfCF/zOp/0voL6YtOb5DQollyZovzM33uERbBTJZjehzeAKHyASv8HO0hNugFQjHL6GdzNQoRzuVKblYrXwgaXx7dYThcH38yVZ4bIjIibFIYsZzWBvmhYmuyfJ05+JrZ8762UGMcqJ1/yElIUaiRFxTh3weINwyjPrEh1vMhlGO/VN7ISZ16HwjNdh/Tl8iO7LsKLeleMbFUrGEs6uGbU/pz0P71OvGKbMqYippDPbORzCfZqZfuKs2RlJVXgBvlQWDsRVQ1+Z4Nde93qTn4VLk7FQvi5xbc0dpoaLRn/wLsYReQRJGGmNE+uDRRkKm/QgN8XEpGnNoJMD63j74VJyzHgDfNhrxNk33PGVSojiP09pHFO9dt2fUKgmbCYvZLUHbuym3vVbqMJqexEWzcckw0tjNI2cii7+1GNDOqH1KyHfD3qxUsBePN9loUz51MrPLmsFPDgsCsW6geeeo96vnXd8xH0iM49c5JM50hCn4V2WgdXYYuEgUr6FUJiUOhnqT/HgCmsn4BmwE1/wm99L/nOyxnyesg9ZZTk0EO9jT3EJZ9cF24fPOH8mXHyaayi7VPoqTcdToQMzylS0S27g1VDF0z2lrDfxvnyuNaHV2miharO/lqmsERYJRrFO5BMYN9eSvFSsHt4WfxatRY1lci4F4xGuAsAA7hW2QF7t9uPAGzT7jf5NfvOf/W9gtlela1Zzwhw+tFJueue7cBC4S/gtPWSfYmGXQPNsX2A9Oc14EcXbwozAokANbB769bQRJUArfN2T45+zHeaCvVYc4srakr8Dky9ss92WRz73I/mHcnlyXI5tZP+Wu0KPWTXPRwC+kHXfEVoVxUIuRcvVMg6RygvHxnheZSUu6fuuE2Z/D8f8dJVRhQ/eW7BOjLQj0kw6DX+f3xw/gL5SlqzfMeTJoohXZn9NqGR3qWxX8qhZg5YCGuiIvvMjkQpRhXK7ia9PLlmQvI1CudeKwyqy06D3Zbl+QMOjpLzBYyh0zQnCTK9YXmcNymc83+zn7b5KhSnT6rWdad+cvSLWGKITX8pTMVHipmiVuctjguHyJ7QBC/U33JqPqLtcnsdB6exf4twivZQO/DsVqjm2BPvCfl225lB+r7euytScTS/uQrjaOi0IA57aUKnEr9cYaWiI3RajYr1mI9rPP71h9LkGm/d0nLTnr296kp1bbp1TscEGpZID292g8+TfN6+PNz9zaMdPby/4gvkVC5tsIJwUSvn6UozoEresR7FAWlOlKkWXJoLmVla5iiNO10WF6y6i1q6xhHqtXkXm+0q54K5Szoh/LqwII+tDhN+hUM2xfdmuYUN/znUFFpemb19eK/eJ845iidGXSlUKZbljqbid8xHF6ysOAeMnMtxZ4CuZI47R8T2fh3r6BYmLlTkwFdAJq+UeufOKdyzvXp9wwBlHL3KU0Ft+tyVHLmKl5D9fKrCudpPChHxr92bB15ZYW6Sl1tftW+eClzIZllKczleaXde8m2NRrHmL3TjtA2r0XWaHYy3IgdTvUKgDXAJarctLGIfgh8ohbIZ3uIo/pxJO9x+wbB6yWbvKq+qc7/juzZe6HL3K6jh73tlIdMHprZ/YD/U5lqoWMn3l4uX5lxfsVXnHUS9//+k0lyfmeQKMG+EyhyInZcrVQhKPQ66Sl3uWJ4BGVuIhGHh4eyVKQrErRC1Ts19JDRWrBJZYY3bqfryxi75j3+fPvIvDc4U6mM8h4CHYnxdLLs/F+hKfOd8ODz/M5OZFBE+Qw5PnJL7jpOAL5lLnHGx5ef4Gi8WvNPD7MZ94JeOpe3csgdcvebIXCsQ3nPH5E6fR/Y1fPPiFoxffclKep+U5l/KJUKfXVwABCjHzQuoPGJ5brD9T9uJVeczhJdcp0OmjHqaUknYH8G9EOh9ZVLjO1TNf3ZxekJeAE1yiurw3K4Lf6KonV9FXATrUfuVR1qdymStLrHG1FTCZyyFPUIY+dl/6awUqmGdiOpy9Jv7pmtcyHjLLT3j4UyEq1QVnZL59xSl5WDWV6h2XX+DwpRIDajlHXXmbc25DpLZNlVBpzqt6DlTUdQ/tDBjhXbgxmVc2xnbTk7R3O4TRsPYnkgZVNlPCgeDoKGuKxHWxQJwp5Jq2E2rus985N2LH22/4t/ia8uYtvlVefIQ2x4IKadw5LJ1O7KaoTWuWLEtApDSFMyyOZMqR1/76gUdfu7fcDxZ8d9dWxX3uDpMeGe0BZ1f4KqJDXefSObYP6zUjw0FUiHH52mTRQBEKffb3w8bLdc3ItiSoe6fPvqVtN4dnijncuHu+pAfRmqf+jIRkX1YoM2hiwy+5g7m+hLwHX/lX6DmvgjRe+7Lp8Exj+DCF2CpU2nffJzHc2h9cbP9ZkfZzAu1wnZvQTsYzYcOHn3z3YF+LfoHdRHqI87dRTkxeCB7m/Q0K9QK//0PBqQZuq4+NXOpmDlvAmtzXz4f8H1rg/7DYzyfl/2EB/tPZpX96U4uGP08JdodgpUOpskTxV/Xs/3SJ/7P5/Y+zUHP1vjR9nOG9jtT+TP8j/LwG/kcr1PPqmCA9DP4wTFOlfD34P27I+3qVDIwfivTNVTUj9pLKDPsR/lED310DPxTqu6vuB+GhGvihUIdq5Qfsu2vgh0J9d9X9IDxUAz8U6lCt/IB9dw38X/+UN68p7dfSj7Wl/Rr59+P/P+PTmb+lsDi+AAAAAElFTkSuQmCC;" parent="1" vertex="1">
          <mxGeometry x="699.83" y="391" width="35.34" height="32" as="geometry" />
        </mxCell>
        <mxCell id="Iwh2j_EmFfEqPvJCqRrq-32" value="" style="shape=image;verticalLabelPosition=bottom;labelBackgroundColor=default;verticalAlign=top;aspect=fixed;imageAspect=0;image=data:image/png,iVBORw0KGgoAAAANSUhEUgAAAJQAAACGCAYAAAA7IqNEAAAKq2lDQ1BJQ0MgUHJvZmlsZQAASImVlwdQk9kWgO//p4eElhCKlNCbIJ0AUkJooUsHGyEJEEoIgaBiwcLiCqwoIiKgCLoqouCqFFkrolhYFFSwL8iioqyLBVFReT8wBHffvPfmnZkz58vJOeeee+femfMDQJbniEQpsDwAqcJMcYi3Oz0qOoaOGwYwoABlMB/IcrgZImZwsD9AZNb+XT70AmjK3jabqvXv//9XUeDxM7gAQMEIx/EyuKkIn0L0JVckzgQAtQ/x667IFE1xO8JUMdIgwvemOGGGR6Y4bprRYDomLISFMBUAPInDEScAQKIjfnoWNwGpQ3JD2ELIEwgRFiHskpqaxkP4OMJGSAziI03VZ8R9VyfhbzXjpDU5nAQpz+xlWvAeggxRCmfV/3kc/1tSUySzaxggSkoU+4QgVhE5s3vJaX5SFsYFBs2ygDcdP82JEp/wWeZmsGJmmcfx8JPmpgT6z3K8wIstrZPJDptlfoZn6CyL00Kka8WLWcxZ5ojn1pUkh0v9iXy2tH52YljkLGcJIgJnOSM51G8uhiX1iyUh0v75Qm/3uXW9pHtPzfhuvwK2NDczMcxHunfOXP98IXOuZkaUtDce38NzLiZcGi/KdJeuJUoJlsbzU7yl/oysUGluJnIh53KDpWeYxPENnmXAAmkgBVExoAN/5JcHAJn8lZlTG2GliVaJBQmJmXQm8sL4dLaQaz6fbmVhZQvA1HuduQ7vaNPvEKJdn/NtGARg4R+Tk5Nn5nz+yKVsRM6E+HbOZ7QaAHIXAFdzuBJx1oxv+i1hABHIASpQBZpAFxgBM2AF7IATcAOewBcEgTAQDZYBLkgEqUjnK8AasAHkgQKwDewE5aAK7AeHwTFwAjSDM+AiuAJugFvgLngI+sEQeAVGwQcwAUEQDiJDFEgV0oL0IVPICmJALpAn5A+FQNFQLJQACSEJtAbaBBVAxVA5VA3VQr9Ap6GL0DWoG7oPDUDD0FvoM4yCSTAV1oAN4AUwA2bCfnAYvBROgNPhbDgX3gqXwTXwUbgJvgjfgO/C/fAreAwFUDIoGkobZYZioFioIFQMKh4lRq1D5aNKUTWoelQrqgN1G9WPGkF9QmPRFDQdbYZ2Qvugw9FcdDp6HboQXY4+jG5Ct6NvowfQo+hvGDJGHWOKccSwMVGYBMwKTB6mFHMQ04i5jLmLGcJ8wGKxNKwh1h7rg43GJmFXYwuxe7AN2AvYbuwgdgyHw6niTHHOuCAcB5eJy8Ptxh3Fncf14IZwH/EyeC28Fd4LH4MX4jfiS/FH8OfwPfjn+AmCPEGf4EgIIvAIqwhFhAOEVsJNwhBhgqhANCQ6E8OIScQNxDJiPfEy8RHxnYyMjI6Mg8wiGYHMepkymeMyV2UGZD6RFEkmJBZpCUlC2ko6RLpAuk96RyaTDchu5BhyJnkruZZ8ifyE/FGWImsuy5blyebIVsg2yfbIvpYjyOnLMeWWyWXLlcqdlLspNyJPkDeQZ8lz5NfJV8iflu+TH1OgKFgqBCmkKhQqHFG4pvBCEadooOipyFPMVdyveElxkIKi6FJYFC5lE+UA5TJliIqlGlLZ1CRqAfUYtYs6qqSoZKMUobRSqULprFI/DUUzoLFpKbQi2glaL+2zsoYyU5mvvEW5XrlHeVxlnoqbCl8lX6VB5a7KZ1W6qqdqsup21WbVx2poNRO1RWor1PaqXVYbmUed5zSPOy9/3ol5D9RhdRP1EPXV6vvVO9XHNDQ1vDVEGrs1LmmMaNI03TSTNEs0z2kOa1G0XLQEWiVa57Ve0pXoTHoKvYzeTh/VVtf20ZZoV2t3aU/oGOqE62zUadB5rEvUZejG65botumO6mnpBeit0avTe6BP0GfoJ+rv0u/QHzcwNIg02GzQbPDCUMWQbZhtWGf4yIhs5GqUblRjdMcYa8wwTjbeY3zLBDaxNUk0qTC5aQqb2pkKTPeYds/HzHeYL5xfM7/PjGTGNMsyqzMbMKeZ+5tvNG82f71Ab0HMgu0LOhZ8s7C1SLE4YPHQUtHS13KjZavlWysTK65VhdUda7K1l3WOdYv1GxtTG77NXpt7thTbANvNtm22X+3s7cR29XbD9nr2sfaV9n0MKiOYUci46oBxcHfIcTjj8MnRzjHT8YTjX05mTslOR5xeLDRcyF94YOGgs44zx7naud+F7hLrss+l31XbleNa4/rUTdeN53bQ7TnTmJnEPMp87W7hLnZvdB9nObLWsi54oDy8PfI9ujwVPcM9yz2feOl4JXjVeY1623qv9r7gg/Hx89nu08fWYHPZtexRX3vftb7tfiS/UL9yv6f+Jv5i/9YAOMA3YEfAo0D9QGFgcxAIYgftCHocbBicHvzrIuyi4EUVi56FWIasCekIpYQuDz0S+iHMPawo7GG4UbgkvC1CLmJJRG3EeKRHZHFkf9SCqLVRN6LVogXRLTG4mIiYgzFjiz0X71w8tMR2Sd6S3qWGS1cuvbZMbVnKsrPL5ZZzlp+MxcRGxh6J/cIJ4tRwxuLYcZVxo1wWdxf3Fc+NV8Ib5jvzi/nP453ji+NfJDgn7EgYTnRNLE0cEbAE5YI3ST5JVUnjyUHJh5InUyJTGlLxqbGpp4WKwmRhe5pm2sq0bpGpKE/Un+6YvjN9VOwnPpgBZSzNaMmkIoNRp8RI8oNkIMslqyLr44qIFSdXKqwUruxcZbJqy6rn2V7ZP69Gr+aublujvWbDmoG1zLXV66B1cevacnRzcnOG1nuvP7yBuCF5w28bLTYWb3y/KXJTa65G7vrcwR+8f6jLk80T5/Vtdtpc9SP6R8GPXVust+ze8i2fl3+9wKKgtOBLIbfw+k+WP5X9NLk1fmtXkV3R3m3YbcJtvdtdtx8uVijOLh7cEbCjqYRekl/yfufynddKbUqrdhF3SXb1l/mXtezW271t95fyxPK7Fe4VDZXqlVsqx/fw9vTsddtbX6VRVVD1eZ9g371q7+qmGoOa0v3Y/Vn7nx2IONDxM+Pn2oNqBwsOfj0kPNR/OORwe619be0R9SNFdXCdpG746JKjt455HGupN6uvbqA1FBwHxyXHX/4S+0vvCb8TbScZJ+tP6Z+qbKQ05jdBTauaRpsTm/tbolu6T/uebmt1am381fzXQ2e0z1ScVTpbdI54Lvfc5Pns82MXRBdGLiZcHGxb3vbwUtSlO+2L2rsu+12+esXryqUOZsf5q85Xz1xzvHb6OuN68w27G02dtp2Nv9n+1thl19V00/5myy2HW63dC7vP9bj2XLztcfvKHfadG3cD73b3hvfe61vS13+Pd+/F/ZT7bx5kPZh4uP4R5lH+Y/nHpU/Un9T8bvx7Q79d/9kBj4HOp6FPHw5yB1/9kfHHl6HcZ+Rnpc+1nte+sHpxZthr+NbLxS+HXoleTYzk/anwZ+Vro9en/nL7q3M0anTojfjN5NvCd6rvDr23ed82Fjz25EPqh4nx/I+qHw9/Ynzq+Bz5+fnEii+4L2Vfjb+2fvP79mgydXJSxBFzpkcBFKJwfDwAbw8hc0I0AJRbyPyweGaenhZo5htgmsB/4pmZe1rsAKhHzNRYxLoAwHFEDREmIzo1EoW5AdjaWqqzs+/0nD4lWOSLZZ/NFPXQ0kngHzIzw3/X9z8tmKo6nf43+y8G9wY6F7oCEgAAAJZlWElmTU0AKgAAAAgABQESAAMAAAABAAEAAAEaAAUAAAABAAAASgEbAAUAAAABAAAAUgEoAAMAAAABAAIAAIdpAAQAAAABAAAAWgAAAAAAAACQAAAAAQAAAJAAAAABAAOShgAHAAAAEgAAAISgAgAEAAAAAQAAAJSgAwAEAAAAAQAAAIYAAAAAQVNDSUkAAABTY3JlZW5zaG90WCZ/mgAAAAlwSFlzAAAWJQAAFiUBSVIk8AAAAttpVFh0WE1MOmNvbS5hZG9iZS54bXAAAAAAADx4OnhtcG1ldGEgeG1sbnM6eD0iYWRvYmU6bnM6bWV0YS8iIHg6eG1wdGs9IlhNUCBDb3JlIDYuMC4wIj4KICAgPHJkZjpSREYgeG1sbnM6cmRmPSJodHRwOi8vd3d3LnczLm9yZy8xOTk5LzAyLzIyLXJkZi1zeW50YXgtbnMjIj4KICAgICAgPHJkZjpEZXNjcmlwdGlvbiByZGY6YWJvdXQ9IiIKICAgICAgICAgICAgeG1sbnM6ZXhpZj0iaHR0cDovL25zLmFkb2JlLmNvbS9leGlmLzEuMC8iCiAgICAgICAgICAgIHhtbG5zOnRpZmY9Imh0dHA6Ly9ucy5hZG9iZS5jb20vdGlmZi8xLjAvIj4KICAgICAgICAgPGV4aWY6VXNlckNvbW1lbnQ+U2NyZWVuc2hvdDwvZXhpZjpVc2VyQ29tbWVudD4KICAgICAgICAgPGV4aWY6UGl4ZWxYRGltZW5zaW9uPjE0ODwvZXhpZjpQaXhlbFhEaW1lbnNpb24+CiAgICAgICAgIDxleGlmOlBpeGVsWURpbWVuc2lvbj4xMzQ8L2V4aWY6UGl4ZWxZRGltZW5zaW9uPgogICAgICAgICA8dGlmZjpSZXNvbHV0aW9uVW5pdD4yPC90aWZmOlJlc29sdXRpb25Vbml0PgogICAgICAgICA8dGlmZjpYUmVzb2x1dGlvbj4xNDQvMTwvdGlmZjpYUmVzb2x1dGlvbj4KICAgICAgICAgPHRpZmY6WVJlc29sdXRpb24+MTQ0LzE8L3RpZmY6WVJlc29sdXRpb24+CiAgICAgICAgIDx0aWZmOk9yaWVudGF0aW9uPjE8L3RpZmY6T3JpZW50YXRpb24+CiAgICAgIDwvcmRmOkRlc2NyaXB0aW9uPgogICA8L3JkZjpSREY+CjwveDp4bXBtZXRhPgoeWEm5AABAAElEQVR4Ae292XYkOa6m65qlmDKzqva5Ohfn/d+sV+3KISaNLp3v+0GY0V2uiMio7FqrewclM5IgAIIkCNJoNPrRE27zw/2ogb+oBo7/Ij4/2PyogdTAD4X6oQh/aQ38UKi/tDp/MPuhUD904C+tgR8K9ZdW5w9mPxTqhw78pTXwQ6H+0ur8weyHQv3Qgb+0Bk43m5fWNV+Cm//RJMQcnsB/Ojjn12F5f4m/eI1rhh22nxRdQ+bUbw2L1xK0L6zdy5LNuTa2/ssUM9afCZvTv8d1lnUOV20eLdwP5DKjj2QUSjenvBQuzBJfHDl4dbjTv8eXR+f7RKjjKsYxuRwoTHAed+hWHoZOIojvAeT2ONh32PgW8gcC28ftRrzHJ/I6JjeyS+m4nXCdcTuDXcP0lUxehuOSkZDJLYnCjEwUO2kTzZ8Idm7tLywbcIjXgmRiI3adPyeotugWmIhX0rVokA8LNafOGe2Hjct0Zfw0hU39Hie3kqAVxFjLdLyEDNjYqxOnaYQ2nUgnS0zFUYEa+0FF2j5t7h42m9u7W/x70h83j4+nm+OTi83x8TEXSgObc5Tp6hxKMla5jgkKf+Lif3Xyf3xcYUncR5ooFEY3QEan1CQ9vz3HmtkktQEz8Uw2h4Ojysx1WPW0kpcyFdkkrAgCvdqRfEChGqN9seewTO2fDf1KNTTpi2jdO0Ts65GQYQtTvvnFLdEVd6VrWCmT+LuWCEUC5X5b1+39w+bm9n5ze3+72WJhtijE8cnp5kSN4f8EJbo4fcKKHcHnaXNGsYWdYq1ODVc1bI6SLTdwVrlL3Gf33R5Roo+6kc0XqqlYTbjJdtCE1tvs5ngQRuISNrBeJXvhCNUdjbYuyRbClUykCTyGPKVsFmK0m2ET1cyhUQ/5M/mh9B1YI+vP10Dq5IVmv+pXmkbVV6HaGqE/m7thme62WxTpbnNzd4eFuhsKRbUd32OMqBbYaxsvUB5GxM0T1/nJA0p1tDl3/DtneAxOVXXdWyZz7vAicMFeShpoX0memX05LKN99wXmh5SpyE3pIW+fIfUCz7mPUHN2s87dSjC8H29GpvdVocZsjMXfTyA+Z7zgJbAiV+iAZRLPxKWdWg7l12R3OQyXXRMdo7N5UJHuGN7unzY3948o0MPmnmHuFkXSOmXIg/kjlmhzdIKcqtJ5LM/25D7DnFlcnD5szjFNph0z/h0PjUq5uB0dYxkZOlPL5D0JW+FF9iQuyco5F82wbgfdSCckdfe2g7ubtMt8J62Z6s8c5oxm+A5xIvup1RXDTCbNSLSOd7hJ9deroeHet2bT8faFPyPYRe7kdW7WkGaCv/AxzWtVpqfYFeOggef8Sct0c4syMWm6vr0jjkJtuR71txnqZNmSSFcXcyJwro9ggmZuz7xK4U4yNEJE9hkhI6YdoRXctAAJdHiOF7jzNNbhxjLe4WAn8gyaJG/Jrpks0L1Ak7efHJYIyHO4aXekaOBBv4a88JDIy4jXd7qvkXb6Ujmdz07CqMivFaRlLh4qU8leE/maPzH5xjLd3qIYN7ebzzc3UaIHxjGf7raYHudHakUkgOURkyLnU08oGyFYPjDseaFQWybuWKIzlOsUa6WV4uEwVZcGxcopxyL50soLpKp5SKrk5uvVGJFjxGc4oGeuaZ4l7AO+yOhLXOa0OTwy2AOdpiSmLRnOGIa7eINBPOGN1/6c/mfDnUf7M/2X+JclUsaaA5SvdcuSAJbp/n5cD1ss05bhT0WqeQFjFJjYFB7pjnysOzojY/vYqVBUjVSUSaWKpUO3jnnMuydyz6Piw/Y4E3Ts12KXoj/QLdWZokxlGEHTu7T7fmPv8gijnZt4X8NZMtmhnCOd2wzrcEtm/ABeC9Do+GWhGrBIJ+YB7Gfi72Uy5988X/KXvF4iahlg8BJKeA/LMtBUJtG1TvdOwFGoOx7t7hj3MtShCCqAj/0qlMOVtyMe2Y6OzomcQe+wZg3A68knxuNSUAiPM6lHqeDp06IrCubn1a6UqmOTb164Gbcgu3fTB+qU8CyXKe0Q/k7ybqQzyNrHOuVuucy7wi1F+7tsDsV2FeoZxsyopRBphg+iluYZj5cAErxE9AX+sxjhIK5KVH+dWz3d1RNerBJW5VHLFPqiScOPCZDKU3wq78yh5A/+EYgqlUMjBm48NT5uzrWA8Dwfi1IZ+SAPjYIUqyrmCHeJD/mNLunsyp42hSnVbbyXa39EX/Jk0ahLuAGVVDz73txXnIW1oBZpSn6uUEtGTTphN2jHf0awk/rliLTztY/9tbwLvziIW9bJeJ7uaHytyIMTai6V7Cmmx4VL8BMuWKoQxXCLvQohvcsFuict2fFpLJt8tHwOeVq+i+0R/GtNSnbm3b60KUFulSbsJRfalxIDF2PXFeuJUsBQ8KXBZ5IJNeARjzUGEPKhdVWbQ/iZxxzu5OGzbLe6TlsEWQAdOIj9ck29gF4Ec+Iqw2iCFfASGnDrbXai9qXyMKfGmjiRVqFYFjDRyooi+S5lYkBaFCk+SpXFzOKOOoF7Aj0TdZC0UnfwPOe6355kOIwSwS5ZVC4Hw3JsnH2/ctu/izVfc3pxKOtquMszhWftbtJO3vOlnkErvyYc/nPEBWHHQjWzJfUZYEkhYKKuC1Gx5d7JC+BLgReQ9zXmAAspD10OTyrRdiwLGG88J9wOYypU57wqE/wAeiUxOOLx5Kg8wF0ofcA6PWCatioUyMekNUmL2TUjvN0cbtif91/iIrxznbkegDVq+zP6nw1P7HcU6hmfCbFq94WCiJekiWAK7vIF8cW0XcysLHaWnceg/ZquSfaYoY6FAZa5vZYvxnxXMhQqORJtJRInyncggyiZlk6+KiqX7/+yIDoeOBVvv3gtunnN4eT9lZvlaJqV79oRRsVPXPYpjLdbOTRk8ZtsAXxjIO+dxIU3/19WqIWnufW1AHcDyhrZvyC0FF9J3mVqbCpp07b/HHkH4s6BrAZQaPUneS8VIGoxqimocYc2lxLwDQoi4LpUlc35VQo59LGeEn33F/0Mft2W7AbMeFEW3y7V7E/kLwSLS/N5AWnkNOc4Ywr/q9wsSZXkL1KorpZZ0D3B96Iz5hfD+/VCvIvR/iH6NHD0g8bWhy6KsYdcymQmdUWZgjsQo2C+rCbfnQxVIhWWC3yvxTXeDCPRaCctuFNgD31KMahVek7dkOe0nRLSvYzBfk5QOIfge5IkKl6yGPlYwQBeVqiFsQTzFXaHb0smnTyY7PDqtG/1yTvCHsafJZvDWidXsk/ZGnDiijbv3o7yri6rUJQI7PpHUdxN4FV5mJ3BReyRdc+7fNd3guk7Ye1KC3gy5vfizzS+1tNF/JHQamG08qjha6YL0c6tsQWu4SEusA4NLo3SvukjaWX7DFBJJdSK9mJInlz2sqFMZnJYoXbyMof5OpRDE8jc9I7v4xZcbruOVsG9RNVVv0tTsZdo3FpySunOz3lNcmfjY0l4OitlQQIqov5qa0oUSgVweJQ1N+UsyQwJrzR5q0ynaBO6mm0s4oUO1GVUNZust0tP6mCsNyDxiT5zpuvoBgOnQgXvVEsQpgO34YmOW8NWvDk1YVG+kPwMfwaEbmXwXKF2GIu4f83c9sM7xEmUul2Hyxe3+mtRVdUUVIrG7nDF5wpcU57n6zB3dspOS1rcS2v1wCT6iKez/C0KZU7IAXst1GxNwt+EKMU2inOCObo4O811zpsa90apTK1QiyTyysrVMFMtbLRN5ah8BVfY0G6pO77wVM5gFcRylGu/eO3DdrkObikX4ZX5wrmTBvMveObrtTLxpdWa3wofTJpg9kfSM28lFttMyi/EmYMCL2lpQRsks5dCJnXmtlZc8S2kEjxPZWAfsU40OxtYS3JGo5+xd+n8/oQ1o+3mmG0s0mzd4KQaMDRKu8jknEnWxR44CpFri1K6e/Ns8+rqYvP66mxzdeFmu1KOyEuhmnQ1U0q1lLaCQc7NxGdOxW6K8ONmeYQ1vMLFIzikHDFs+1q85AeaMRfMaMjIJsNUMZJHpJdBRQbSt3gS6NqvWFmokqsgy92eJfL+tSBMgVWixjZxDne8ufZ8RbgVIK5OTipXNdOYDCe1t9datbqybj7Cu0aUd3GhLl7ydG6jBTlnq6VD3x1K5XzKFfAjrkeHNxCdE0n6NOK2XstjwJy8zmF2dYlCXZ7jH23wMuTF6EQicHcIjfSlzLhON9+CLKDGtP1TPyCIE2UayAvOzAos860uzFbl8AUQ5KYQKBPj404mT+ycsK723Yq5nzLHi1dxKyY7Q97Kt4Ww+VsFGjYz7LBpVZyCVFjKdp114mRkIRrWvvipPPyCycfVaZUG67I0gpLayMWnwlIIqXunOXdSma6eLjLxVvnysvjBVya+9NXXBlKxZh7CsImMJ1T4+fE5OzdPUKRSKBXpnJrTOmkFLUv2mhcZ9/16Mz4YL623yruQjYByyG8UJ9Cqj66XfQplUEHNQ5yqmwi2MKm0IBBUAX0NtYhThDt5BvfgraWZiUpgjPghIU3cJ9rn3AJqZG2J2T+shs3xkN/c5lysIKuGhWnEIUTX28dLhZDecP1uPqWywS/GprgnNi49sb335A6J2YXAdvLNlrALk/WODwIYZE1TRvB1jeni/Hzz+mKzeY0ivWKYuzwHdlZfwlTJqyNAUUSpO4g1NavJIg2mEVjmtT0GjDhl1hkPTDkCKX+IMyBf9qJOEEfBdjRml6E8F7cTWaBfCLR0uyixULu8RGzk/XATF0X1g2p0K6SpxDIsTNPtuy+VIqacFGGmV/0y7qMome8Im1zlYpNVg0uz9L6qLpql0roM4hj2Muz6kMOeCnOBRXpke4qJ2jw/UrhlB+fHayRl64rmP2ZqaAkGiAnY0+bdq5PNm1dHm1co0QXkTsaVN2jgiLa6lJpoSVv+mhpslyigElPiGVMYrwhzMZqj7KO+QDIflylc+3I49woMuDzaRY9JqamDUianToZoYLfg7TcG8Zlfg5/7YjWmTJ6tQzXC7MumidbmrKKsymQlqChpk0EhlW/i3ctdb/1HZVFice084p/SQM5J0oBmh+syqrSxHjQCVFwlS6WXyU5PLLKIWjil7iqUcySHEZcGZJxtKFol4tc3d5sPH+5QJpqYFpL7I4IdscX37IRdmVc0DEK+RqGukPUcm840LJe8ba5un5q823hcpM31VgCBdVXnEgcHSKqur+y1cmtMLkpthwRBZbJz+KChUp9B2EOu9MpStQNLAjU/BDg7M9Ytlst4hA14Dhbgz9135lBF2iI99xtSApQyWYw0OpK4zUMcL57OY5mub57Ydut+bpXKN/VcaJPbQNzU7yT5nGHkNZX3hmHF7+B4KEsWwyOMQqQCpoIXCvd2I2e86v+q1bChg9aPVVRklxNOmKSoWNfXt5s/PnyiGLQa8rj2aeOcoOXOla5QrKOjy80lMvJf6074UVTwdpUJHotqKBeZKVbEzi2Rqi/TcYBFsePZ6W6pp2v2v9/eVke8Yx+8uyXcNXGKTH5xc0E98aCJTKVYT1jOdEZ4JRcZmvWiNEIF4hTYYBAbnkiSB1bCf+5WTPcUqtm1v7KspjHeiqQQpUxUv8HI2JRapc/Xm83HT0+b9x9vUCq/LnEPEVs+VCgqKN/Asfp4cXm1efv6dHODFXhziWJxbWh0FaCUigANVcXuwrdP0uSULmNrHpnt1loxaU+iBM6J3MZrb9+i3J9VqD8+xUIJbJU4pdXeYJLeXqCWsHSR1Mqy4ZSp5BoZp9erhpa+r5G24ykz1/BMElvKm66vz0+bj5/vkItPvPxmkKu24PBd4PnF5hIt9ynTZYtXV8zpsOyvLnkCRan8+ku54sijJJntN5C2UElVEJ2YHQ7gu297CtV8ZG4muv2MqjpLwVSoGibErAKUeVaZfv/wtPnj/WcswGcqaVUoe6OVVAp1hkI9onBXm5ubs83DW3cf0eg0pHOF7mQsTY4czGlPpog6YIRj7sWy8rhUsigAKJn74GthnIzf3DxsPqLwDnNPJEahIDsncMLT3cPWLcGrIpmLV5wJS8DIuIKwYAE3jATDgs+qZ35ac6pn8wed748PN6kz6+vm5h7Lfh/F17KfXzygPA8Mv3ygenfBMsglaTCQP+XMS+oUFBA8HeGVqFTKkE6/oKXKEnTc9O91Vd49hRLYGRfCLvulaQCrTOsQJ57DiUMb05LNv35/2Pz3rx+onOvNHx+vMeOYbkq49VEdOnF5uQab+83p7REK9bi5+Qy/h1eoKN/E0dhOOo+ZK1SRlUdV23NhNMHIQ3ydw6SV2q6DKpMWSqtlg/hVDBsv+crFWRodwnQ+QPCjhSMEaKVuevU04VSVFENFGqEz1A+xCfBDmGATTT5A0ZnMMf/4+LT5799vNr+//7R5nw7IN4N3W2SrDyScoJ8xqbq5PwL/EcvFh6rU6b1K9cC3Jm99d0nZqS+z9FI8L/OqOqlpQDqZIi0YhbmOQqZ9n9tTKJmYU2pqcEzOAy6olKotUwsdwbmpTO+pnH/9/mnzv/75BxV0vfnw6TaVUNpBj8c2O77nPAGHJoag81PMvFaJvGsexUo0Q5+VpEhKYU8znwoTiAUitgMEDkY+bxITc+Wfldp0VrYKpduiPaVQYAFXmZxHnaH4yqkVLeUr/ORFfmZtUzmcrvUlsIUxHUa5zMwnTPiTHArzIuzU4CNzzN8/bDf/+u3j5jcU6o8P15tP1/dZL3MTn4d4+EBxirW6zPwKxUITb6nsRx6hnx6vqKeLzdUVw6LzKfJpZ17mrlQ66yJyL7IZ70sMZf5W1+VrGmQMqfwC89aR9mfmplflNLRFUXAnlU7A//hwv/nw8XbzwbnALb3p4Zh5k9bF7nNO5ahQVcF58vJxHrt/cvSA8t1vfju73lyxuv3qijUjaueCyXFVyjwfGBLQspHUGzkYW4qn5ox4l0Y+SQ8+qTbWo5NxLkyXI4gzri1fuzxmOC8rDDh00sq2u5XwjLGRAqbh27mRFhMZgkoiaKr1hQFiyeJp8+v7JxTp8+Y3hrsPn/l+ECt0x8a9B2SL5aSuXITbYjFvtch3fnDB5j6ULV8vw8u51ds3LuISoc6U0TzwckUswlU/a6ykEdqw6rSgfsXJuWlW1C98lydBuWqiFsUKrkybnX4UCqW4poLe08NUqI+f7ngs9xs2VqNpoJwZQEXFQtmQ8MlFpfvUd8I3cB8/3/OUt928vTzevHv7Jk80Wikf1XuIbbl8TI8M3LR49cSl3KqNDqmiVBVL5XJrUAwccmT7CjTOqbROzqceVSjT5DUKutATbx7Fef8upi4U8WWRC5C+iutTL7OBza+/X0ehYpmY091RX/cqOf39EfNYZy2Ugt9v7xma2THKB4cPKJa16MELb15fMURipXhadi4VPSYPXeddMeIRT6iuU/VNaN+0P+9eGPJklFwnjsb7WsFmrzK5eOlHlT7yfsIyOWfym7gtFfNE7zqidz15YaW2WihKVcsMNFqsFR9h8tn3DZVUigg9w6d87ZRzMQ2Xs7GtUGOjEsWltcuWIW8TDqKUSpy+VBgfj7jq2zw5geWwrFKhYYM0WaYGTJ6BJUzdk4FBAmk5kYuHUcn68uHE+nKOmSc75kUqE6+heeo8i1JrQTcnZwy9WHbrwuISsP6o3M01Zy+cMOzesEB7d3+R5QfWYuPicet8oYhY8RcMYy2R/poalD9521WohZ9Mm3H7cl7DswgW0k379cn3FqvUyqSy1JlLDncP2GJ7vsMJdYEh8f3ZaEyGO9/X3T/cbK6xVE5I7cHOcdL4oHeeSrI4h4N2jbCKOYiGQQfeliV6KD4KpQzHPNEtS8/i2aCkKef+vD/ZdR7h0QIIFKAvk+ET7kY11aJ7qVDOOVdlAkbdbDijygeCJ60UCnWCMh0xR1KLXTlXs9wj746JOzrg5yiUH7Lu1hdZRJqphoAoUzulqZFnVFTiuziN+23+rkJJ0/XRlbLHp0TYBQbGrZ+YfAK5Z7Lpp9q+6jg+rgrCfqMcwKJUDJxPpMVC2Gh+98a8AQVynuAL3LZO3aDms7hDgnRiEEfF6TnPApapSOIBDZgKXw12xMJhngDBOaYBsyVmUtjBcadJFlO1CNdYCmN4V5labH3LdUs5P9MB8zbBuSSKdKRyH9XLbBXaL5ozjGVIdpLEAWkOhyiUh34c5WnQqUWMVvgu4hBoZV4l02I62VCZxPRaU4l8t3uuULIK/90MOts5J2E6O6Jv9U/ylR8TcCpJhfJjSLeI+Fb+Ka81avhzgll1bZHIjkrzoozB9QymmHrTuHT63dN2JUty3cJsBBEqQ1fDmtGErvIomy+Pnc2eMPtnCx6TX+wpL+1cLDwFSbw5T/dTleSDWSzRfgZNtFLOoiRMkkrlGpOWKMPuUKjqXCwEs0TwhIyOylaRb8vK6p8x53Qm5tc3foXjRB0crvqQwjoMwahDJR51MsQ2eXUDOVhttXbLveJOIcnWIiLdS25CnPAX7E7Wp7wUmsah5o/QjCcmjtsth3hxoJfDiGP+Ee/Kjqm0Y0qpYngSnM65iI/PTJ+w5Ew4GRjdrMQ0PorajSmNFO1LqxNmDxy1JqiACSQnkvgDR1l1Gh2XAs447+nq/BMPAJ9QprPN6eUrGo1hDjlPOWnsDbXDe+HNOdZCTrpqLLMwUx0IaTnD5mCz45blBOPi1l5GQ/Lq6+iROuLyuz5XSLJHi/QnNU0lYWL6hJxaT1l6eAcTBnA5/Ix6Ot2yIvp4S5Xpm67lX6WLdVes1HfnHoDAceEt5TG8H3seLywRm4e+pdTJv13BK9b5jjSTGrXR4gukMFbSBXuP3ry+rHdSZ4zrlOiJg73yxATyMdaJJogcktkW7v1RrjNfw7gjkhXhiwu27oLYK9vmM19E4+SxCFWg6Q5FrGEpcR7BSVWZtD6//LTZ/H//72set53rveKqhwatwynbfK8YXf7BguFbXm9YNvP3ZoOVa18pDKs8uMzYhRmPOo8wQyuhdvJ8RTl/efdqc8Q61H1O0/Pd3S2UPL44/+QV0CmVIG7KijIdP/Ey++EanGve5z2yXnfFbggsKq1pR+1OaJ0yTU2dlyzNpf2WZlXAyqPLU5I2Vsu9+s9TnluoXV5VCugk3U+ScViSoGIYvmD96A0vma6vt5uPZ1QMk8YHLI9PS8dYq2OGxXoKo4jQeLVCnTM5vqRWfFelYrpcoPWz+PLui+BwZkxwaeCGTz61WpvPCuYL4WOejC44NuWXdzTa6evN//OPK+ZsDNX35uQchXwJurPg7asN7/NKocwsMnjTmXfckKzhNHo1oGpR4ZqzOG9RqWAOrehXUajXTK550jvi9RRzoi0W6xEzenZ6Tn34dKxckIQGhXqkPlWop8+bSzZp/fLuEjmpsyiU9VXyRhxuUhdEBR+8RllMKbG9d5hgClcpxla3FHoFhUPRP1co0Zqm+Rkn3NHmNMDpETY8nTpvwd+yJvL5mndOrPY6fN2yUMdUAL4Oh3WIl4/kcTCxJ9mAZyjcFfOYN69d1OQdH23rS9nucVUx8hlXCyoDnfDZ7YF9ID9iqDg9oYejUH6nd3b6uHnNy9V7BHxgi3BmGgx5OZzV8iADokTps294NM+SV1eC+UaxyTT5mqAyUQfmG2tVK29wh78WhRe7vID+ibfh17wU/nzF8OYk6K52kR4RfuK0PTugquzO1SM65yl1al2/otJ8gf0O66Slu4BfDpYlR0Xoi2Bcd4uK7VfWQIr3pTQR5vQUdiFGrO93zcoGRxeyT8d9TW9en/HkcsbaCOxptCMWN49ciMMcPdADn3i680mvJqH0WOyyC5fnp/fZF/X2DW/Uo1BUEJqqsnVekTYRNRS+ZG7PTRl3kKpcnVR+9V2f3k5PVCh5q1Q0OePhI+/EjnjaVHH7tF/TnLhrScvSMTySnqwM6Ibv2lDtT7ezKJ89voSSp/ZKxVIKMdz1+ZoF3HvK+1mFYv3uCeuj4tRLYeXCtsHCLNTXk80tdUVnZY737gLLhIWyrq4wT+6Rcr9UvyqqnPfqLvJ0CkwPuq+lF1EX31hTPFeoTpkzOgQbTGRqclkotse6/YQ5yc0dHwU8MJFkk9oJVuDkxkU7nlqcsLtEwBrLURbsmGSeXOYdlFtF3r2hx749442686myUG2ASqSYOoLmTJjENvAp4CilMg2MNK1U2gk+hiJ/n6oYjGgpHwhsZvksT5/CiIaeW/acY2Wdy6jcbTHNQ6evUkexiamU6zwq3MHQ+qlK4qtQZU1esaKy5ZXJ9fUFL3vZj2Lq0R114lafeyy763OlVEdU8hkWlp0+m3eYzp+vfJugRb/Kq5c8lapQZDLLBtMvxBtTLF1JuIYrVLXR4Zf9Uqh9ngfxrd4Ud0kV0qSGrWw3fbmr4D7bPi7Yw+O2C3ojw5+bx1xvYVkuPT4Hn9qruDKZZ+70t5/PNj//5A5JNt75otMGXPLhCTDNTG498bXlo1g2EalDoFkhVBpWMjLs5jhDFwV91HbdhlFJ61QWCiQsp09Kzutc+3HItefnOucIH0yAMtmBbLiIoycpl65EsGoFFLCVvmqw4Ers/nTd3TuXD16TX32hc8mUwbcGdyzGxUJp6cn0gpfVb6iXn7BKPzPUeb15c7VOEcCJXPAszmEfKRw4lafhKna59o11uP2BssDlYVqVq/wVtxSqafb94JUQldTMjJU4LZ6oFuTCCqI1XKh09fkUhVKpLpinXLPgaSVlMg6+ipRv5piAX2Cy31yebv7GU9VP7Il6haWzEVdlKhtTBRiFiVKZs2l0zUk8IUbNy/mbT5t+lHBDA7kY6Ft8j5t2SNn6ugPF8mXrhuH4yRfZ0Kk0bre1k/g0lfOhSHMYLI2iFkaeeotLBGIXjyKFgLJO0TqTAqG+QHFIxRiRJO9X+UrnMq+v3A+lQsVGsVnDedLx5i0PLj+xZfMnrNQ7zPgr1jau2KqcDgg/20H+u26WcFWlFbMp2t+lXmOmz7zWFEOW+LALXwn3r1UEU3Z7HhaFuck5JXqNiXDrxym9+pJtFW9uTlI57uXx3Z4P8idnWLCzS3B4QqHhrlDGNzxRub3VylmVyZy0TmX+1yILF2uoj8MfIK2RVkmor294rYgi+ZrDXs87L4ZdF12jRCoSJuDRVXysVm3KqzIew0wd883+A9qnEt4h1zkNesELM/pBlMH54yoTmSpWnLKZKMBGtNQqh/AJDWKM8+bd67KIl1TAW170qky3D66YY1H5O2bSfY55fEW9vqbO3qDtTFdRdoZCfOVY6yxZLJmUfHT/BBYBB5LAwhiAP+mt/Gq1bY1PfAUeuta8SgSbrUL2QdXAHnKMtTmn+11QU69oyFsvlMmGfPL9HXinZ1gwGsjLXu+vFpxTYveUA7IpwrlN9ZrzHBrClwi1nwmQCqVV8gX1tfu0WT/8jInynHIVqg4LU1koZcZHcmPMko2vhJAq5XhggdZlj1seKhwubzlO+vLharOlbI9+TkUd5dggy4zcQ4wSMKLZxF6mWTsAzY9/k8X3sjM5oXYP2DuGYHQJZdJ/k/eJDyxoZg6FQl1QR5dUMg92+XAie6CgTf7FGo7FX1/+uvYrxl05hKplkXVJOYA8pUmaqPcqRd3bQu3kVKiF2ASzX4xXkmLVVNULfTCm+hSUisrHkmjIpcMLFdWfK3kiSnqVPqh0sqwWq24qk83Q+cjXsI3SxSEQVyoNnH/lcM7h658McczZVKZrhtpbLxTsnneM6MakTMpqjiNX5cZZ3w43Dzx1eU75E62cF9axaKyqM0SZqYuHPqVKVpQSy0FHgngjIZ1jCZMEngbMMitCz9vO6AwX5KO1LYtL34eNbyOsp1zwOSNTFbHzXvKX3yKDdTci8cTqRMIdBLq4GTYzBaGSZoSFqoe8ObHD+oeuldh0G5gZU9dXaEp4U2woLZAT7OzcyZymTf5EFOWxOZeLrLV0cWO225VGVQEu2VJVJKSzAVWZet6Ujf+8kci2ZKyjypTtIQxvPjh0D60zyrWvdgOvmu+Yn/w9WjEH5T/xMx1uyc0kXlvzCqvA2zW04YjhSHmVSjoDhr31p+5GKyEpCTr5t3iWWwvjhF/lWleuDGtxYYqGnMI8dSQNl69PVTSz9Bbf8HAkA7MUq0sYfmm9OWFFeTEkvwg+MJp/54zsggrtsN/p7Q9OEw3lQaVmHqpMKZS+glsJ+jZ45SO8XPupVEBWcq4pXTI5lmsKeKT1VsmtfHu0u0djmdwyiyL5Vv8ORXhgucJ3dUNHR2OPym1FUjIqHLukxHAkTj4Oj3lXmfkc79/Y4nLGk4UPDy6Sal0Up3l3AVMbETm33SKEZ9gHbl2qO9bFyDn+lsVMIb6E8eWVypurRAtt3+ZaqpKRAnB9ZSTmkEWvCQTP7ktp4BWHRnJu6EQhYIGVvPJr2D58xZhDpTgFKdZyrFB6Akk2j7IL7VJ0LlLGOgCol6D4IlsRVGK6YejEnJ1INkM1gNbJdSP3Zvn7Lj5Z5oNJxriaYKNMMpZMRzgyRAtoQlenh1Aq0zGLiD5onDIRfmRNaItiHsmfIfCEedXNPR+EMqS6Fdd3j2Et++ZfuYzqNS9rQ2eI/NAeO08EUrkoigoljpdKRTfIVTWIMgGrSQVpxSy4gBcXsDcK0zhBGmUL986oqSJHRyZfOLy+khyCSaGMHyKJVMXxmdjhsdxWCyIoRRp+hR1MrM7Opau2rZtjPpsSchleph7WSFbWV8qSVQ71xGiKl3MjlwOcjLuLMXuzMIs5EVieVqKywTMVbUZSUvE5lENfpeKvrJELs+A6ydOysbDoE9c91u7kwY8vVCgeLlCmc578lgk6XM1mdvJMPvqLEzZkUqGAp7iD1toqpRLQdt/QwF34VGCQJTLX9DNhBn0QZ3GKzVfu5nKYaE+hXuIziylOx9ufYOSzZleNpqK18ihGi9K+6brqeeUHAII4SU3X1QQIWa+aj0lZrqyTX5PwiI9WufMzHxzIi5bKi1Z42fA2XCodnk8MKbFMsNI3z7xqAcnJclQsAoogHx4wssHNn0jzKbXezR2hVA596t/iFFcn4xo3ZQ5gIC1lAgWYUVPMTlJRu/5MKcpgkrq64taZCZfRFE8BC8sy/O9w36BQc8azMA3f85U/gre4pPPveG8Z+E8ldWoXV7gVmPTwaIzCr2qkZUNtV7a/i+jkuJy+T5HZisx60y0K5XdtvmbJMJctx+aBQqFUTqjDjzHW+UXexclNObnyRYmKHHVCpVSuFAQIPKNQbM25g88dNXnL7gAn1W4jeVZQQKkX68ZLPhZ2ccKJ5KqEUixlB6xA5r8QtYqJK5GuGVRsvXe6jFZoQsZl8ZL7WvoenUUnj8pl5duhPT9aLYwr4T1usuGai2o9DPbVWSQFx7mOzmRv+lYgT+iFb7pXEgjSUFWZoYCHDQw8GdjkdbltOB9HskTh05tnYTpVjEzE64MJlQT8CKHt8YU1hK71qFxcKlsV0ck4ShnLUnqQhlVWcBz+nJs52ffypXdER7ZIKl4Ao2AB5oYEJgwXJMJkmpV6FW6kZ8Oc6YL6qlwGIBkQ1hlu/gHUbcrqWfpO2mHyidMIrvLNaVGoymAWpAWafcPj2hdgiic4WI22nvNLeVWarj8TxTuIO1MOng2SXiVRoUzyss1LodhPhBJ4Uu+ZyxU0sg8EDo+1Sl8E4aFictXB+KxGu7N0sVwIBmO36G7RGlf+M0eCVx1RjbKZTsYuK9TSgnmVPCmTgukstNXn2kDcSBA2xzusNnelgOprmUSjaCCFTh59STh4Lr6wdiMjPdFG9CDqnN7kO34z2QEmgkI1Z+Mdnv0RTndt+GDU8hONgkzxgbF6U5pcMrQPds31GY9OsIUIp5yOekYYinysz/lJiQt3yGOXKMOdT2MqXIY34NqpKCBM5JO8pHOinVQZq3a6Ugl1QKfFcDh84v1k/MjiZLlsu/xUrBoGXTOqS3iLG21Q7GRgSuUUOSpYgpGii/RDqWJdhUimXlp56uXCqyi8/2knD/l+za0iT5gSt/Dlsy7WAPGeIwQWZRp8DmTeBV0E22c5SOMN+qWjjrQMd6Z5jYaMOMSzv5qhJQuE1iSt4p9wT/Z1hcZjgWwsh6Y7FMqVcn82I+PWIv8QDJ7VsFqaMSQWgATzkWM1YM2rnG+Zo/xUHAW0ZblDF0XVJ74lzZV451+ZmAOL7yuBFM4C6soviVSfhgsxLN8RTAC4PlfOAjVtUSoj7YJMpDg39EW/0fcRhH+BRSt5ka2IY8gT3Ka4E/U7XGRVwhfCFpSr20WsyORtuCm4ch5ZRClF4Nrn43DhsHTkRKoddBaqLUPqVhh4WilGIMJCaXhgKcsQwCwrD0OliMMYECct5lOrJIE8vFQIq8umr4m+YfPXIonZw6+5CbMuRs6ZgwNenQS65BXpwqM4pSAmVkIQuSUT/B72FsCMMIct33/WucKCWJ3xvo8wXfD2lW8OG5eMOk/d7LFYUJdA4RttVILlmk8n6HOVFSEwKjJKJAXWJb+SIA75hycBfz3BbSlaMK/09eRPGD9ByMsfmURpaP5YLJWMyTVJblV+YB3rEatz4kvtGBon6g54KnkNk8okzRGW0l0BeUcpa5xrY+6/0lKlCMnSWwujJCUNXPIvXUANbl+ypeYSEYBrBP0ZnsT/TTfz2c2LGtLkv+BaRpNF6vgewWyVFk6NK4BwLEAnNn37wBOcNDIWRHwTkkEhp/cDsgHl2UOn2cUaAHDj3jHnI7jibubZkhIhjONatsEj2mjeLjhlaHMoRDnIN3vfVUxHQT9aBUXZ/DTMibzrXvL3mCKFUR6yL5FHVspqui+QVSp1skpjngrJRf67r0ZEMqMx9EmQ8uDDp+rF+R84S9kMayL0KodCDDhoJgVBVF2jdXyGBeFbbjKpSxv+3M3M59TOXNiMM8Nn/IRBJH1Uy1qABa+qpCp0AKkMN+hXHlY/NQiPUfVRJqZISe56UxwtgT9IfcbLNb9A9lfPa2nAVBqMy9COk49AlUeFMkx2BTPgqw6VoRRCpWDLYA1zNLZPhVqjEz4fj5VEzh7uoqPhDXtq2g5Q7zKTHVwBoF7eK8P2LSlQGeJXetEHHABJcT00Oy0QYDlDnQ4RlL6ZEJyBIHw/Luyb3MxsJXCB5vvcTqFgsROXqY1nxXQGFLRbf8lRnMYtHqP64MdcCHLT69CvUkmxbTAvw2k08lb/xHft6Zx9Vu6AvGe7SvXhquTgQ6Nv5c/SFbNSKifi1So2+fhogbZVmUqhZMDOTvBOVCjtPPk6cZdOvsrXGbjY6TWBkKvioENCLJZKDOMlbzAaMfBxKyJRgylVnj4tFP9WsyiSPqvzWD0SgjG8ylbgdzhzWl1ZqJcY7uKuVDtwifsSpcI1se0H6xLflCYtRRJbqK5Vq1RK+kfGh6wdMU/xgDOHDq86Ja8VTivhLkoae8xd3PHo+zxPeNuyUu5jdk2wIU6llxRWuE4J+jJ3h7m80kFhhIuXuQ/DnsoSOVRezI7K5LZnNwmiU9nlcM8XLD4UuHQhg5xrzi5Ut/r6zk9e4QkvJTHPlDpioUzI2EpVwyDYJfLqQ6ds5UzUkuPXOB+wXJqs8MY9QGUbqY20MtxBfzki4S5RKdTLFM9TOvOkyExFeO5XU6zknW37XTNzvLgURyfifsNf3/j7wz80EN3eVemPn7ebT59ueIfGtlzMkl8c//zzm827d1gMSnRJF71nC+1ncPwOL0pUqkAQBcvTWslm43a+1n4PSXliI6EtoMUuJSmlUkFPeW/nt4R9Gq9zdk/v9YysG667Oz50RT4/InjL9l53Y17ymZm7U1WooQJpdGVKnZkhsvZk33y9otD4cQBaZn0RxCmuhhQ8gODtt0VRD6IwKNzQzHHBg8/AWLyRy4RQiC8r1CFGO7BWpBLPnFoW/TbaJVERluKJueJWzHv1SS1A8XG44QmL+A09vY9ZZgPB5r3ndnIUtBbI7/w8ve347GpzxSnCzmf8gNIPI/yc/IT3edk9wJiY1XCziqtJt0GHCDurlw2nDHhx+j2EuPqQp0esgGtV2Ynqh6B8IOA2XC2Up8b8wWfl799/4Du7G4beLYrOkTvv+OT9Ldt74eHnYR5t7cY8lWpVrORGhjDKqyCtVcnk4n3LpGBVR4ZKvjY2Yi12Scs8YZZiNRc5EDa6w0yOuBlWkAOouxzN97BCdZ6DUbwJ1kJWnvO9+0L5psy4jjZOkjPqeEtL0RD4fuzpMONDuA2qM0u2M204KZAT8TjtzWMWOZzr9z8+5PJrX3N6+5bv0q7eYgle87UMjYslcPg7Y+f+w7nnULo25aRVieDuEOoaFZNw97enCcjMdtRC4SXziAi6csRSRfAHFKcm4ucMdX7YqkLlyQ5Ct828//g5B9a+f/+Rs7LuN28/PGzevr/Z/PLzu83ffvGbQ79ffOJjDPaFw8O99OaRfPGVUjXLwWLkLzyXMpqUW/lWoYqsMzy7HvLSBsiu0olSaN7NaQAr05W8kNb4CDVVJyzKOwDPFWqf0X48Qqxq0nLMFklYzZ6YS1AKGzKvJRiyXL/J6xJgWV+iFnLmAfML9xypTOhQlE4ZP7NR7j1zkl//uNv8+ivnUP72x+a339/nciLux5d+mvX23Q3Dnt+18Yk2MtvA5zzteULu9ohWRm7XpB5ZWc+LZeVymElF+1ECf9DFQuEbjhJBif6MsJN8T4zDwrCbzm8J84kVCpx5FQV3U59HQv7rtw+bf/36nqH5dvPq9XbzGoX6xPmjtw9/3/zEN3ivX/NBrJf5kKn5qhd4KbvW0PLlHM1IV5ZM5WnFccK9KFMrFfSz63axxWo+hpDQVZdvTHP9dhcZX0B/rlAz4k4+pToKtoZKxyURVmk0GiHnNvmyhFrJR5XOf4B5lmYUihbwySi/pkDre7bUEds/tBAu6Vj5n5grfeAA2PfvbzfvUajf/2Co++Nzfkrj40eHMKwQX9j6I3ieOHyKRdo+vqWhfbZjaMECYAs4ixJT7Je4vlJhKNkyIcvwpaKrCficmQMFGfOv8YJr4CdRfBoTWL4vZF53lq95+BYOzTUPHef658Da3/642fymBeVo6A+cMWoZ7skzX9o8fcp55G/fM9/ji9+fmPPVxZMp2Tu3Uokz2qH4j55ag3X1DYHK4PKFndChNudxMQ46ybfzOOHPYqryI083nb7xFWJ4xhjx1tJCFvhFt/IttM7PWlxdQ1fICHUu7StS6/jss8BHS/l23oOyPK7Pz6YeaMD6sNI0Fcrep0LRfrRU5hLMQdyclsaku/7zt9vNP//5HgXix30+eTi9ykWYQ+qv+Qr5hh/8cYg8Y3vuI6eVnJ19iKweB/TLT6/ynZ8/+XHK6XRsqqQRsFLIVgrkpjvKwnaVJy4GMMIgZUZOeahcS+q9nlaRk7rxJ85OsUyXflipMjHU0QfitEy/e5rv77+j+MjN8dAep/3ZyTmfYvlxhD9TosK9faM1fcPR0ZdYV55IqRMn6x7MkSZA7/3KxrOh8vEpctWQ67xS5eEkdx5r/ZmOzMUsiuVRKfhX1naWo7hWd294QysuQZW4BBjRSlxR5vgL4V2FWpBKjCWazCrLgrXEVfFi26PzCTpD1B27JPORYo5GbKXSUmmlVCbo6HGuRvuTq7nckI1CebTzIz3v1z8eNv/rXxwE/zuN8plJLcPe7Q3HJd6yxsS+ow3nIRzTW49QKPcl3W/5aQ8a1c11vhj2IAq/THZB8YSPCbQwLh8c2auFofB+yJBzDrSpWK8n8vayRTLFotynNNQZdH62dIkVZYmr5j+cK8B3qlE+V8t9WPj8+SMy3MBXJZUPB4FkGD9HoU5RLKAcqmm4fhVL+Vnnwsy8ct2MoTMqY4+LhdJK2fuQnUouS+X80I7JthnOjnDoPWcR128EVZkz6rUtla1ULcW9LdBoS1tzqBBYusKs8PPoAv9KgKqdlWcK7/FvPm2Z2hcuFXWVhrzhXPIbDsbwJy88CTjH5NDAVgB1hDK5P2lVqFoQxIxrnZhIb2lw6geF2m7++esdPf6Wo258HIfu0cVEVq4x+ad85XgSheQUtzNagwp78Gxv+CuL9ZOPSPXRPy2VFtGwX/+eoU13KHgpVXUIFVnlbMVy4PToVn74jM8Ln4ZCHUehtCguE6CXNKyTcSznzSeUhaUCKuSYRD8fO8PycSTY6GwMfyx13PGxwxGn0h1z2szJOcfzgJcPKbBipyo9VtM1ihx9RN1FoaJUUVPKQFmB359tsVKUmbnc1uO6UUctlSdQRX8oO/9VGcIS9qYy2YLVdivctN2YkD/jhkIh9MJH9Wi3AAeg4+2XQFagClOnAJdCeT55nVGuItnIKpFKwdMLfq1G++juezeyp8IetWCwdgp9fU+v5hcC/PTphl56k8PAeL1BpbkSfuaVfdye7/TAEx4TXM5EyBICSuMTm3ydQB/7SK9vI2NlePCj4T0dBiuF8CqF022acFEmlepkWKYL/AsEvETZTk45m+mcM6aYr1kLGssoKjV55iSdxabXLA/4cegRinJ0c4r1OkORHGZZ5qBD3G/5nZaHcyboHHnE3mF/58VPX1QCV+I9HjETaOrNnwsh+9SPMO1QzUHhR8/JnBSeInmWRE3UCVNwy2xrKmfdq21VpkrptCBMt6KYAN8cLIVS4oOu4RajnHrd4jSMMlNhrhVhmbRQuRwGsDZUSrbFptDueHSTGrU2iPW08Dp0cgPJhvamcni8fvMLPZe1HHq9PfvJXki6L39VqlecrfSG+cxPnK/091+ONv/g0s/SAdaurXyUiTErcw8aecsM2HlLlEklRqkcrlUoHwh62PNsAxXJT76jTJ4chwA5nigrZCgosroS/o6lCz+GOD69QrY7lgYeOX/cJz7XpR43H7af6QBlXS8488hfljplAqaF1tkptaw2pW8Fjq0vn0K7bSlE/sgfaTOsuhdMebRKvnI6PmHHqQ84kPqsIrNVqWw3Oegql1KshiXh375RHzC3VXXJrSMNKBFMVKB9J7ZDmesv+dS7509OylEyK0oce06WCaxAAcL1cY1jhaqc9kAPoviJM6L4AmDzwEkkjzc3KBRAev4bzuB8Q4P5Sws/c1rL334+2vzX31Gov6lgHNRBA+e9G7xtLi8l12plfsQwoRI7PfHqT6zMW0T1XaJ8a4evQjn3fuJwVOdHWro8cRVaGv0nFzc5/vkSq/man7J6x08a/HbJz4zwGzZnT9ccuHadenK4P2fh6TUFvNJawpvuUd/mIUu5CmiNVahcsU42PmqA8DV9AI9C+eBwxLyqFIo5KZ0J3Up5IVuc/CjFiA9FTPqEtGB/PSDVqLIF2Q6GG0lJnZkbbovUfjGxyKKrDH3ofSzTOAMqcyaHNnpbrJKLiGnRopO2C6ufODAnz5pre88xLXzHwa9XJ8xLzq9ZDrjk8inuIk9yP7875ugfrAOLOb7acMGQ5OWgDft4laB8ouXITHiGF/OmG6vcaUbjg0gvQ2aoGMJo2TMOSdMadL+WxnxcnPQ4ds8aeM1E+R0/eP0z517+jV+V/IUTwv7BMPiRlXMvz/h8hbJ5jOErlPvCD0mhi7zKlhFjdMDkXTetkYLmRTDzSDuoZ3FqXV2h97xyPhZkPur8DXmAjwaeuCj5KODimyxsz5HdQTehTsGgloU6SCWwM95FMB8VKRc16oRS6+QCo76Wye0jzkt4jJmuSSlbEvzmZS4qlOsqWXdhon7n0c+nLJWf36A8nNr27hRrdLH5r3+cbf72UynUa1eqySZPclXn6Yuz9LGGUwXZVy0enTkWwOi+a/RamKU0KNJJOsUO52ggo2+GPkbfzSPKffuGdTQU/SOn8f2d86l///lk89//+n3zT55ctwydl5yneYkWXjqxZl7mBxWqqXKpTyovKlFWhgpa/lIQ0rGSYvhbMM7X/P7+kTladlu4TgYIo1Xfx4LXZZFGvoGEF5DkJbxSDS0EiXz77bBCha8iTAow8hAa4bgpj2EVwg1ktQfJCTg9B6EzRKJQ+fEbCi5uLvjrz/KnUwZImh2N26V2G6tz8jfWaujhP7/jkC2U6u+/HDPMcfAWac6XPFtKka2XlinxkcVgu1jEznrBAaHDps1O2qxZpTRtlwo/VpQMlT02Cyby0cLlB4/8pU2E8gnxCnPI98WEz3jQsNNQLjrMqRN8VvLzcBIuI3d4Wn89R0rBwttMonaLRCkzjcAqGz/Lhm7B36Gc/6rnwTKyEdaPxHknaawgAXuz0N/pJosI07Rqc9rNxNh+PgsGCb5V97VGtsamhGKXeU1vW5Cbf5JTloW3PYrHZRdCnUx6YOspv29/df4zluERZXrF5Zv7swxzlz7+UwJx5aH45qqCG7fadYbrZqBcYASbruHxZTJc1q7gGjxgK13BYjlUKifSJJouucPpkXO5WE6WD3h5XSe11KsiSphOpwV3qSL5SJ8MHILhzJUPIqzPlmGxkIDITRxVx3p3TNjSBs5FnSOGRyRa5Qp7SXFlBStcUneqPDvc6d/ml0IttAZktrpO6ix2Uklc01kc1PRaQC5tm5VTl2F7W/GNx61pExjAvGdDqfxlKIcxn4bOmIdcMon1cHetkifc5dQ20m3EVhy5y9Ons+I5csAboRJg4BlZ+lDyF7IElrC2taHyKbstLi4NKowGzWy+8opyIZ/l9yUwUx4sF8f/8GTn+lydTjcWKLtiksuQFMK8e6RK4xAgr6pQqHzRTL6lTPhozxMdDnVCkXhWjTaZYcmyX3b57cK6dPq7Kcl7vn0lebJQM9XLYfnl4tbtFqVB+nVjWAnYhrkb3IZI/Se5GkkbVm1SFeN4V1/vkkKreAreW5YGfHqzYTw1N5ZrNFaXr2VScoec9E4qNy5I8KMx5l6ZF8Nkrh/X/sK0ApbPIc2SWwbvg2Dxc7CGvLQgELSiqlha0TZfbk/+dH3KDy2iKZw39MTJfvc+sqUzgiytGSKSOY2qGrmaZhkqW7104iDDL4qkBnpRQV90crdEB1wY78EPIu7hEP2KQlmcw5yEzpdKk14JUF9K37ZZ+FRLKgygjbbWki0Vl94GTnCloUVMcu3Gpzef5Dx3E/0K3DTQnl22pHAr2veKaagIEShpTQWS8kUYZVLZlZf0yGc64dF6XSapFwTxFx6CJfQa2k5I/DwsAPJrGF/X+JziL5zW4mqWUwcd/CSvSoufBWBAJVPJU51Cpan8nD1pIY2XPJWvZIeddO3msNJGgGIwgo15yG/qqpeXFMqKCUajFaspu1gBocKsbM8Q8POlUx71twBc00nP70YF08oqKwbRyCMrwqlFRaNiggQefg2hfh5ei3Vpa9DE1AqJani0udDw4BZ6V7qDp5ADVuUSDxePW+fZ8UoFPnBCX6pYSYO+GAw8+YiPz389lDBYCgt9eTybUJ5SMv2Ut+V2yGxZJKJgPrV1XfVkPDIkn1Ikh2S3QefUF9thTBfq49QhcYtsnfBXHanS1rtIQ1iBU3DFWUPNcoW8pFBizC1BVN6dXfsNs8wWoi7eMxF3wlRjvD1Hk962oSxPrBcpcs7QE+5UELQ1R3BO5n5NTzTh5a6vEoipnzsF7VLZEOmlIuCIZ/SZkZcKGoE0HuG0ujRcNtSOayL9IJTfeEkecGAZahEyr5eccPuUq+Cg2PF0VFWUyrmeClXWRbm9HFyrhlMP0Iih0zIllEoA1+nB6IR2HvnWvvXxMDDyC3GKNZTJci+tmdRxmwlm+PPwfi2VxC8q1JcZd6qWwXAsFLfsycG3oqIwqWCFIbthRoqW3mShpA+T0RBQpe6tONKtWH86w4pKI5hXX9CSFLZl5rtBrGiLN7mRd1XiBI/0c1y6knDlMcFEDWtvfQlcXWel39Zp8QeaOeSBw6UEXgW5DcVjGq0zleTJ954JD2kGU+misGKyYs9W1wlmbQAAE1JJREFUhDz9Wt/WvQeDeDC/W1rcvBELKE3yLXmrXgMYKaO8DfoGv/gdRjwwh4rYO9gzZM7esFcUigLE1NLixtPr0pNASAMXdu5WkP/46b2pPqvTIc9eaM+FD6SnrVAjvijUyFfc6tlVYTZI8kseEEXCrgLjc5jo4kzDBWXgLHJXUpVj5NN87BidR7Mwb6HxUA0CCxUB4TnNFwU44weL3IKSLRbME+pwfR8mVClKC26yCEfBdj6VToVi/QrStkxni4LSuVGqaoeFEFZKoWubV+FkEri3kn2J7gWaQ4ONN4XhAwoFNFiN1qRFODMUw8uekF5BxaSCKJg9yYcOK0icFAHioi/THfp0XytJPHpadiP6opMhFMb5mTMqrfNqP1Klwa18rROceXSuHGYpg1lw8zKptLgTBIywfhD20qZck2cni9sXwbAx3mHkAea+r3aiOJRl1wMK5S9I5Otj3n3eRlGst5qoh11pJWyIwdpOZ8VaX8dc9SNHrnOxJZlLa5e1L9BVKJ2e6lnWqepeSIeCtHMbhDuwZL8DGSWF0yg6/mGFGoXYod6LdJaiOhk840Wnjf/AthCvUijWRqwEexV/ZdIFQES3K12qMEjVc1Gkc/j4xco5innFFy1WkJbJPL3iZEMvrc+ioBUhRcNLTS6YAasH/JvNglbW0PxrUYCUchNpAHPcAtOQixLLT6cZSbgBAxag+GPhAXItiu8cfVGcH1IKKd8QsiLpGlJZKZXROnGZQAFSQPLQAvOg4kW6Q53Dpr9TWDs4ncuCDboUUipRD3V2WmG7Lhi7oL3YVKqk7Mcb/bBCdeoLfgtpcoqK5K61bHmsf6Cm3LNdzu0rVhyFohF8q+9OAv+qmBZ0oFI5+WATJfJHGC/41kgFde3JdafkA6q+bZcNaDasZtCKj5KaGIzGxDen9aG67CUCDyuV7OEnWcKDsjICNtLCKDexaDHyS9NEuUYjRTCRFFA8fS8VyjJUOVQoLXo6WfaJufuBumFelPzQel/3RJGUC+FaNnn5VOdOUIdNlSj1ZZ1xGbeDtzIVnTLIRzlnuQJN2pduRb1i7MfXlJcsVDCarItivMPFomOUDU7cqAQ30D0+1j4flxJKoawsV4WrF2qpMsRBkkdbS48T/4oXc6/YXO1Q4O+fZCuv7U+6l6haGXtyfQzZcpIgholRqrVKncOUAlV12ry2s5SiV0BgkbZyJU9JgQ8RE66bFsemLYuhFZaZjVZu+A7DBmWCIiqBChXrTPiR7wdtZg8zszwO8/e8w3QXaNuYWClwZCJ7DXANdfyMLT+BohXXSmU7MJ1a/slOFrioPoCCKUxdi1g72CFZbuLM7lBcvs3rRQsVwmDtspiJm0nMq4WgJWKB2KrrZjYXJd1Hnv1GaNY92zH9EZ58SkXlq0xuVanPiKgIaF5dolBUkp8n+c2bypo2IjPzjq5Q8SpkDT3d67rYwRKTKys0CSvrzkWyOuB62dCF+CkLaeZjw6lIXtLq6yIDaQJ93UJ3ISxAkEplWLXFl9B4LGjUKXzsf+53j/QpoLsNGN45F/0OjXBLULapmAcpWYEnpCXWAjnXdFSIQtEB3SfvUKfl8wlSCXTlK4Q5Ga+w8XSCDPeNLcXqxJzd1+LiHlSofcKVqSlr5oYaom8D+HTh7/n6xOcWXUckL+cH9/6goPMrzTtzAC2S5zvpOwnX97NyK0pzbgNa104bkpEVRR5eKmN2wqUxBILjbWiH7WcVzk9YNrFy2vm1nH6dw4cleTtfL1RRcph3B1GZES+P4Gc2InFETFatXAqT3RQRUhFAMhc9Lx0y2pAuDChDWapSUEYo0vzzgcS5kNuF+UDVh7jUXSmCVMWSuvIXHNxDRT1dsqfKL5GzTodQymfVNL6K3UpUYGtAZbJTVt6p5HAvOu9ize5LcdO6qAcVamZkWOSZ4RzvsL4FsZf4lj1zAlo1hgTiLUPhHfvCH/zig5JYIH9s0Mm3Smiv8uqMbMg0GrRWrLcausikNAqgbkiWhjTqpJb8ibuhL6mQ6IcNvnvI3ZDmLtP6UmYolZvURoP4MtfGZhqXX4q68iOKjO0ll/zMMldqyKoE4BCY3MAw2mF8G7Ya13nQNEm3A8HbId69ZZ4co0Jp3f1CqFnIzvxUeOsu8lHX6OAki3mOrOMr6a5SBkIb2EbZLBg5pfr33UGFCn8bZEcQY7rK3XvFG5LEpQf3LsgYDJIU3l605XMnnXAbzV6WX6UaDRl80tLTgsmNzGxo0IfrnI2aWDIlMY/oIOsDLktVyoS+RJk+8knWh09sgOObuc9+4+cpLSiZQ3M9VflpV1nKVzTYO34Z/R3vE/2xa4dn9cocvchp8ZNnhGjVbTnxtQiDLihQ1V/Vo0VwG7mzLL/62eZ7Q9pAVhMb8VIX1geCuBnRutKRtLgKF2EpsekdJwyjWPnU3Uy5sPiuwHOFmnivwVWQUqtK6fQur3GtlAXWtTJV2KWFgiXOTbxUkDReJuhgaFw2+jXMiGyauXWOBHVGRRQBvyaxgAXhTLZd3NjmL1T9xocD//z1lo9I/Rjzhi9+/fhgWDMtB8p4gqa76vyGrZj/9ctrOoQbBbEKWBGdI23EMRxAyVsxISNzc8e6RlnpQXkIAea8y0FQvMaUjdZHhc2HEgquG36P7hIsxR3VUohrrsZLgYq4lanx/KZRi7/mrhR9Nda3+C2ktBiIL5OI1ASFqWAtYtMWK2IDPYU1kfgu9aBYCEZ8Dxx6CBc06z2MvDXH9iUW06saqAnFUJHQoSjTRyyS17/+UKE+8YUvCsU3TNd8Q5ivhyHMKXZUtj8i7Sku13zQWVbrKhbB309+5EnKIdmG13Xuhh3KSkahLaO+w05LtNKoVKYs1reZNe/BIlHDBAIa/q7VI71QuIvVeQ4mJhY1fiuTnMPdxH/DlXBfUaiXBFGsYrAvQYvWlB3fxzsUb9z0xEZoRokbGVfDu6umZpvDgpWtsB5Qxlfhm9/4VPzX94+bf/2OMn3gJJfrLd//sf+bz7NUqP5W0KGL2V3Wgo557P+Nz995PmXO8ob5Cpv8OOQim+bQnW7QHqpVYKWIJC2OChpdb4DCiymeja5S1ZwqwC5b+wI7jL902CDXrTlXbFYkCZt4IvhLgsV3zvsrCmWuh4RR4OpvL8nVmTyj7oQXCF9OHpz2GRoP0UopqC/nRv5e3ifmTb+9v+cjgQ8MeTd8K8eXvoyB7oPP18a+nEU7sl0EBfAJcuvBr+x4OH5iIxxmzon51eUvmfe50p3HvlEOFYspWF5Ym3f0R8FsfflFvNyaAl9MnfWpgkn17W7mNlMVvHnPKYb3qTqu3+F9mkqZOXbrr+OVtDx5PidtyEy+H66Mi+muEDOmnHZTi3fjHErr3OM3YgP34+Eul74asZpKdBvZhXuf6j6zQ/IPTkX59Ll+/1hFeszhB3xAytOUSwkMZugA1YKVekBL7jgB5TO/5LnhwIsPn9g9+pmDzS6v2PRXNsacF7EIGHZ+Ug6GmfMR2zErYs2UzQGlUjPj2h/Rb/SKqvm138T7PDvefuMd9sXa5diWsFOsvS+6mbzDnbnxDg8mgGZIUyxZjMQZZ0l7zm1OGiWZOcpljq/oM9RwDrNAJ1So9ygU343yGTg6wskFR3xnxzfjsU7syMZGACOeuQ3KwFdhOQWFkxo2H/kc6uPnV5yecskku7qTdmWnPESysIli1PMDlS7CDtIqa4WU0quR8FOIjs/4wkY63nOM5hUGM+Fe+DnlHsLBaFHNeXQ+Nb3/ikLJswlm/sK+LtA+xiFOK9c9njNywg1of6U8JIuNiX3I4mUtYpaVyu/ouWLPU5vrVPapJxUK3GwZJuwZAfY914GOeCXCDCiqpmJ6PNF8wIZSWM4McTsFHgoF4zJYJs6y74VjmWbYxGwGL7m1FVSCdiLuIHfCF/zOp/0voL6YtOb5DQollyZovzM33uERbBTJZjehzeAKHyASv8HO0hNugFQjHL6GdzNQoRzuVKblYrXwgaXx7dYThcH38yVZ4bIjIibFIYsZzWBvmhYmuyfJ05+JrZ8762UGMcqJ1/yElIUaiRFxTh3weINwyjPrEh1vMhlGO/VN7ISZ16HwjNdh/Tl8iO7LsKLeleMbFUrGEs6uGbU/pz0P71OvGKbMqYippDPbORzCfZqZfuKs2RlJVXgBvlQWDsRVQ1+Z4Nde93qTn4VLk7FQvi5xbc0dpoaLRn/wLsYReQRJGGmNE+uDRRkKm/QgN8XEpGnNoJMD63j74VJyzHgDfNhrxNk33PGVSojiP09pHFO9dt2fUKgmbCYvZLUHbuym3vVbqMJqexEWzcckw0tjNI2cii7+1GNDOqH1KyHfD3qxUsBePN9loUz51MrPLmsFPDgsCsW6geeeo96vnXd8xH0iM49c5JM50hCn4V2WgdXYYuEgUr6FUJiUOhnqT/HgCmsn4BmwE1/wm99L/nOyxnyesg9ZZTk0EO9jT3EJZ9cF24fPOH8mXHyaayi7VPoqTcdToQMzylS0S27g1VDF0z2lrDfxvnyuNaHV2miharO/lqmsERYJRrFO5BMYN9eSvFSsHt4WfxatRY1lci4F4xGuAsAA7hW2QF7t9uPAGzT7jf5NfvOf/W9gtlela1Zzwhw+tFJueue7cBC4S/gtPWSfYmGXQPNsX2A9Oc14EcXbwozAokANbB769bQRJUArfN2T45+zHeaCvVYc4srakr8Dky9ss92WRz73I/mHcnlyXI5tZP+Wu0KPWTXPRwC+kHXfEVoVxUIuRcvVMg6RygvHxnheZSUu6fuuE2Z/D8f8dJVRhQ/eW7BOjLQj0kw6DX+f3xw/gL5SlqzfMeTJoohXZn9NqGR3qWxX8qhZg5YCGuiIvvMjkQpRhXK7ia9PLlmQvI1CudeKwyqy06D3Zbl+QMOjpLzBYyh0zQnCTK9YXmcNymc83+zn7b5KhSnT6rWdad+cvSLWGKITX8pTMVHipmiVuctjguHyJ7QBC/U33JqPqLtcnsdB6exf4twivZQO/DsVqjm2BPvCfl225lB+r7euytScTS/uQrjaOi0IA57aUKnEr9cYaWiI3RajYr1mI9rPP71h9LkGm/d0nLTnr296kp1bbp1TscEGpZID292g8+TfN6+PNz9zaMdPby/4gvkVC5tsIJwUSvn6UozoEresR7FAWlOlKkWXJoLmVla5iiNO10WF6y6i1q6xhHqtXkXm+0q54K5Szoh/LqwII+tDhN+hUM2xfdmuYUN/znUFFpemb19eK/eJ845iidGXSlUKZbljqbid8xHF6ysOAeMnMtxZ4CuZI47R8T2fh3r6BYmLlTkwFdAJq+UeufOKdyzvXp9wwBlHL3KU0Ft+tyVHLmKl5D9fKrCudpPChHxr92bB15ZYW6Sl1tftW+eClzIZllKczleaXde8m2NRrHmL3TjtA2r0XWaHYy3IgdTvUKgDXAJarctLGIfgh8ohbIZ3uIo/pxJO9x+wbB6yWbvKq+qc7/juzZe6HL3K6jh73tlIdMHprZ/YD/U5lqoWMn3l4uX5lxfsVXnHUS9//+k0lyfmeQKMG+EyhyInZcrVQhKPQ66Sl3uWJ4BGVuIhGHh4eyVKQrErRC1Ts19JDRWrBJZYY3bqfryxi75j3+fPvIvDc4U6mM8h4CHYnxdLLs/F+hKfOd8ODz/M5OZFBE+Qw5PnJL7jpOAL5lLnHGx5ef4Gi8WvNPD7MZ94JeOpe3csgdcvebIXCsQ3nPH5E6fR/Y1fPPiFoxffclKep+U5l/KJUKfXVwABCjHzQuoPGJ5brD9T9uJVeczhJdcp0OmjHqaUknYH8G9EOh9ZVLjO1TNf3ZxekJeAE1yiurw3K4Lf6KonV9FXATrUfuVR1qdymStLrHG1FTCZyyFPUIY+dl/6awUqmGdiOpy9Jv7pmtcyHjLLT3j4UyEq1QVnZL59xSl5WDWV6h2XX+DwpRIDajlHXXmbc25DpLZNlVBpzqt6DlTUdQ/tDBjhXbgxmVc2xnbTk7R3O4TRsPYnkgZVNlPCgeDoKGuKxHWxQJwp5Jq2E2rus985N2LH22/4t/ia8uYtvlVefIQ2x4IKadw5LJ1O7KaoTWuWLEtApDSFMyyOZMqR1/76gUdfu7fcDxZ8d9dWxX3uDpMeGe0BZ1f4KqJDXefSObYP6zUjw0FUiHH52mTRQBEKffb3w8bLdc3ItiSoe6fPvqVtN4dnijncuHu+pAfRmqf+jIRkX1YoM2hiwy+5g7m+hLwHX/lX6DmvgjRe+7Lp8Exj+DCF2CpU2nffJzHc2h9cbP9ZkfZzAu1wnZvQTsYzYcOHn3z3YF+LfoHdRHqI87dRTkxeCB7m/Q0K9QK//0PBqQZuq4+NXOpmDlvAmtzXz4f8H1rg/7DYzyfl/2EB/tPZpX96U4uGP08JdodgpUOpskTxV/Xs/3SJ/7P5/Y+zUHP1vjR9nOG9jtT+TP8j/LwG/kcr1PPqmCA9DP4wTFOlfD34P27I+3qVDIwfivTNVTUj9pLKDPsR/lED310DPxTqu6vuB+GhGvihUIdq5Qfsu2vgh0J9d9X9IDxUAz8U6lCt/IB9dw38X/+UN68p7dfSj7Wl/Rr59+P/P+PTmb+lsDi+AAAAAElFTkSuQmCC;" parent="1" vertex="1">
          <mxGeometry x="1060" y="393" width="35.34" height="32" as="geometry" />
        </mxCell>
        <mxCell id="Iwh2j_EmFfEqPvJCqRrq-34" value="" style="shape=image;verticalLabelPosition=bottom;labelBackgroundColor=default;verticalAlign=top;aspect=fixed;imageAspect=0;image=data:image/png,iVBORw0KGgoAAAANSUhEUgAAAJQAAACGCAYAAAA7IqNEAAAKq2lDQ1BJQ0MgUHJvZmlsZQAASImVlwdQk9kWgO//p4eElhCKlNCbIJ0AUkJooUsHGyEJEEoIgaBiwcLiCqwoIiKgCLoqouCqFFkrolhYFFSwL8iioqyLBVFReT8wBHffvPfmnZkz58vJOeeee+femfMDQJbniEQpsDwAqcJMcYi3Oz0qOoaOGwYwoABlMB/IcrgZImZwsD9AZNb+XT70AmjK3jabqvXv//9XUeDxM7gAQMEIx/EyuKkIn0L0JVckzgQAtQ/x667IFE1xO8JUMdIgwvemOGGGR6Y4bprRYDomLISFMBUAPInDEScAQKIjfnoWNwGpQ3JD2ELIEwgRFiHskpqaxkP4OMJGSAziI03VZ8R9VyfhbzXjpDU5nAQpz+xlWvAeggxRCmfV/3kc/1tSUySzaxggSkoU+4QgVhE5s3vJaX5SFsYFBs2ygDcdP82JEp/wWeZmsGJmmcfx8JPmpgT6z3K8wIstrZPJDptlfoZn6CyL00Kka8WLWcxZ5ojn1pUkh0v9iXy2tH52YljkLGcJIgJnOSM51G8uhiX1iyUh0v75Qm/3uXW9pHtPzfhuvwK2NDczMcxHunfOXP98IXOuZkaUtDce38NzLiZcGi/KdJeuJUoJlsbzU7yl/oysUGluJnIh53KDpWeYxPENnmXAAmkgBVExoAN/5JcHAJn8lZlTG2GliVaJBQmJmXQm8sL4dLaQaz6fbmVhZQvA1HuduQ7vaNPvEKJdn/NtGARg4R+Tk5Nn5nz+yKVsRM6E+HbOZ7QaAHIXAFdzuBJx1oxv+i1hABHIASpQBZpAFxgBM2AF7IATcAOewBcEgTAQDZYBLkgEqUjnK8AasAHkgQKwDewE5aAK7AeHwTFwAjSDM+AiuAJugFvgLngI+sEQeAVGwQcwAUEQDiJDFEgV0oL0IVPICmJALpAn5A+FQNFQLJQACSEJtAbaBBVAxVA5VA3VQr9Ap6GL0DWoG7oPDUDD0FvoM4yCSTAV1oAN4AUwA2bCfnAYvBROgNPhbDgX3gqXwTXwUbgJvgjfgO/C/fAreAwFUDIoGkobZYZioFioIFQMKh4lRq1D5aNKUTWoelQrqgN1G9WPGkF9QmPRFDQdbYZ2Qvugw9FcdDp6HboQXY4+jG5Ct6NvowfQo+hvGDJGHWOKccSwMVGYBMwKTB6mFHMQ04i5jLmLGcJ8wGKxNKwh1h7rg43GJmFXYwuxe7AN2AvYbuwgdgyHw6niTHHOuCAcB5eJy8Ptxh3Fncf14IZwH/EyeC28Fd4LH4MX4jfiS/FH8OfwPfjn+AmCPEGf4EgIIvAIqwhFhAOEVsJNwhBhgqhANCQ6E8OIScQNxDJiPfEy8RHxnYyMjI6Mg8wiGYHMepkymeMyV2UGZD6RFEkmJBZpCUlC2ko6RLpAuk96RyaTDchu5BhyJnkruZZ8ifyE/FGWImsuy5blyebIVsg2yfbIvpYjyOnLMeWWyWXLlcqdlLspNyJPkDeQZ8lz5NfJV8iflu+TH1OgKFgqBCmkKhQqHFG4pvBCEadooOipyFPMVdyveElxkIKi6FJYFC5lE+UA5TJliIqlGlLZ1CRqAfUYtYs6qqSoZKMUobRSqULprFI/DUUzoLFpKbQi2glaL+2zsoYyU5mvvEW5XrlHeVxlnoqbCl8lX6VB5a7KZ1W6qqdqsup21WbVx2poNRO1RWor1PaqXVYbmUed5zSPOy9/3ol5D9RhdRP1EPXV6vvVO9XHNDQ1vDVEGrs1LmmMaNI03TSTNEs0z2kOa1G0XLQEWiVa57Ve0pXoTHoKvYzeTh/VVtf20ZZoV2t3aU/oGOqE62zUadB5rEvUZejG65botumO6mnpBeit0avTe6BP0GfoJ+rv0u/QHzcwNIg02GzQbPDCUMWQbZhtWGf4yIhs5GqUblRjdMcYa8wwTjbeY3zLBDaxNUk0qTC5aQqb2pkKTPeYds/HzHeYL5xfM7/PjGTGNMsyqzMbMKeZ+5tvNG82f71Ab0HMgu0LOhZ8s7C1SLE4YPHQUtHS13KjZavlWysTK65VhdUda7K1l3WOdYv1GxtTG77NXpt7thTbANvNtm22X+3s7cR29XbD9nr2sfaV9n0MKiOYUci46oBxcHfIcTjj8MnRzjHT8YTjX05mTslOR5xeLDRcyF94YOGgs44zx7naud+F7hLrss+l31XbleNa4/rUTdeN53bQ7TnTmJnEPMp87W7hLnZvdB9nObLWsi54oDy8PfI9ujwVPcM9yz2feOl4JXjVeY1623qv9r7gg/Hx89nu08fWYHPZtexRX3vftb7tfiS/UL9yv6f+Jv5i/9YAOMA3YEfAo0D9QGFgcxAIYgftCHocbBicHvzrIuyi4EUVi56FWIasCekIpYQuDz0S+iHMPawo7GG4UbgkvC1CLmJJRG3EeKRHZHFkf9SCqLVRN6LVogXRLTG4mIiYgzFjiz0X71w8tMR2Sd6S3qWGS1cuvbZMbVnKsrPL5ZZzlp+MxcRGxh6J/cIJ4tRwxuLYcZVxo1wWdxf3Fc+NV8Ib5jvzi/nP453ji+NfJDgn7EgYTnRNLE0cEbAE5YI3ST5JVUnjyUHJh5InUyJTGlLxqbGpp4WKwmRhe5pm2sq0bpGpKE/Un+6YvjN9VOwnPpgBZSzNaMmkIoNRp8RI8oNkIMslqyLr44qIFSdXKqwUruxcZbJqy6rn2V7ZP69Gr+aublujvWbDmoG1zLXV66B1cevacnRzcnOG1nuvP7yBuCF5w28bLTYWb3y/KXJTa65G7vrcwR+8f6jLk80T5/Vtdtpc9SP6R8GPXVust+ze8i2fl3+9wKKgtOBLIbfw+k+WP5X9NLk1fmtXkV3R3m3YbcJtvdtdtx8uVijOLh7cEbCjqYRekl/yfufynddKbUqrdhF3SXb1l/mXtezW271t95fyxPK7Fe4VDZXqlVsqx/fw9vTsddtbX6VRVVD1eZ9g371q7+qmGoOa0v3Y/Vn7nx2IONDxM+Pn2oNqBwsOfj0kPNR/OORwe619be0R9SNFdXCdpG746JKjt455HGupN6uvbqA1FBwHxyXHX/4S+0vvCb8TbScZJ+tP6Z+qbKQ05jdBTauaRpsTm/tbolu6T/uebmt1am381fzXQ2e0z1ScVTpbdI54Lvfc5Pns82MXRBdGLiZcHGxb3vbwUtSlO+2L2rsu+12+esXryqUOZsf5q85Xz1xzvHb6OuN68w27G02dtp2Nv9n+1thl19V00/5myy2HW63dC7vP9bj2XLztcfvKHfadG3cD73b3hvfe61vS13+Pd+/F/ZT7bx5kPZh4uP4R5lH+Y/nHpU/Un9T8bvx7Q79d/9kBj4HOp6FPHw5yB1/9kfHHl6HcZ+Rnpc+1nte+sHpxZthr+NbLxS+HXoleTYzk/anwZ+Vro9en/nL7q3M0anTojfjN5NvCd6rvDr23ed82Fjz25EPqh4nx/I+qHw9/Ynzq+Bz5+fnEii+4L2Vfjb+2fvP79mgydXJSxBFzpkcBFKJwfDwAbw8hc0I0AJRbyPyweGaenhZo5htgmsB/4pmZe1rsAKhHzNRYxLoAwHFEDREmIzo1EoW5AdjaWqqzs+/0nD4lWOSLZZ/NFPXQ0kngHzIzw3/X9z8tmKo6nf43+y8G9wY6F7oCEgAAAJZlWElmTU0AKgAAAAgABQESAAMAAAABAAEAAAEaAAUAAAABAAAASgEbAAUAAAABAAAAUgEoAAMAAAABAAIAAIdpAAQAAAABAAAAWgAAAAAAAACQAAAAAQAAAJAAAAABAAOShgAHAAAAEgAAAISgAgAEAAAAAQAAAJSgAwAEAAAAAQAAAIYAAAAAQVNDSUkAAABTY3JlZW5zaG90WCZ/mgAAAAlwSFlzAAAWJQAAFiUBSVIk8AAAAttpVFh0WE1MOmNvbS5hZG9iZS54bXAAAAAAADx4OnhtcG1ldGEgeG1sbnM6eD0iYWRvYmU6bnM6bWV0YS8iIHg6eG1wdGs9IlhNUCBDb3JlIDYuMC4wIj4KICAgPHJkZjpSREYgeG1sbnM6cmRmPSJodHRwOi8vd3d3LnczLm9yZy8xOTk5LzAyLzIyLXJkZi1zeW50YXgtbnMjIj4KICAgICAgPHJkZjpEZXNjcmlwdGlvbiByZGY6YWJvdXQ9IiIKICAgICAgICAgICAgeG1sbnM6ZXhpZj0iaHR0cDovL25zLmFkb2JlLmNvbS9leGlmLzEuMC8iCiAgICAgICAgICAgIHhtbG5zOnRpZmY9Imh0dHA6Ly9ucy5hZG9iZS5jb20vdGlmZi8xLjAvIj4KICAgICAgICAgPGV4aWY6VXNlckNvbW1lbnQ+U2NyZWVuc2hvdDwvZXhpZjpVc2VyQ29tbWVudD4KICAgICAgICAgPGV4aWY6UGl4ZWxYRGltZW5zaW9uPjE0ODwvZXhpZjpQaXhlbFhEaW1lbnNpb24+CiAgICAgICAgIDxleGlmOlBpeGVsWURpbWVuc2lvbj4xMzQ8L2V4aWY6UGl4ZWxZRGltZW5zaW9uPgogICAgICAgICA8dGlmZjpSZXNvbHV0aW9uVW5pdD4yPC90aWZmOlJlc29sdXRpb25Vbml0PgogICAgICAgICA8dGlmZjpYUmVzb2x1dGlvbj4xNDQvMTwvdGlmZjpYUmVzb2x1dGlvbj4KICAgICAgICAgPHRpZmY6WVJlc29sdXRpb24+MTQ0LzE8L3RpZmY6WVJlc29sdXRpb24+CiAgICAgICAgIDx0aWZmOk9yaWVudGF0aW9uPjE8L3RpZmY6T3JpZW50YXRpb24+CiAgICAgIDwvcmRmOkRlc2NyaXB0aW9uPgogICA8L3JkZjpSREY+CjwveDp4bXBtZXRhPgoeWEm5AABAAElEQVR4Ae292XYkOa6m65qlmDKzqva5Ohfn/d+sV+3KISaNLp3v+0GY0V2uiMio7FqrewclM5IgAIIkCNJoNPrRE27zw/2ogb+oBo7/Ij4/2PyogdTAD4X6oQh/aQ38UKi/tDp/MPuhUD904C+tgR8K9ZdW5w9mPxTqhw78pTXwQ6H+0ur8weyHQv3Qgb+0Bk43m5fWNV+Cm//RJMQcnsB/Ojjn12F5f4m/eI1rhh22nxRdQ+bUbw2L1xK0L6zdy5LNuTa2/ssUM9afCZvTv8d1lnUOV20eLdwP5DKjj2QUSjenvBQuzBJfHDl4dbjTv8eXR+f7RKjjKsYxuRwoTHAed+hWHoZOIojvAeT2ONh32PgW8gcC28ftRrzHJ/I6JjeyS+m4nXCdcTuDXcP0lUxehuOSkZDJLYnCjEwUO2kTzZ8Idm7tLywbcIjXgmRiI3adPyeotugWmIhX0rVokA8LNafOGe2Hjct0Zfw0hU39Hie3kqAVxFjLdLyEDNjYqxOnaYQ2nUgnS0zFUYEa+0FF2j5t7h42m9u7W/x70h83j4+nm+OTi83x8TEXSgObc5Tp6hxKMla5jgkKf+Lif3Xyf3xcYUncR5ooFEY3QEan1CQ9vz3HmtkktQEz8Uw2h4Ojysx1WPW0kpcyFdkkrAgCvdqRfEChGqN9seewTO2fDf1KNTTpi2jdO0Ts65GQYQtTvvnFLdEVd6VrWCmT+LuWCEUC5X5b1+39w+bm9n5ze3+72WJhtijE8cnp5kSN4f8EJbo4fcKKHcHnaXNGsYWdYq1ODVc1bI6SLTdwVrlL3Gf33R5Roo+6kc0XqqlYTbjJdtCE1tvs5ngQRuISNrBeJXvhCNUdjbYuyRbClUykCTyGPKVsFmK0m2ET1cyhUQ/5M/mh9B1YI+vP10Dq5IVmv+pXmkbVV6HaGqE/m7thme62WxTpbnNzd4eFuhsKRbUd32OMqBbYaxsvUB5GxM0T1/nJA0p1tDl3/DtneAxOVXXdWyZz7vAicMFeShpoX0memX05LKN99wXmh5SpyE3pIW+fIfUCz7mPUHN2s87dSjC8H29GpvdVocZsjMXfTyA+Z7zgJbAiV+iAZRLPxKWdWg7l12R3OQyXXRMdo7N5UJHuGN7unzY3948o0MPmnmHuFkXSOmXIg/kjlmhzdIKcqtJ5LM/25D7DnFlcnD5szjFNph0z/h0PjUq5uB0dYxkZOlPL5D0JW+FF9iQuyco5F82wbgfdSCckdfe2g7ubtMt8J62Z6s8c5oxm+A5xIvup1RXDTCbNSLSOd7hJ9deroeHet2bT8faFPyPYRe7kdW7WkGaCv/AxzWtVpqfYFeOggef8Sct0c4syMWm6vr0jjkJtuR71txnqZNmSSFcXcyJwro9ggmZuz7xK4U4yNEJE9hkhI6YdoRXctAAJdHiOF7jzNNbhxjLe4WAn8gyaJG/Jrpks0L1Ak7efHJYIyHO4aXekaOBBv4a88JDIy4jXd7qvkXb6Ujmdz07CqMivFaRlLh4qU8leE/maPzH5xjLd3qIYN7ebzzc3UaIHxjGf7raYHudHakUkgOURkyLnU08oGyFYPjDseaFQWybuWKIzlOsUa6WV4uEwVZcGxcopxyL50soLpKp5SKrk5uvVGJFjxGc4oGeuaZ4l7AO+yOhLXOa0OTwy2AOdpiSmLRnOGIa7eINBPOGN1/6c/mfDnUf7M/2X+JclUsaaA5SvdcuSAJbp/n5cD1ss05bhT0WqeQFjFJjYFB7pjnysOzojY/vYqVBUjVSUSaWKpUO3jnnMuydyz6Piw/Y4E3Ts12KXoj/QLdWZokxlGEHTu7T7fmPv8gijnZt4X8NZMtmhnCOd2wzrcEtm/ABeC9Do+GWhGrBIJ+YB7Gfi72Uy5988X/KXvF4iahlg8BJKeA/LMtBUJtG1TvdOwFGoOx7t7hj3MtShCCqAj/0qlMOVtyMe2Y6OzomcQe+wZg3A68knxuNSUAiPM6lHqeDp06IrCubn1a6UqmOTb164Gbcgu3fTB+qU8CyXKe0Q/k7ybqQzyNrHOuVuucy7wi1F+7tsDsV2FeoZxsyopRBphg+iluYZj5cAErxE9AX+sxjhIK5KVH+dWz3d1RNerBJW5VHLFPqiScOPCZDKU3wq78yh5A/+EYgqlUMjBm48NT5uzrWA8Dwfi1IZ+SAPjYIUqyrmCHeJD/mNLunsyp42hSnVbbyXa39EX/Jk0ahLuAGVVDz73txXnIW1oBZpSn6uUEtGTTphN2jHf0awk/rliLTztY/9tbwLvziIW9bJeJ7uaHytyIMTai6V7Cmmx4VL8BMuWKoQxXCLvQohvcsFuict2fFpLJt8tHwOeVq+i+0R/GtNSnbm3b60KUFulSbsJRfalxIDF2PXFeuJUsBQ8KXBZ5IJNeARjzUGEPKhdVWbQ/iZxxzu5OGzbLe6TlsEWQAdOIj9ck29gF4Ec+Iqw2iCFfASGnDrbXai9qXyMKfGmjiRVqFYFjDRyooi+S5lYkBaFCk+SpXFzOKOOoF7Aj0TdZC0UnfwPOe6355kOIwSwS5ZVC4Hw3JsnH2/ctu/izVfc3pxKOtquMszhWftbtJO3vOlnkErvyYc/nPEBWHHQjWzJfUZYEkhYKKuC1Gx5d7JC+BLgReQ9zXmAAspD10OTyrRdiwLGG88J9wOYypU57wqE/wAeiUxOOLx5Kg8wF0ofcA6PWCatioUyMekNUmL2TUjvN0cbtif91/iIrxznbkegDVq+zP6nw1P7HcU6hmfCbFq94WCiJekiWAK7vIF8cW0XcysLHaWnceg/ZquSfaYoY6FAZa5vZYvxnxXMhQqORJtJRInyncggyiZlk6+KiqX7/+yIDoeOBVvv3gtunnN4eT9lZvlaJqV79oRRsVPXPYpjLdbOTRk8ZtsAXxjIO+dxIU3/19WqIWnufW1AHcDyhrZvyC0FF9J3mVqbCpp07b/HHkH4s6BrAZQaPUneS8VIGoxqimocYc2lxLwDQoi4LpUlc35VQo59LGeEn33F/0Mft2W7AbMeFEW3y7V7E/kLwSLS/N5AWnkNOc4Ywr/q9wsSZXkL1KorpZZ0D3B96Iz5hfD+/VCvIvR/iH6NHD0g8bWhy6KsYdcymQmdUWZgjsQo2C+rCbfnQxVIhWWC3yvxTXeDCPRaCctuFNgD31KMahVek7dkOe0nRLSvYzBfk5QOIfge5IkKl6yGPlYwQBeVqiFsQTzFXaHb0smnTyY7PDqtG/1yTvCHsafJZvDWidXsk/ZGnDiijbv3o7yri6rUJQI7PpHUdxN4FV5mJ3BReyRdc+7fNd3guk7Ye1KC3gy5vfizzS+1tNF/JHQamG08qjha6YL0c6tsQWu4SEusA4NLo3SvukjaWX7DFBJJdSK9mJInlz2sqFMZnJYoXbyMof5OpRDE8jc9I7v4xZcbruOVsG9RNVVv0tTsZdo3FpySunOz3lNcmfjY0l4OitlQQIqov5qa0oUSgVweJQ1N+UsyQwJrzR5q0ynaBO6mm0s4oUO1GVUNZust0tP6mCsNyDxiT5zpuvoBgOnQgXvVEsQpgO34YmOW8NWvDk1YVG+kPwMfwaEbmXwXKF2GIu4f83c9sM7xEmUul2Hyxe3+mtRVdUUVIrG7nDF5wpcU57n6zB3dspOS1rcS2v1wCT6iKez/C0KZU7IAXst1GxNwt+EKMU2inOCObo4O811zpsa90apTK1QiyTyysrVMFMtbLRN5ah8BVfY0G6pO77wVM5gFcRylGu/eO3DdrkObikX4ZX5wrmTBvMveObrtTLxpdWa3wofTJpg9kfSM28lFttMyi/EmYMCL2lpQRsks5dCJnXmtlZc8S2kEjxPZWAfsU40OxtYS3JGo5+xd+n8/oQ1o+3mmG0s0mzd4KQaMDRKu8jknEnWxR44CpFri1K6e/Ns8+rqYvP66mxzdeFmu1KOyEuhmnQ1U0q1lLaCQc7NxGdOxW6K8ONmeYQ1vMLFIzikHDFs+1q85AeaMRfMaMjIJsNUMZJHpJdBRQbSt3gS6NqvWFmokqsgy92eJfL+tSBMgVWixjZxDne8ufZ8RbgVIK5OTipXNdOYDCe1t9datbqybj7Cu0aUd3GhLl7ydG6jBTlnq6VD3x1K5XzKFfAjrkeHNxCdE0n6NOK2XstjwJy8zmF2dYlCXZ7jH23wMuTF6EQicHcIjfSlzLhON9+CLKDGtP1TPyCIE2UayAvOzAos860uzFbl8AUQ5KYQKBPj404mT+ycsK723Yq5nzLHi1dxKyY7Q97Kt4Ww+VsFGjYz7LBpVZyCVFjKdp114mRkIRrWvvipPPyCycfVaZUG67I0gpLayMWnwlIIqXunOXdSma6eLjLxVvnysvjBVya+9NXXBlKxZh7CsImMJ1T4+fE5OzdPUKRSKBXpnJrTOmkFLUv2mhcZ9/16Mz4YL623yruQjYByyG8UJ9Cqj66XfQplUEHNQ5yqmwi2MKm0IBBUAX0NtYhThDt5BvfgraWZiUpgjPghIU3cJ9rn3AJqZG2J2T+shs3xkN/c5lysIKuGhWnEIUTX28dLhZDecP1uPqWywS/GprgnNi49sb335A6J2YXAdvLNlrALk/WODwIYZE1TRvB1jeni/Hzz+mKzeY0ivWKYuzwHdlZfwlTJqyNAUUSpO4g1NavJIg2mEVjmtT0GjDhl1hkPTDkCKX+IMyBf9qJOEEfBdjRml6E8F7cTWaBfCLR0uyixULu8RGzk/XATF0X1g2p0K6SpxDIsTNPtuy+VIqacFGGmV/0y7qMome8Im1zlYpNVg0uz9L6qLpql0roM4hj2Muz6kMOeCnOBRXpke4qJ2jw/UrhlB+fHayRl64rmP2ZqaAkGiAnY0+bdq5PNm1dHm1co0QXkTsaVN2jgiLa6lJpoSVv+mhpslyigElPiGVMYrwhzMZqj7KO+QDIflylc+3I49woMuDzaRY9JqamDUianToZoYLfg7TcG8Zlfg5/7YjWmTJ6tQzXC7MumidbmrKKsymQlqChpk0EhlW/i3ctdb/1HZVFice084p/SQM5J0oBmh+syqrSxHjQCVFwlS6WXyU5PLLKIWjil7iqUcySHEZcGZJxtKFol4tc3d5sPH+5QJpqYFpL7I4IdscX37IRdmVc0DEK+RqGukPUcm840LJe8ba5un5q823hcpM31VgCBdVXnEgcHSKqur+y1cmtMLkpthwRBZbJz+KChUp9B2EOu9MpStQNLAjU/BDg7M9Ytlst4hA14Dhbgz9135lBF2iI99xtSApQyWYw0OpK4zUMcL57OY5mub57Ydut+bpXKN/VcaJPbQNzU7yT5nGHkNZX3hmHF7+B4KEsWwyOMQqQCpoIXCvd2I2e86v+q1bChg9aPVVRklxNOmKSoWNfXt5s/PnyiGLQa8rj2aeOcoOXOla5QrKOjy80lMvJf6074UVTwdpUJHotqKBeZKVbEzi2Rqi/TcYBFsePZ6W6pp2v2v9/eVke8Yx+8uyXcNXGKTH5xc0E98aCJTKVYT1jOdEZ4JRcZmvWiNEIF4hTYYBAbnkiSB1bCf+5WTPcUqtm1v7KspjHeiqQQpUxUv8HI2JRapc/Xm83HT0+b9x9vUCq/LnEPEVs+VCgqKN/Asfp4cXm1efv6dHODFXhziWJxbWh0FaCUigANVcXuwrdP0uSULmNrHpnt1loxaU+iBM6J3MZrb9+i3J9VqD8+xUIJbJU4pdXeYJLeXqCWsHSR1Mqy4ZSp5BoZp9erhpa+r5G24ykz1/BMElvKm66vz0+bj5/vkItPvPxmkKu24PBd4PnF5hIt9ynTZYtXV8zpsOyvLnkCRan8+ku54sijJJntN5C2UElVEJ2YHQ7gu297CtV8ZG4muv2MqjpLwVSoGibErAKUeVaZfv/wtPnj/WcswGcqaVUoe6OVVAp1hkI9onBXm5ubs83DW3cf0eg0pHOF7mQsTY4czGlPpog6YIRj7sWy8rhUsigAKJn74GthnIzf3DxsPqLwDnNPJEahIDsncMLT3cPWLcGrIpmLV5wJS8DIuIKwYAE3jATDgs+qZ35ac6pn8wed748PN6kz6+vm5h7Lfh/F17KfXzygPA8Mv3ygenfBMsglaTCQP+XMS+oUFBA8HeGVqFTKkE6/oKXKEnTc9O91Vd49hRLYGRfCLvulaQCrTOsQJ57DiUMb05LNv35/2Pz3rx+onOvNHx+vMeOYbkq49VEdOnF5uQab+83p7REK9bi5+Qy/h1eoKN/E0dhOOo+ZK1SRlUdV23NhNMHIQ3ydw6SV2q6DKpMWSqtlg/hVDBsv+crFWRodwnQ+QPCjhSMEaKVuevU04VSVFENFGqEz1A+xCfBDmGATTT5A0ZnMMf/4+LT5799vNr+//7R5nw7IN4N3W2SrDyScoJ8xqbq5PwL/EcvFh6rU6b1K9cC3Jm99d0nZqS+z9FI8L/OqOqlpQDqZIi0YhbmOQqZ9n9tTKJmYU2pqcEzOAy6olKotUwsdwbmpTO+pnH/9/mnzv/75BxV0vfnw6TaVUNpBj8c2O77nPAGHJoag81PMvFaJvGsexUo0Q5+VpEhKYU8znwoTiAUitgMEDkY+bxITc+Wfldp0VrYKpduiPaVQYAFXmZxHnaH4yqkVLeUr/ORFfmZtUzmcrvUlsIUxHUa5zMwnTPiTHArzIuzU4CNzzN8/bDf/+u3j5jcU6o8P15tP1/dZL3MTn4d4+EBxirW6zPwKxUITb6nsRx6hnx6vqKeLzdUVw6LzKfJpZ17mrlQ66yJyL7IZ70sMZf5W1+VrGmQMqfwC89aR9mfmplflNLRFUXAnlU7A//hwv/nw8XbzwbnALb3p4Zh5k9bF7nNO5ahQVcF58vJxHrt/cvSA8t1vfju73lyxuv3qijUjaueCyXFVyjwfGBLQspHUGzkYW4qn5ox4l0Y+SQ8+qTbWo5NxLkyXI4gzri1fuzxmOC8rDDh00sq2u5XwjLGRAqbh27mRFhMZgkoiaKr1hQFiyeJp8+v7JxTp8+Y3hrsPn/l+ECt0x8a9B2SL5aSuXITbYjFvtch3fnDB5j6ULV8vw8u51ds3LuISoc6U0TzwckUswlU/a6ykEdqw6rSgfsXJuWlW1C98lydBuWqiFsUKrkybnX4UCqW4poLe08NUqI+f7ngs9xs2VqNpoJwZQEXFQtmQ8MlFpfvUd8I3cB8/3/OUt928vTzevHv7Jk80Wikf1XuIbbl8TI8M3LR49cSl3KqNDqmiVBVL5XJrUAwccmT7CjTOqbROzqceVSjT5DUKutATbx7Fef8upi4U8WWRC5C+iutTL7OBza+/X0ehYpmY091RX/cqOf39EfNYZy2Ugt9v7xma2THKB4cPKJa16MELb15fMURipXhadi4VPSYPXeddMeIRT6iuU/VNaN+0P+9eGPJklFwnjsb7WsFmrzK5eOlHlT7yfsIyOWfym7gtFfNE7zqidz15YaW2WihKVcsMNFqsFR9h8tn3DZVUigg9w6d87ZRzMQ2Xs7GtUGOjEsWltcuWIW8TDqKUSpy+VBgfj7jq2zw5geWwrFKhYYM0WaYGTJ6BJUzdk4FBAmk5kYuHUcn68uHE+nKOmSc75kUqE6+heeo8i1JrQTcnZwy9WHbrwuISsP6o3M01Zy+cMOzesEB7d3+R5QfWYuPicet8oYhY8RcMYy2R/poalD9521WohZ9Mm3H7cl7DswgW0k379cn3FqvUyqSy1JlLDncP2GJ7vsMJdYEh8f3ZaEyGO9/X3T/cbK6xVE5I7cHOcdL4oHeeSrI4h4N2jbCKOYiGQQfeliV6KD4KpQzHPNEtS8/i2aCkKef+vD/ZdR7h0QIIFKAvk+ET7kY11aJ7qVDOOVdlAkbdbDijygeCJ60UCnWCMh0xR1KLXTlXs9wj746JOzrg5yiUH7Lu1hdZRJqphoAoUzulqZFnVFTiuziN+23+rkJJ0/XRlbLHp0TYBQbGrZ+YfAK5Z7Lpp9q+6jg+rgrCfqMcwKJUDJxPpMVC2Gh+98a8AQVynuAL3LZO3aDms7hDgnRiEEfF6TnPApapSOIBDZgKXw12xMJhngDBOaYBsyVmUtjBcadJFlO1CNdYCmN4V5labH3LdUs5P9MB8zbBuSSKdKRyH9XLbBXaL5ozjGVIdpLEAWkOhyiUh34c5WnQqUWMVvgu4hBoZV4l02I62VCZxPRaU4l8t3uuULIK/90MOts5J2E6O6Jv9U/ylR8TcCpJhfJjSLeI+Fb+Ka81avhzgll1bZHIjkrzoozB9QymmHrTuHT63dN2JUty3cJsBBEqQ1fDmtGErvIomy+Pnc2eMPtnCx6TX+wpL+1cLDwFSbw5T/dTleSDWSzRfgZNtFLOoiRMkkrlGpOWKMPuUKjqXCwEs0TwhIyOylaRb8vK6p8x53Qm5tc3foXjRB0crvqQwjoMwahDJR51MsQ2eXUDOVhttXbLveJOIcnWIiLdS25CnPAX7E7Wp7wUmsah5o/QjCcmjtsth3hxoJfDiGP+Ee/Kjqm0Y0qpYngSnM65iI/PTJ+w5Ew4GRjdrMQ0PorajSmNFO1LqxNmDxy1JqiACSQnkvgDR1l1Gh2XAs447+nq/BMPAJ9QprPN6eUrGo1hDjlPOWnsDbXDe+HNOdZCTrpqLLMwUx0IaTnD5mCz45blBOPi1l5GQ/Lq6+iROuLyuz5XSLJHi/QnNU0lYWL6hJxaT1l6eAcTBnA5/Ix6Ot2yIvp4S5Xpm67lX6WLdVes1HfnHoDAceEt5TG8H3seLywRm4e+pdTJv13BK9b5jjSTGrXR4gukMFbSBXuP3ry+rHdSZ4zrlOiJg73yxATyMdaJJogcktkW7v1RrjNfw7gjkhXhiwu27oLYK9vmM19E4+SxCFWg6Q5FrGEpcR7BSVWZtD6//LTZ/H//72set53rveKqhwatwynbfK8YXf7BguFbXm9YNvP3ZoOVa18pDKs8uMzYhRmPOo8wQyuhdvJ8RTl/efdqc8Q61H1O0/Pd3S2UPL44/+QV0CmVIG7KijIdP/Ey++EanGve5z2yXnfFbggsKq1pR+1OaJ0yTU2dlyzNpf2WZlXAyqPLU5I2Vsu9+s9TnluoXV5VCugk3U+ScViSoGIYvmD96A0vma6vt5uPZ1QMk8YHLI9PS8dYq2OGxXoKo4jQeLVCnTM5vqRWfFelYrpcoPWz+PLui+BwZkxwaeCGTz61WpvPCuYL4WOejC44NuWXdzTa6evN//OPK+ZsDNX35uQchXwJurPg7asN7/NKocwsMnjTmXfckKzhNHo1oGpR4ZqzOG9RqWAOrehXUajXTK550jvi9RRzoi0W6xEzenZ6Tn34dKxckIQGhXqkPlWop8+bSzZp/fLuEjmpsyiU9VXyRhxuUhdEBR+8RllMKbG9d5hgClcpxla3FHoFhUPRP1co0Zqm+Rkn3NHmNMDpETY8nTpvwd+yJvL5mndOrPY6fN2yUMdUAL4Oh3WIl4/kcTCxJ9mAZyjcFfOYN69d1OQdH23rS9nucVUx8hlXCyoDnfDZ7YF9ID9iqDg9oYejUH6nd3b6uHnNy9V7BHxgi3BmGgx5OZzV8iADokTps294NM+SV1eC+UaxyTT5mqAyUQfmG2tVK29wh78WhRe7vID+ibfh17wU/nzF8OYk6K52kR4RfuK0PTugquzO1SM65yl1al2/otJ8gf0O66Slu4BfDpYlR0Xoi2Bcd4uK7VfWQIr3pTQR5vQUdiFGrO93zcoGRxeyT8d9TW9en/HkcsbaCOxptCMWN49ciMMcPdADn3i680mvJqH0WOyyC5fnp/fZF/X2DW/Uo1BUEJqqsnVekTYRNRS+ZG7PTRl3kKpcnVR+9V2f3k5PVCh5q1Q0OePhI+/EjnjaVHH7tF/TnLhrScvSMTySnqwM6Ibv2lDtT7ezKJ89voSSp/ZKxVIKMdz1+ZoF3HvK+1mFYv3uCeuj4tRLYeXCtsHCLNTXk80tdUVnZY737gLLhIWyrq4wT+6Rcr9UvyqqnPfqLvJ0CkwPuq+lF1EX31hTPFeoTpkzOgQbTGRqclkotse6/YQ5yc0dHwU8MJFkk9oJVuDkxkU7nlqcsLtEwBrLURbsmGSeXOYdlFtF3r2hx749442686myUG2ASqSYOoLmTJjENvAp4CilMg2MNK1U2gk+hiJ/n6oYjGgpHwhsZvksT5/CiIaeW/acY2Wdy6jcbTHNQ6evUkexiamU6zwq3MHQ+qlK4qtQZU1esaKy5ZXJ9fUFL3vZj2Lq0R114lafeyy763OlVEdU8hkWlp0+m3eYzp+vfJugRb/Kq5c8lapQZDLLBtMvxBtTLF1JuIYrVLXR4Zf9Uqh9ngfxrd4Ud0kV0qSGrWw3fbmr4D7bPi7Yw+O2C3ojw5+bx1xvYVkuPT4Hn9qruDKZZ+70t5/PNj//5A5JNt75otMGXPLhCTDNTG498bXlo1g2EalDoFkhVBpWMjLs5jhDFwV91HbdhlFJ61QWCiQsp09Kzutc+3HItefnOucIH0yAMtmBbLiIoycpl65EsGoFFLCVvmqw4Ers/nTd3TuXD16TX32hc8mUwbcGdyzGxUJp6cn0gpfVb6iXn7BKPzPUeb15c7VOEcCJXPAszmEfKRw4lafhKna59o11uP2BssDlYVqVq/wVtxSqafb94JUQldTMjJU4LZ6oFuTCCqI1XKh09fkUhVKpLpinXLPgaSVlMg6+ipRv5piAX2Cy31yebv7GU9VP7Il6haWzEVdlKhtTBRiFiVKZs2l0zUk8IUbNy/mbT5t+lHBDA7kY6Ft8j5t2SNn6ugPF8mXrhuH4yRfZ0Kk0bre1k/g0lfOhSHMYLI2iFkaeeotLBGIXjyKFgLJO0TqTAqG+QHFIxRiRJO9X+UrnMq+v3A+lQsVGsVnDedLx5i0PLj+xZfMnrNQ7zPgr1jau2KqcDgg/20H+u26WcFWlFbMp2t+lXmOmz7zWFEOW+LALXwn3r1UEU3Z7HhaFuck5JXqNiXDrxym9+pJtFW9uTlI57uXx3Z4P8idnWLCzS3B4QqHhrlDGNzxRub3VylmVyZy0TmX+1yILF2uoj8MfIK2RVkmor294rYgi+ZrDXs87L4ZdF12jRCoSJuDRVXysVm3KqzIew0wd883+A9qnEt4h1zkNesELM/pBlMH54yoTmSpWnLKZKMBGtNQqh/AJDWKM8+bd67KIl1TAW170qky3D66YY1H5O2bSfY55fEW9vqbO3qDtTFdRdoZCfOVY6yxZLJmUfHT/BBYBB5LAwhiAP+mt/Gq1bY1PfAUeuta8SgSbrUL2QdXAHnKMtTmn+11QU69oyFsvlMmGfPL9HXinZ1gwGsjLXu+vFpxTYveUA7IpwrlN9ZrzHBrClwi1nwmQCqVV8gX1tfu0WT/8jInynHIVqg4LU1koZcZHcmPMko2vhJAq5XhggdZlj1seKhwubzlO+vLharOlbI9+TkUd5dggy4zcQ4wSMKLZxF6mWTsAzY9/k8X3sjM5oXYP2DuGYHQJZdJ/k/eJDyxoZg6FQl1QR5dUMg92+XAie6CgTf7FGo7FX1/+uvYrxl05hKplkXVJOYA8pUmaqPcqRd3bQu3kVKiF2ASzX4xXkmLVVNULfTCm+hSUisrHkmjIpcMLFdWfK3kiSnqVPqh0sqwWq24qk83Q+cjXsI3SxSEQVyoNnH/lcM7h658McczZVKZrhtpbLxTsnneM6MakTMpqjiNX5cZZ3w43Dzx1eU75E62cF9axaKyqM0SZqYuHPqVKVpQSy0FHgngjIZ1jCZMEngbMMitCz9vO6AwX5KO1LYtL34eNbyOsp1zwOSNTFbHzXvKX3yKDdTci8cTqRMIdBLq4GTYzBaGSZoSFqoe8ObHD+oeuldh0G5gZU9dXaEp4U2woLZAT7OzcyZymTf5EFOWxOZeLrLV0cWO225VGVQEu2VJVJKSzAVWZet6Ujf+8kci2ZKyjypTtIQxvPjh0D60zyrWvdgOvmu+Yn/w9WjEH5T/xMx1uyc0kXlvzCqvA2zW04YjhSHmVSjoDhr31p+5GKyEpCTr5t3iWWwvjhF/lWleuDGtxYYqGnMI8dSQNl69PVTSz9Bbf8HAkA7MUq0sYfmm9OWFFeTEkvwg+MJp/54zsggrtsN/p7Q9OEw3lQaVmHqpMKZS+glsJ+jZ45SO8XPupVEBWcq4pXTI5lmsKeKT1VsmtfHu0u0djmdwyiyL5Vv8ORXhgucJ3dUNHR2OPym1FUjIqHLukxHAkTj4Oj3lXmfkc79/Y4nLGk4UPDy6Sal0Up3l3AVMbETm33SKEZ9gHbl2qO9bFyDn+lsVMIb6E8eWVypurRAtt3+ZaqpKRAnB9ZSTmkEWvCQTP7ktp4BWHRnJu6EQhYIGVvPJr2D58xZhDpTgFKdZyrFB6Akk2j7IL7VJ0LlLGOgCol6D4IlsRVGK6YejEnJ1INkM1gNbJdSP3Zvn7Lj5Z5oNJxriaYKNMMpZMRzgyRAtoQlenh1Aq0zGLiD5onDIRfmRNaItiHsmfIfCEedXNPR+EMqS6Fdd3j2Et++ZfuYzqNS9rQ2eI/NAeO08EUrkoigoljpdKRTfIVTWIMgGrSQVpxSy4gBcXsDcK0zhBGmUL986oqSJHRyZfOLy+khyCSaGMHyKJVMXxmdjhsdxWCyIoRRp+hR1MrM7Opau2rZtjPpsSchleph7WSFbWV8qSVQ71xGiKl3MjlwOcjLuLMXuzMIs5EVieVqKywTMVbUZSUvE5lENfpeKvrJELs+A6ydOysbDoE9c91u7kwY8vVCgeLlCmc578lgk6XM1mdvJMPvqLEzZkUqGAp7iD1toqpRLQdt/QwF34VGCQJTLX9DNhBn0QZ3GKzVfu5nKYaE+hXuIziylOx9ufYOSzZleNpqK18ihGi9K+6brqeeUHAII4SU3X1QQIWa+aj0lZrqyTX5PwiI9WufMzHxzIi5bKi1Z42fA2XCodnk8MKbFMsNI3z7xqAcnJclQsAoogHx4wssHNn0jzKbXezR2hVA596t/iFFcn4xo3ZQ5gIC1lAgWYUVPMTlJRu/5MKcpgkrq64taZCZfRFE8BC8sy/O9w36BQc8azMA3f85U/gre4pPPveG8Z+E8ldWoXV7gVmPTwaIzCr2qkZUNtV7a/i+jkuJy+T5HZisx60y0K5XdtvmbJMJctx+aBQqFUTqjDjzHW+UXexclNObnyRYmKHHVCpVSuFAQIPKNQbM25g88dNXnL7gAn1W4jeVZQQKkX68ZLPhZ2ccKJ5KqEUixlB6xA5r8QtYqJK5GuGVRsvXe6jFZoQsZl8ZL7WvoenUUnj8pl5duhPT9aLYwr4T1usuGai2o9DPbVWSQFx7mOzmRv+lYgT+iFb7pXEgjSUFWZoYCHDQw8GdjkdbltOB9HskTh05tnYTpVjEzE64MJlQT8CKHt8YU1hK71qFxcKlsV0ck4ShnLUnqQhlVWcBz+nJs52ffypXdER7ZIKl4Ao2AB5oYEJgwXJMJkmpV6FW6kZ8Oc6YL6qlwGIBkQ1hlu/gHUbcrqWfpO2mHyidMIrvLNaVGoymAWpAWafcPj2hdgiic4WI22nvNLeVWarj8TxTuIO1MOng2SXiVRoUzyss1LodhPhBJ4Uu+ZyxU0sg8EDo+1Sl8E4aFictXB+KxGu7N0sVwIBmO36G7RGlf+M0eCVx1RjbKZTsYuK9TSgnmVPCmTgukstNXn2kDcSBA2xzusNnelgOprmUSjaCCFTh59STh4Lr6wdiMjPdFG9CDqnN7kO34z2QEmgkI1Z+Mdnv0RTndt+GDU8hONgkzxgbF6U5pcMrQPds31GY9OsIUIp5yOekYYinysz/lJiQt3yGOXKMOdT2MqXIY34NqpKCBM5JO8pHOinVQZq3a6Ugl1QKfFcDh84v1k/MjiZLlsu/xUrBoGXTOqS3iLG21Q7GRgSuUUOSpYgpGii/RDqWJdhUimXlp56uXCqyi8/2knD/l+za0iT5gSt/Dlsy7WAPGeIwQWZRp8DmTeBV0E22c5SOMN+qWjjrQMd6Z5jYaMOMSzv5qhJQuE1iSt4p9wT/Z1hcZjgWwsh6Y7FMqVcn82I+PWIv8QDJ7VsFqaMSQWgATzkWM1YM2rnG+Zo/xUHAW0ZblDF0XVJ74lzZV451+ZmAOL7yuBFM4C6soviVSfhgsxLN8RTAC4PlfOAjVtUSoj7YJMpDg39EW/0fcRhH+BRSt5ka2IY8gT3Ka4E/U7XGRVwhfCFpSr20WsyORtuCm4ch5ZRClF4Nrn43DhsHTkRKoddBaqLUPqVhh4WilGIMJCaXhgKcsQwCwrD0OliMMYECct5lOrJIE8vFQIq8umr4m+YfPXIonZw6+5CbMuRs6ZgwNenQS65BXpwqM4pSAmVkIQuSUT/B72FsCMMIct33/WucKCWJ3xvo8wXfD2lW8OG5eMOk/d7LFYUJdA4RttVILlmk8n6HOVFSEwKjJKJAXWJb+SIA75hycBfz3BbSlaMK/09eRPGD9ByMsfmURpaP5YLJWMyTVJblV+YB3rEatz4kvtGBon6g54KnkNk8okzRGW0l0BeUcpa5xrY+6/0lKlCMnSWwujJCUNXPIvXUANbl+ypeYSEYBrBP0ZnsT/TTfz2c2LGtLkv+BaRpNF6vgewWyVFk6NK4BwLEAnNn37wBOcNDIWRHwTkkEhp/cDsgHl2UOn2cUaAHDj3jHnI7jibubZkhIhjONatsEj2mjeLjhlaHMoRDnIN3vfVUxHQT9aBUXZ/DTMibzrXvL3mCKFUR6yL5FHVspqui+QVSp1skpjngrJRf67r0ZEMqMx9EmQ8uDDp+rF+R84S9kMayL0KodCDDhoJgVBVF2jdXyGBeFbbjKpSxv+3M3M59TOXNiMM8Nn/IRBJH1Uy1qABa+qpCp0AKkMN+hXHlY/NQiPUfVRJqZISe56UxwtgT9IfcbLNb9A9lfPa2nAVBqMy9COk49AlUeFMkx2BTPgqw6VoRRCpWDLYA1zNLZPhVqjEz4fj5VEzh7uoqPhDXtq2g5Q7zKTHVwBoF7eK8P2LSlQGeJXetEHHABJcT00Oy0QYDlDnQ4RlL6ZEJyBIHw/Luyb3MxsJXCB5vvcTqFgsROXqY1nxXQGFLRbf8lRnMYtHqP64MdcCHLT69CvUkmxbTAvw2k08lb/xHft6Zx9Vu6AvGe7SvXhquTgQ6Nv5c/SFbNSKifi1So2+fhogbZVmUqhZMDOTvBOVCjtPPk6cZdOvsrXGbjY6TWBkKvioENCLJZKDOMlbzAaMfBxKyJRgylVnj4tFP9WsyiSPqvzWD0SgjG8ylbgdzhzWl1ZqJcY7uKuVDtwifsSpcI1se0H6xLflCYtRRJbqK5Vq1RK+kfGh6wdMU/xgDOHDq86Ja8VTivhLkoae8xd3PHo+zxPeNuyUu5jdk2wIU6llxRWuE4J+jJ3h7m80kFhhIuXuQ/DnsoSOVRezI7K5LZnNwmiU9nlcM8XLD4UuHQhg5xrzi5Ut/r6zk9e4QkvJTHPlDpioUzI2EpVwyDYJfLqQ6ds5UzUkuPXOB+wXJqs8MY9QGUbqY20MtxBfzki4S5RKdTLFM9TOvOkyExFeO5XU6zknW37XTNzvLgURyfifsNf3/j7wz80EN3eVemPn7ebT59ueIfGtlzMkl8c//zzm827d1gMSnRJF71nC+1ncPwOL0pUqkAQBcvTWslm43a+1n4PSXliI6EtoMUuJSmlUkFPeW/nt4R9Gq9zdk/v9YysG667Oz50RT4/InjL9l53Y17ymZm7U1WooQJpdGVKnZkhsvZk33y9otD4cQBaZn0RxCmuhhQ8gODtt0VRD6IwKNzQzHHBg8/AWLyRy4RQiC8r1CFGO7BWpBLPnFoW/TbaJVERluKJueJWzHv1SS1A8XG44QmL+A09vY9ZZgPB5r3ndnIUtBbI7/w8ve347GpzxSnCzmf8gNIPI/yc/IT3edk9wJiY1XCziqtJt0GHCDurlw2nDHhx+j2EuPqQp0esgGtV2Ynqh6B8IOA2XC2Up8b8wWfl799/4Du7G4beLYrOkTvv+OT9Ldt74eHnYR5t7cY8lWpVrORGhjDKqyCtVcnk4n3LpGBVR4ZKvjY2Yi12Scs8YZZiNRc5EDa6w0yOuBlWkAOouxzN97BCdZ6DUbwJ1kJWnvO9+0L5psy4jjZOkjPqeEtL0RD4fuzpMONDuA2qM0u2M204KZAT8TjtzWMWOZzr9z8+5PJrX3N6+5bv0q7eYgle87UMjYslcPg7Y+f+w7nnULo25aRVieDuEOoaFZNw97enCcjMdtRC4SXziAi6csRSRfAHFKcm4ucMdX7YqkLlyQ5Ct828//g5B9a+f/+Rs7LuN28/PGzevr/Z/PLzu83ffvGbQ79ffOJjDPaFw8O99OaRfPGVUjXLwWLkLzyXMpqUW/lWoYqsMzy7HvLSBsiu0olSaN7NaQAr05W8kNb4CDVVJyzKOwDPFWqf0X48Qqxq0nLMFklYzZ6YS1AKGzKvJRiyXL/J6xJgWV+iFnLmAfML9xypTOhQlE4ZP7NR7j1zkl//uNv8+ivnUP72x+a339/nciLux5d+mvX23Q3Dnt+18Yk2MtvA5zzteULu9ohWRm7XpB5ZWc+LZeVymElF+1ECf9DFQuEbjhJBif6MsJN8T4zDwrCbzm8J84kVCpx5FQV3U59HQv7rtw+bf/36nqH5dvPq9XbzGoX6xPmjtw9/3/zEN3ivX/NBrJf5kKn5qhd4KbvW0PLlHM1IV5ZM5WnFccK9KFMrFfSz63axxWo+hpDQVZdvTHP9dhcZX0B/rlAz4k4+pToKtoZKxyURVmk0GiHnNvmyhFrJR5XOf4B5lmYUihbwySi/pkDre7bUEds/tBAu6Vj5n5grfeAA2PfvbzfvUajf/2Co++Nzfkrj40eHMKwQX9j6I3ieOHyKRdo+vqWhfbZjaMECYAs4ixJT7Je4vlJhKNkyIcvwpaKrCficmQMFGfOv8YJr4CdRfBoTWL4vZF53lq95+BYOzTUPHef658Da3/642fymBeVo6A+cMWoZ7skzX9o8fcp55G/fM9/ji9+fmPPVxZMp2Tu3Uokz2qH4j55ag3X1DYHK4PKFndChNudxMQ46ybfzOOHPYqryI083nb7xFWJ4xhjx1tJCFvhFt/IttM7PWlxdQ1fICHUu7StS6/jss8BHS/l23oOyPK7Pz6YeaMD6sNI0Fcrep0LRfrRU5hLMQdyclsaku/7zt9vNP//5HgXix30+eTi9ykWYQ+qv+Qr5hh/8cYg8Y3vuI6eVnJ19iKweB/TLT6/ynZ8/+XHK6XRsqqQRsFLIVgrkpjvKwnaVJy4GMMIgZUZOeahcS+q9nlaRk7rxJ85OsUyXflipMjHU0QfitEy/e5rv77+j+MjN8dAep/3ZyTmfYvlxhD9TosK9faM1fcPR0ZdYV55IqRMn6x7MkSZA7/3KxrOh8vEpctWQ67xS5eEkdx5r/ZmOzMUsiuVRKfhX1naWo7hWd294QysuQZW4BBjRSlxR5vgL4V2FWpBKjCWazCrLgrXEVfFi26PzCTpD1B27JPORYo5GbKXSUmmlVCbo6HGuRvuTq7nckI1CebTzIz3v1z8eNv/rXxwE/zuN8plJLcPe7Q3HJd6yxsS+ow3nIRzTW49QKPcl3W/5aQ8a1c11vhj2IAq/THZB8YSPCbQwLh8c2auFofB+yJBzDrSpWK8n8vayRTLFotynNNQZdH62dIkVZYmr5j+cK8B3qlE+V8t9WPj8+SMy3MBXJZUPB4FkGD9HoU5RLKAcqmm4fhVL+Vnnwsy8ct2MoTMqY4+LhdJK2fuQnUouS+X80I7JthnOjnDoPWcR128EVZkz6rUtla1ULcW9LdBoS1tzqBBYusKs8PPoAv9KgKqdlWcK7/FvPm2Z2hcuFXWVhrzhXPIbDsbwJy88CTjH5NDAVgB1hDK5P2lVqFoQxIxrnZhIb2lw6geF2m7++esdPf6Wo258HIfu0cVEVq4x+ad85XgSheQUtzNagwp78Gxv+CuL9ZOPSPXRPy2VFtGwX/+eoU13KHgpVXUIFVnlbMVy4PToVn74jM8Ln4ZCHUehtCguE6CXNKyTcSznzSeUhaUCKuSYRD8fO8PycSTY6GwMfyx13PGxwxGn0h1z2szJOcfzgJcPKbBipyo9VtM1ihx9RN1FoaJUUVPKQFmB359tsVKUmbnc1uO6UUctlSdQRX8oO/9VGcIS9qYy2YLVdivctN2YkD/jhkIh9MJH9Wi3AAeg4+2XQFagClOnAJdCeT55nVGuItnIKpFKwdMLfq1G++juezeyp8IetWCwdgp9fU+v5hcC/PTphl56k8PAeL1BpbkSfuaVfdye7/TAEx4TXM5EyBICSuMTm3ydQB/7SK9vI2NlePCj4T0dBiuF8CqF022acFEmlepkWKYL/AsEvETZTk45m+mcM6aYr1kLGssoKjV55iSdxabXLA/4cegRinJ0c4r1OkORHGZZ5qBD3G/5nZaHcyboHHnE3mF/58VPX1QCV+I9HjETaOrNnwsh+9SPMO1QzUHhR8/JnBSeInmWRE3UCVNwy2xrKmfdq21VpkrptCBMt6KYAN8cLIVS4oOu4RajnHrd4jSMMlNhrhVhmbRQuRwGsDZUSrbFptDueHSTGrU2iPW08Dp0cgPJhvamcni8fvMLPZe1HHq9PfvJXki6L39VqlecrfSG+cxPnK/091+ONv/g0s/SAdaurXyUiTErcw8aecsM2HlLlEklRqkcrlUoHwh62PNsAxXJT76jTJ4chwA5nigrZCgosroS/o6lCz+GOD69QrY7lgYeOX/cJz7XpR43H7af6QBlXS8488hfljplAqaF1tkptaw2pW8Fjq0vn0K7bSlE/sgfaTOsuhdMebRKvnI6PmHHqQ84kPqsIrNVqWw3Oegql1KshiXh375RHzC3VXXJrSMNKBFMVKB9J7ZDmesv+dS7509OylEyK0oce06WCaxAAcL1cY1jhaqc9kAPoviJM6L4AmDzwEkkjzc3KBRAev4bzuB8Q4P5Sws/c1rL334+2vzX31Gov6lgHNRBA+e9G7xtLi8l12plfsQwoRI7PfHqT6zMW0T1XaJ8a4evQjn3fuJwVOdHWro8cRVaGv0nFzc5/vkSq/man7J6x08a/HbJz4zwGzZnT9ccuHadenK4P2fh6TUFvNJawpvuUd/mIUu5CmiNVahcsU42PmqA8DV9AI9C+eBwxLyqFIo5KZ0J3Up5IVuc/CjFiA9FTPqEtGB/PSDVqLIF2Q6GG0lJnZkbbovUfjGxyKKrDH3ofSzTOAMqcyaHNnpbrJKLiGnRopO2C6ufODAnz5pre88xLXzHwa9XJ8xLzq9ZDrjk8inuIk9yP7875ugfrAOLOb7acMGQ5OWgDft4laB8ouXITHiGF/OmG6vcaUbjg0gvQ2aoGMJo2TMOSdMadL+WxnxcnPQ4ds8aeM1E+R0/eP0z517+jV+V/IUTwv7BMPiRlXMvz/h8hbJ5jOErlPvCD0mhi7zKlhFjdMDkXTetkYLmRTDzSDuoZ3FqXV2h97xyPhZkPur8DXmAjwaeuCj5KODimyxsz5HdQTehTsGgloU6SCWwM95FMB8VKRc16oRS6+QCo76Wye0jzkt4jJmuSSlbEvzmZS4qlOsqWXdhon7n0c+nLJWf36A8nNr27hRrdLH5r3+cbf72UynUa1eqySZPclXn6Yuz9LGGUwXZVy0enTkWwOi+a/RamKU0KNJJOsUO52ggo2+GPkbfzSPKffuGdTQU/SOn8f2d86l///lk89//+n3zT55ctwydl5yneYkWXjqxZl7mBxWqqXKpTyovKlFWhgpa/lIQ0rGSYvhbMM7X/P7+kTladlu4TgYIo1Xfx4LXZZFGvoGEF5DkJbxSDS0EiXz77bBCha8iTAow8hAa4bgpj2EVwg1ktQfJCTg9B6EzRKJQ+fEbCi5uLvjrz/KnUwZImh2N26V2G6tz8jfWaujhP7/jkC2U6u+/HDPMcfAWac6XPFtKka2XlinxkcVgu1jEznrBAaHDps1O2qxZpTRtlwo/VpQMlT02Cyby0cLlB4/8pU2E8gnxCnPI98WEz3jQsNNQLjrMqRN8VvLzcBIuI3d4Wn89R0rBwttMonaLRCkzjcAqGz/Lhm7B36Gc/6rnwTKyEdaPxHknaawgAXuz0N/pJosI07Rqc9rNxNh+PgsGCb5V97VGtsamhGKXeU1vW5Cbf5JTloW3PYrHZRdCnUx6YOspv29/df4zluERZXrF5Zv7swxzlz7+UwJx5aH45qqCG7fadYbrZqBcYASbruHxZTJc1q7gGjxgK13BYjlUKifSJJouucPpkXO5WE6WD3h5XSe11KsiSphOpwV3qSL5SJ8MHILhzJUPIqzPlmGxkIDITRxVx3p3TNjSBs5FnSOGRyRa5Qp7SXFlBStcUneqPDvc6d/ml0IttAZktrpO6ix2Uklc01kc1PRaQC5tm5VTl2F7W/GNx61pExjAvGdDqfxlKIcxn4bOmIdcMon1cHetkifc5dQ20m3EVhy5y9Ons+I5csAboRJg4BlZ+lDyF7IElrC2taHyKbstLi4NKowGzWy+8opyIZ/l9yUwUx4sF8f/8GTn+lydTjcWKLtiksuQFMK8e6RK4xAgr6pQqHzRTL6lTPhozxMdDnVCkXhWjTaZYcmyX3b57cK6dPq7Kcl7vn0lebJQM9XLYfnl4tbtFqVB+nVjWAnYhrkb3IZI/Se5GkkbVm1SFeN4V1/vkkKreAreW5YGfHqzYTw1N5ZrNFaXr2VScoec9E4qNy5I8KMx5l6ZF8Nkrh/X/sK0ApbPIc2SWwbvg2Dxc7CGvLQgELSiqlha0TZfbk/+dH3KDy2iKZw39MTJfvc+sqUzgiytGSKSOY2qGrmaZhkqW7104iDDL4qkBnpRQV90crdEB1wY78EPIu7hEP2KQlmcw5yEzpdKk14JUF9K37ZZ+FRLKgygjbbWki0Vl94GTnCloUVMcu3Gpzef5Dx3E/0K3DTQnl22pHAr2veKaagIEShpTQWS8kUYZVLZlZf0yGc64dF6XSapFwTxFx6CJfQa2k5I/DwsAPJrGF/X+JziL5zW4mqWUwcd/CSvSoufBWBAJVPJU51Cpan8nD1pIY2XPJWvZIeddO3msNJGgGIwgo15yG/qqpeXFMqKCUajFaspu1gBocKsbM8Q8POlUx71twBc00nP70YF08oqKwbRyCMrwqlFRaNiggQefg2hfh5ei3Vpa9DE1AqJani0udDw4BZ6V7qDp5ADVuUSDxePW+fZ8UoFPnBCX6pYSYO+GAw8+YiPz389lDBYCgt9eTybUJ5SMv2Ut+V2yGxZJKJgPrV1XfVkPDIkn1Ikh2S3QefUF9thTBfq49QhcYtsnfBXHanS1rtIQ1iBU3DFWUPNcoW8pFBizC1BVN6dXfsNs8wWoi7eMxF3wlRjvD1Hk962oSxPrBcpcs7QE+5UELQ1R3BO5n5NTzTh5a6vEoipnzsF7VLZEOmlIuCIZ/SZkZcKGoE0HuG0ujRcNtSOayL9IJTfeEkecGAZahEyr5eccPuUq+Cg2PF0VFWUyrmeClXWRbm9HFyrhlMP0Iih0zIllEoA1+nB6IR2HvnWvvXxMDDyC3GKNZTJci+tmdRxmwlm+PPwfi2VxC8q1JcZd6qWwXAsFLfsycG3oqIwqWCFIbthRoqW3mShpA+T0RBQpe6tONKtWH86w4pKI5hXX9CSFLZl5rtBrGiLN7mRd1XiBI/0c1y6knDlMcFEDWtvfQlcXWel39Zp8QeaOeSBw6UEXgW5DcVjGq0zleTJ954JD2kGU+misGKyYs9W1wlmbQAAE1JJREFUhDz9Wt/WvQeDeDC/W1rcvBELKE3yLXmrXgMYKaO8DfoGv/gdRjwwh4rYO9gzZM7esFcUigLE1NLixtPr0pNASAMXdu5WkP/46b2pPqvTIc9eaM+FD6SnrVAjvijUyFfc6tlVYTZI8kseEEXCrgLjc5jo4kzDBWXgLHJXUpVj5NN87BidR7Mwb6HxUA0CCxUB4TnNFwU44weL3IKSLRbME+pwfR8mVClKC26yCEfBdj6VToVi/QrStkxni4LSuVGqaoeFEFZKoWubV+FkEri3kn2J7gWaQ4ONN4XhAwoFNFiN1qRFODMUw8uekF5BxaSCKJg9yYcOK0icFAHioi/THfp0XytJPHpadiP6opMhFMb5mTMqrfNqP1Klwa18rROceXSuHGYpg1lw8zKptLgTBIywfhD20qZck2cni9sXwbAx3mHkAea+r3aiOJRl1wMK5S9I5Otj3n3eRlGst5qoh11pJWyIwdpOZ8VaX8dc9SNHrnOxJZlLa5e1L9BVKJ2e6lnWqepeSIeCtHMbhDuwZL8DGSWF0yg6/mGFGoXYod6LdJaiOhk840Wnjf/AthCvUijWRqwEexV/ZdIFQES3K12qMEjVc1Gkc/j4xco5innFFy1WkJbJPL3iZEMvrc+ioBUhRcNLTS6YAasH/JvNglbW0PxrUYCUchNpAHPcAtOQixLLT6cZSbgBAxag+GPhAXItiu8cfVGcH1IKKd8QsiLpGlJZKZXROnGZQAFSQPLQAvOg4kW6Q53Dpr9TWDs4ncuCDboUUipRD3V2WmG7Lhi7oL3YVKqk7Mcb/bBCdeoLfgtpcoqK5K61bHmsf6Cm3LNdzu0rVhyFohF8q+9OAv+qmBZ0oFI5+WATJfJHGC/41kgFde3JdafkA6q+bZcNaDasZtCKj5KaGIzGxDen9aG67CUCDyuV7OEnWcKDsjICNtLCKDexaDHyS9NEuUYjRTCRFFA8fS8VyjJUOVQoLXo6WfaJufuBumFelPzQel/3RJGUC+FaNnn5VOdOUIdNlSj1ZZ1xGbeDtzIVnTLIRzlnuQJN2pduRb1i7MfXlJcsVDCarItivMPFomOUDU7cqAQ30D0+1j4flxJKoawsV4WrF2qpMsRBkkdbS48T/4oXc6/YXO1Q4O+fZCuv7U+6l6haGXtyfQzZcpIgholRqrVKncOUAlV12ry2s5SiV0BgkbZyJU9JgQ8RE66bFsemLYuhFZaZjVZu+A7DBmWCIiqBChXrTPiR7wdtZg8zszwO8/e8w3QXaNuYWClwZCJ7DXANdfyMLT+BohXXSmU7MJ1a/slOFrioPoCCKUxdi1g72CFZbuLM7lBcvs3rRQsVwmDtspiJm0nMq4WgJWKB2KrrZjYXJd1Hnv1GaNY92zH9EZ58SkXlq0xuVanPiKgIaF5dolBUkp8n+c2bypo2IjPzjq5Q8SpkDT3d67rYwRKTKys0CSvrzkWyOuB62dCF+CkLaeZjw6lIXtLq6yIDaQJ93UJ3ISxAkEplWLXFl9B4LGjUKXzsf+53j/QpoLsNGN45F/0OjXBLULapmAcpWYEnpCXWAjnXdFSIQtEB3SfvUKfl8wlSCXTlK4Q5Ga+w8XSCDPeNLcXqxJzd1+LiHlSofcKVqSlr5oYaom8D+HTh7/n6xOcWXUckL+cH9/6goPMrzTtzAC2S5zvpOwnX97NyK0pzbgNa104bkpEVRR5eKmN2wqUxBILjbWiH7WcVzk9YNrFy2vm1nH6dw4cleTtfL1RRcph3B1GZES+P4Gc2InFETFatXAqT3RQRUhFAMhc9Lx0y2pAuDChDWapSUEYo0vzzgcS5kNuF+UDVh7jUXSmCVMWSuvIXHNxDRT1dsqfKL5GzTodQymfVNL6K3UpUYGtAZbJTVt6p5HAvOu9ize5LcdO6qAcVamZkWOSZ4RzvsL4FsZf4lj1zAlo1hgTiLUPhHfvCH/zig5JYIH9s0Mm3Smiv8uqMbMg0GrRWrLcausikNAqgbkiWhjTqpJb8ibuhL6mQ6IcNvnvI3ZDmLtP6UmYolZvURoP4MtfGZhqXX4q68iOKjO0ll/zMMldqyKoE4BCY3MAw2mF8G7Ya13nQNEm3A8HbId69ZZ4co0Jp3f1CqFnIzvxUeOsu8lHX6OAki3mOrOMr6a5SBkIb2EbZLBg5pfr33UGFCn8bZEcQY7rK3XvFG5LEpQf3LsgYDJIU3l605XMnnXAbzV6WX6UaDRl80tLTgsmNzGxo0IfrnI2aWDIlMY/oIOsDLktVyoS+RJk+8knWh09sgOObuc9+4+cpLSiZQ3M9VflpV1nKVzTYO34Z/R3vE/2xa4dn9cocvchp8ZNnhGjVbTnxtQiDLihQ1V/Vo0VwG7mzLL/62eZ7Q9pAVhMb8VIX1geCuBnRutKRtLgKF2EpsekdJwyjWPnU3Uy5sPiuwHOFmnivwVWQUqtK6fQur3GtlAXWtTJV2KWFgiXOTbxUkDReJuhgaFw2+jXMiGyauXWOBHVGRRQBvyaxgAXhTLZd3NjmL1T9xocD//z1lo9I/Rjzhi9+/fhgWDMtB8p4gqa76vyGrZj/9ctrOoQbBbEKWBGdI23EMRxAyVsxISNzc8e6RlnpQXkIAea8y0FQvMaUjdZHhc2HEgquG36P7hIsxR3VUohrrsZLgYq4lanx/KZRi7/mrhR9Nda3+C2ktBiIL5OI1ASFqWAtYtMWK2IDPYU1kfgu9aBYCEZ8Dxx6CBc06z2MvDXH9iUW06saqAnFUJHQoSjTRyyS17/+UKE+8YUvCsU3TNd8Q5ivhyHMKXZUtj8i7Sku13zQWVbrKhbB309+5EnKIdmG13Xuhh3KSkahLaO+w05LtNKoVKYs1reZNe/BIlHDBAIa/q7VI71QuIvVeQ4mJhY1fiuTnMPdxH/DlXBfUaiXBFGsYrAvQYvWlB3fxzsUb9z0xEZoRokbGVfDu6umZpvDgpWtsB5Qxlfhm9/4VPzX94+bf/2OMn3gJJfrLd//sf+bz7NUqP5W0KGL2V3Wgo557P+Nz995PmXO8ob5Cpv8OOQim+bQnW7QHqpVYKWIJC2OChpdb4DCiymeja5S1ZwqwC5b+wI7jL902CDXrTlXbFYkCZt4IvhLgsV3zvsrCmWuh4RR4OpvL8nVmTyj7oQXCF9OHpz2GRoP0UopqC/nRv5e3ifmTb+9v+cjgQ8MeTd8K8eXvoyB7oPP18a+nEU7sl0EBfAJcuvBr+x4OH5iIxxmzon51eUvmfe50p3HvlEOFYspWF5Ym3f0R8FsfflFvNyaAl9MnfWpgkn17W7mNlMVvHnPKYb3qTqu3+F9mkqZOXbrr+OVtDx5PidtyEy+H66Mi+muEDOmnHZTi3fjHErr3OM3YgP34+Eul74asZpKdBvZhXuf6j6zQ/IPTkX59Ll+/1hFeszhB3xAytOUSwkMZugA1YKVekBL7jgB5TO/5LnhwIsPn9g9+pmDzS6v2PRXNsacF7EIGHZ+Ug6GmfMR2zErYs2UzQGlUjPj2h/Rb/SKqvm138T7PDvefuMd9sXa5diWsFOsvS+6mbzDnbnxDg8mgGZIUyxZjMQZZ0l7zm1OGiWZOcpljq/oM9RwDrNAJ1So9ygU343yGTg6wskFR3xnxzfjsU7syMZGACOeuQ3KwFdhOQWFkxo2H/kc6uPnV5yecskku7qTdmWnPESysIli1PMDlS7CDtIqa4WU0quR8FOIjs/4wkY63nOM5hUGM+Fe+DnlHsLBaFHNeXQ+Nb3/ikLJswlm/sK+LtA+xiFOK9c9njNywg1of6U8JIuNiX3I4mUtYpaVyu/ouWLPU5vrVPapJxUK3GwZJuwZAfY914GOeCXCDCiqpmJ6PNF8wIZSWM4McTsFHgoF4zJYJs6y74VjmWbYxGwGL7m1FVSCdiLuIHfCF/zOp/0voL6YtOb5DQollyZovzM33uERbBTJZjehzeAKHyASv8HO0hNugFQjHL6GdzNQoRzuVKblYrXwgaXx7dYThcH38yVZ4bIjIibFIYsZzWBvmhYmuyfJ05+JrZ8762UGMcqJ1/yElIUaiRFxTh3weINwyjPrEh1vMhlGO/VN7ISZ16HwjNdh/Tl8iO7LsKLeleMbFUrGEs6uGbU/pz0P71OvGKbMqYippDPbORzCfZqZfuKs2RlJVXgBvlQWDsRVQ1+Z4Nde93qTn4VLk7FQvi5xbc0dpoaLRn/wLsYReQRJGGmNE+uDRRkKm/QgN8XEpGnNoJMD63j74VJyzHgDfNhrxNk33PGVSojiP09pHFO9dt2fUKgmbCYvZLUHbuym3vVbqMJqexEWzcckw0tjNI2cii7+1GNDOqH1KyHfD3qxUsBePN9loUz51MrPLmsFPDgsCsW6geeeo96vnXd8xH0iM49c5JM50hCn4V2WgdXYYuEgUr6FUJiUOhnqT/HgCmsn4BmwE1/wm99L/nOyxnyesg9ZZTk0EO9jT3EJZ9cF24fPOH8mXHyaayi7VPoqTcdToQMzylS0S27g1VDF0z2lrDfxvnyuNaHV2miharO/lqmsERYJRrFO5BMYN9eSvFSsHt4WfxatRY1lci4F4xGuAsAA7hW2QF7t9uPAGzT7jf5NfvOf/W9gtlela1Zzwhw+tFJueue7cBC4S/gtPWSfYmGXQPNsX2A9Oc14EcXbwozAokANbB769bQRJUArfN2T45+zHeaCvVYc4srakr8Dky9ss92WRz73I/mHcnlyXI5tZP+Wu0KPWTXPRwC+kHXfEVoVxUIuRcvVMg6RygvHxnheZSUu6fuuE2Z/D8f8dJVRhQ/eW7BOjLQj0kw6DX+f3xw/gL5SlqzfMeTJoohXZn9NqGR3qWxX8qhZg5YCGuiIvvMjkQpRhXK7ia9PLlmQvI1CudeKwyqy06D3Zbl+QMOjpLzBYyh0zQnCTK9YXmcNymc83+zn7b5KhSnT6rWdad+cvSLWGKITX8pTMVHipmiVuctjguHyJ7QBC/U33JqPqLtcnsdB6exf4twivZQO/DsVqjm2BPvCfl225lB+r7euytScTS/uQrjaOi0IA57aUKnEr9cYaWiI3RajYr1mI9rPP71h9LkGm/d0nLTnr296kp1bbp1TscEGpZID292g8+TfN6+PNz9zaMdPby/4gvkVC5tsIJwUSvn6UozoEresR7FAWlOlKkWXJoLmVla5iiNO10WF6y6i1q6xhHqtXkXm+0q54K5Szoh/LqwII+tDhN+hUM2xfdmuYUN/znUFFpemb19eK/eJ845iidGXSlUKZbljqbid8xHF6ysOAeMnMtxZ4CuZI47R8T2fh3r6BYmLlTkwFdAJq+UeufOKdyzvXp9wwBlHL3KU0Ft+tyVHLmKl5D9fKrCudpPChHxr92bB15ZYW6Sl1tftW+eClzIZllKczleaXde8m2NRrHmL3TjtA2r0XWaHYy3IgdTvUKgDXAJarctLGIfgh8ohbIZ3uIo/pxJO9x+wbB6yWbvKq+qc7/juzZe6HL3K6jh73tlIdMHprZ/YD/U5lqoWMn3l4uX5lxfsVXnHUS9//+k0lyfmeQKMG+EyhyInZcrVQhKPQ66Sl3uWJ4BGVuIhGHh4eyVKQrErRC1Ts19JDRWrBJZYY3bqfryxi75j3+fPvIvDc4U6mM8h4CHYnxdLLs/F+hKfOd8ODz/M5OZFBE+Qw5PnJL7jpOAL5lLnHGx5ef4Gi8WvNPD7MZ94JeOpe3csgdcvebIXCsQ3nPH5E6fR/Y1fPPiFoxffclKep+U5l/KJUKfXVwABCjHzQuoPGJ5brD9T9uJVeczhJdcp0OmjHqaUknYH8G9EOh9ZVLjO1TNf3ZxekJeAE1yiurw3K4Lf6KonV9FXATrUfuVR1qdymStLrHG1FTCZyyFPUIY+dl/6awUqmGdiOpy9Jv7pmtcyHjLLT3j4UyEq1QVnZL59xSl5WDWV6h2XX+DwpRIDajlHXXmbc25DpLZNlVBpzqt6DlTUdQ/tDBjhXbgxmVc2xnbTk7R3O4TRsPYnkgZVNlPCgeDoKGuKxHWxQJwp5Jq2E2rus985N2LH22/4t/ia8uYtvlVefIQ2x4IKadw5LJ1O7KaoTWuWLEtApDSFMyyOZMqR1/76gUdfu7fcDxZ8d9dWxX3uDpMeGe0BZ1f4KqJDXefSObYP6zUjw0FUiHH52mTRQBEKffb3w8bLdc3ItiSoe6fPvqVtN4dnijncuHu+pAfRmqf+jIRkX1YoM2hiwy+5g7m+hLwHX/lX6DmvgjRe+7Lp8Exj+DCF2CpU2nffJzHc2h9cbP9ZkfZzAu1wnZvQTsYzYcOHn3z3YF+LfoHdRHqI87dRTkxeCB7m/Q0K9QK//0PBqQZuq4+NXOpmDlvAmtzXz4f8H1rg/7DYzyfl/2EB/tPZpX96U4uGP08JdodgpUOpskTxV/Xs/3SJ/7P5/Y+zUHP1vjR9nOG9jtT+TP8j/LwG/kcr1PPqmCA9DP4wTFOlfD34P27I+3qVDIwfivTNVTUj9pLKDPsR/lED310DPxTqu6vuB+GhGvihUIdq5Qfsu2vgh0J9d9X9IDxUAz8U6lCt/IB9dw38X/+UN68p7dfSj7Wl/Rr59+P/P+PTmb+lsDi+AAAAAElFTkSuQmCC;" parent="1" vertex="1">
          <mxGeometry x="690" y="472.5" width="35.34" height="32" as="geometry" />
        </mxCell>
        <mxCell id="Iwh2j_EmFfEqPvJCqRrq-35" value="" style="shape=image;verticalLabelPosition=bottom;labelBackgroundColor=default;verticalAlign=top;aspect=fixed;imageAspect=0;image=data:image/png,iVBORw0KGgoAAAANSUhEUgAAAJQAAACGCAYAAAA7IqNEAAAKq2lDQ1BJQ0MgUHJvZmlsZQAASImVlwdQk9kWgO//p4eElhCKlNCbIJ0AUkJooUsHGyEJEEoIgaBiwcLiCqwoIiKgCLoqouCqFFkrolhYFFSwL8iioqyLBVFReT8wBHffvPfmnZkz58vJOeeee+femfMDQJbniEQpsDwAqcJMcYi3Oz0qOoaOGwYwoABlMB/IcrgZImZwsD9AZNb+XT70AmjK3jabqvXv//9XUeDxM7gAQMEIx/EyuKkIn0L0JVckzgQAtQ/x667IFE1xO8JUMdIgwvemOGGGR6Y4bprRYDomLISFMBUAPInDEScAQKIjfnoWNwGpQ3JD2ELIEwgRFiHskpqaxkP4OMJGSAziI03VZ8R9VyfhbzXjpDU5nAQpz+xlWvAeggxRCmfV/3kc/1tSUySzaxggSkoU+4QgVhE5s3vJaX5SFsYFBs2ygDcdP82JEp/wWeZmsGJmmcfx8JPmpgT6z3K8wIstrZPJDptlfoZn6CyL00Kka8WLWcxZ5ojn1pUkh0v9iXy2tH52YljkLGcJIgJnOSM51G8uhiX1iyUh0v75Qm/3uXW9pHtPzfhuvwK2NDczMcxHunfOXP98IXOuZkaUtDce38NzLiZcGi/KdJeuJUoJlsbzU7yl/oysUGluJnIh53KDpWeYxPENnmXAAmkgBVExoAN/5JcHAJn8lZlTG2GliVaJBQmJmXQm8sL4dLaQaz6fbmVhZQvA1HuduQ7vaNPvEKJdn/NtGARg4R+Tk5Nn5nz+yKVsRM6E+HbOZ7QaAHIXAFdzuBJx1oxv+i1hABHIASpQBZpAFxgBM2AF7IATcAOewBcEgTAQDZYBLkgEqUjnK8AasAHkgQKwDewE5aAK7AeHwTFwAjSDM+AiuAJugFvgLngI+sEQeAVGwQcwAUEQDiJDFEgV0oL0IVPICmJALpAn5A+FQNFQLJQACSEJtAbaBBVAxVA5VA3VQr9Ap6GL0DWoG7oPDUDD0FvoM4yCSTAV1oAN4AUwA2bCfnAYvBROgNPhbDgX3gqXwTXwUbgJvgjfgO/C/fAreAwFUDIoGkobZYZioFioIFQMKh4lRq1D5aNKUTWoelQrqgN1G9WPGkF9QmPRFDQdbYZ2Qvugw9FcdDp6HboQXY4+jG5Ct6NvowfQo+hvGDJGHWOKccSwMVGYBMwKTB6mFHMQ04i5jLmLGcJ8wGKxNKwh1h7rg43GJmFXYwuxe7AN2AvYbuwgdgyHw6niTHHOuCAcB5eJy8Ptxh3Fncf14IZwH/EyeC28Fd4LH4MX4jfiS/FH8OfwPfjn+AmCPEGf4EgIIvAIqwhFhAOEVsJNwhBhgqhANCQ6E8OIScQNxDJiPfEy8RHxnYyMjI6Mg8wiGYHMepkymeMyV2UGZD6RFEkmJBZpCUlC2ko6RLpAuk96RyaTDchu5BhyJnkruZZ8ifyE/FGWImsuy5blyebIVsg2yfbIvpYjyOnLMeWWyWXLlcqdlLspNyJPkDeQZ8lz5NfJV8iflu+TH1OgKFgqBCmkKhQqHFG4pvBCEadooOipyFPMVdyveElxkIKi6FJYFC5lE+UA5TJliIqlGlLZ1CRqAfUYtYs6qqSoZKMUobRSqULprFI/DUUzoLFpKbQi2glaL+2zsoYyU5mvvEW5XrlHeVxlnoqbCl8lX6VB5a7KZ1W6qqdqsup21WbVx2poNRO1RWor1PaqXVYbmUed5zSPOy9/3ol5D9RhdRP1EPXV6vvVO9XHNDQ1vDVEGrs1LmmMaNI03TSTNEs0z2kOa1G0XLQEWiVa57Ve0pXoTHoKvYzeTh/VVtf20ZZoV2t3aU/oGOqE62zUadB5rEvUZejG65botumO6mnpBeit0avTe6BP0GfoJ+rv0u/QHzcwNIg02GzQbPDCUMWQbZhtWGf4yIhs5GqUblRjdMcYa8wwTjbeY3zLBDaxNUk0qTC5aQqb2pkKTPeYds/HzHeYL5xfM7/PjGTGNMsyqzMbMKeZ+5tvNG82f71Ab0HMgu0LOhZ8s7C1SLE4YPHQUtHS13KjZavlWysTK65VhdUda7K1l3WOdYv1GxtTG77NXpt7thTbANvNtm22X+3s7cR29XbD9nr2sfaV9n0MKiOYUci46oBxcHfIcTjj8MnRzjHT8YTjX05mTslOR5xeLDRcyF94YOGgs44zx7naud+F7hLrss+l31XbleNa4/rUTdeN53bQ7TnTmJnEPMp87W7hLnZvdB9nObLWsi54oDy8PfI9ujwVPcM9yz2feOl4JXjVeY1623qv9r7gg/Hx89nu08fWYHPZtexRX3vftb7tfiS/UL9yv6f+Jv5i/9YAOMA3YEfAo0D9QGFgcxAIYgftCHocbBicHvzrIuyi4EUVi56FWIasCekIpYQuDz0S+iHMPawo7GG4UbgkvC1CLmJJRG3EeKRHZHFkf9SCqLVRN6LVogXRLTG4mIiYgzFjiz0X71w8tMR2Sd6S3qWGS1cuvbZMbVnKsrPL5ZZzlp+MxcRGxh6J/cIJ4tRwxuLYcZVxo1wWdxf3Fc+NV8Ib5jvzi/nP453ji+NfJDgn7EgYTnRNLE0cEbAE5YI3ST5JVUnjyUHJh5InUyJTGlLxqbGpp4WKwmRhe5pm2sq0bpGpKE/Un+6YvjN9VOwnPpgBZSzNaMmkIoNRp8RI8oNkIMslqyLr44qIFSdXKqwUruxcZbJqy6rn2V7ZP69Gr+aublujvWbDmoG1zLXV66B1cevacnRzcnOG1nuvP7yBuCF5w28bLTYWb3y/KXJTa65G7vrcwR+8f6jLk80T5/Vtdtpc9SP6R8GPXVust+ze8i2fl3+9wKKgtOBLIbfw+k+WP5X9NLk1fmtXkV3R3m3YbcJtvdtdtx8uVijOLh7cEbCjqYRekl/yfufynddKbUqrdhF3SXb1l/mXtezW271t95fyxPK7Fe4VDZXqlVsqx/fw9vTsddtbX6VRVVD1eZ9g371q7+qmGoOa0v3Y/Vn7nx2IONDxM+Pn2oNqBwsOfj0kPNR/OORwe619be0R9SNFdXCdpG746JKjt455HGupN6uvbqA1FBwHxyXHX/4S+0vvCb8TbScZJ+tP6Z+qbKQ05jdBTauaRpsTm/tbolu6T/uebmt1am381fzXQ2e0z1ScVTpbdI54Lvfc5Pns82MXRBdGLiZcHGxb3vbwUtSlO+2L2rsu+12+esXryqUOZsf5q85Xz1xzvHb6OuN68w27G02dtp2Nv9n+1thl19V00/5myy2HW63dC7vP9bj2XLztcfvKHfadG3cD73b3hvfe61vS13+Pd+/F/ZT7bx5kPZh4uP4R5lH+Y/nHpU/Un9T8bvx7Q79d/9kBj4HOp6FPHw5yB1/9kfHHl6HcZ+Rnpc+1nte+sHpxZthr+NbLxS+HXoleTYzk/anwZ+Vro9en/nL7q3M0anTojfjN5NvCd6rvDr23ed82Fjz25EPqh4nx/I+qHw9/Ynzq+Bz5+fnEii+4L2Vfjb+2fvP79mgydXJSxBFzpkcBFKJwfDwAbw8hc0I0AJRbyPyweGaenhZo5htgmsB/4pmZe1rsAKhHzNRYxLoAwHFEDREmIzo1EoW5AdjaWqqzs+/0nD4lWOSLZZ/NFPXQ0kngHzIzw3/X9z8tmKo6nf43+y8G9wY6F7oCEgAAAJZlWElmTU0AKgAAAAgABQESAAMAAAABAAEAAAEaAAUAAAABAAAASgEbAAUAAAABAAAAUgEoAAMAAAABAAIAAIdpAAQAAAABAAAAWgAAAAAAAACQAAAAAQAAAJAAAAABAAOShgAHAAAAEgAAAISgAgAEAAAAAQAAAJSgAwAEAAAAAQAAAIYAAAAAQVNDSUkAAABTY3JlZW5zaG90WCZ/mgAAAAlwSFlzAAAWJQAAFiUBSVIk8AAAAttpVFh0WE1MOmNvbS5hZG9iZS54bXAAAAAAADx4OnhtcG1ldGEgeG1sbnM6eD0iYWRvYmU6bnM6bWV0YS8iIHg6eG1wdGs9IlhNUCBDb3JlIDYuMC4wIj4KICAgPHJkZjpSREYgeG1sbnM6cmRmPSJodHRwOi8vd3d3LnczLm9yZy8xOTk5LzAyLzIyLXJkZi1zeW50YXgtbnMjIj4KICAgICAgPHJkZjpEZXNjcmlwdGlvbiByZGY6YWJvdXQ9IiIKICAgICAgICAgICAgeG1sbnM6ZXhpZj0iaHR0cDovL25zLmFkb2JlLmNvbS9leGlmLzEuMC8iCiAgICAgICAgICAgIHhtbG5zOnRpZmY9Imh0dHA6Ly9ucy5hZG9iZS5jb20vdGlmZi8xLjAvIj4KICAgICAgICAgPGV4aWY6VXNlckNvbW1lbnQ+U2NyZWVuc2hvdDwvZXhpZjpVc2VyQ29tbWVudD4KICAgICAgICAgPGV4aWY6UGl4ZWxYRGltZW5zaW9uPjE0ODwvZXhpZjpQaXhlbFhEaW1lbnNpb24+CiAgICAgICAgIDxleGlmOlBpeGVsWURpbWVuc2lvbj4xMzQ8L2V4aWY6UGl4ZWxZRGltZW5zaW9uPgogICAgICAgICA8dGlmZjpSZXNvbHV0aW9uVW5pdD4yPC90aWZmOlJlc29sdXRpb25Vbml0PgogICAgICAgICA8dGlmZjpYUmVzb2x1dGlvbj4xNDQvMTwvdGlmZjpYUmVzb2x1dGlvbj4KICAgICAgICAgPHRpZmY6WVJlc29sdXRpb24+MTQ0LzE8L3RpZmY6WVJlc29sdXRpb24+CiAgICAgICAgIDx0aWZmOk9yaWVudGF0aW9uPjE8L3RpZmY6T3JpZW50YXRpb24+CiAgICAgIDwvcmRmOkRlc2NyaXB0aW9uPgogICA8L3JkZjpSREY+CjwveDp4bXBtZXRhPgoeWEm5AABAAElEQVR4Ae292XYkOa6m65qlmDKzqva5Ohfn/d+sV+3KISaNLp3v+0GY0V2uiMio7FqrewclM5IgAIIkCNJoNPrRE27zw/2ogb+oBo7/Ij4/2PyogdTAD4X6oQh/aQ38UKi/tDp/MPuhUD904C+tgR8K9ZdW5w9mPxTqhw78pTXwQ6H+0ur8weyHQv3Qgb+0Bk43m5fWNV+Cm//RJMQcnsB/Ojjn12F5f4m/eI1rhh22nxRdQ+bUbw2L1xK0L6zdy5LNuTa2/ssUM9afCZvTv8d1lnUOV20eLdwP5DKjj2QUSjenvBQuzBJfHDl4dbjTv8eXR+f7RKjjKsYxuRwoTHAed+hWHoZOIojvAeT2ONh32PgW8gcC28ftRrzHJ/I6JjeyS+m4nXCdcTuDXcP0lUxehuOSkZDJLYnCjEwUO2kTzZ8Idm7tLywbcIjXgmRiI3adPyeotugWmIhX0rVokA8LNafOGe2Hjct0Zfw0hU39Hie3kqAVxFjLdLyEDNjYqxOnaYQ2nUgnS0zFUYEa+0FF2j5t7h42m9u7W/x70h83j4+nm+OTi83x8TEXSgObc5Tp6hxKMla5jgkKf+Lif3Xyf3xcYUncR5ooFEY3QEan1CQ9vz3HmtkktQEz8Uw2h4Ojysx1WPW0kpcyFdkkrAgCvdqRfEChGqN9seewTO2fDf1KNTTpi2jdO0Ts65GQYQtTvvnFLdEVd6VrWCmT+LuWCEUC5X5b1+39w+bm9n5ze3+72WJhtijE8cnp5kSN4f8EJbo4fcKKHcHnaXNGsYWdYq1ODVc1bI6SLTdwVrlL3Gf33R5Roo+6kc0XqqlYTbjJdtCE1tvs5ngQRuISNrBeJXvhCNUdjbYuyRbClUykCTyGPKVsFmK0m2ET1cyhUQ/5M/mh9B1YI+vP10Dq5IVmv+pXmkbVV6HaGqE/m7thme62WxTpbnNzd4eFuhsKRbUd32OMqBbYaxsvUB5GxM0T1/nJA0p1tDl3/DtneAxOVXXdWyZz7vAicMFeShpoX0memX05LKN99wXmh5SpyE3pIW+fIfUCz7mPUHN2s87dSjC8H29GpvdVocZsjMXfTyA+Z7zgJbAiV+iAZRLPxKWdWg7l12R3OQyXXRMdo7N5UJHuGN7unzY3948o0MPmnmHuFkXSOmXIg/kjlmhzdIKcqtJ5LM/25D7DnFlcnD5szjFNph0z/h0PjUq5uB0dYxkZOlPL5D0JW+FF9iQuyco5F82wbgfdSCckdfe2g7ubtMt8J62Z6s8c5oxm+A5xIvup1RXDTCbNSLSOd7hJ9deroeHet2bT8faFPyPYRe7kdW7WkGaCv/AxzWtVpqfYFeOggef8Sct0c4syMWm6vr0jjkJtuR71txnqZNmSSFcXcyJwro9ggmZuz7xK4U4yNEJE9hkhI6YdoRXctAAJdHiOF7jzNNbhxjLe4WAn8gyaJG/Jrpks0L1Ak7efHJYIyHO4aXekaOBBv4a88JDIy4jXd7qvkXb6Ujmdz07CqMivFaRlLh4qU8leE/maPzH5xjLd3qIYN7ebzzc3UaIHxjGf7raYHudHakUkgOURkyLnU08oGyFYPjDseaFQWybuWKIzlOsUa6WV4uEwVZcGxcopxyL50soLpKp5SKrk5uvVGJFjxGc4oGeuaZ4l7AO+yOhLXOa0OTwy2AOdpiSmLRnOGIa7eINBPOGN1/6c/mfDnUf7M/2X+JclUsaaA5SvdcuSAJbp/n5cD1ss05bhT0WqeQFjFJjYFB7pjnysOzojY/vYqVBUjVSUSaWKpUO3jnnMuydyz6Piw/Y4E3Ts12KXoj/QLdWZokxlGEHTu7T7fmPv8gijnZt4X8NZMtmhnCOd2wzrcEtm/ABeC9Do+GWhGrBIJ+YB7Gfi72Uy5988X/KXvF4iahlg8BJKeA/LMtBUJtG1TvdOwFGoOx7t7hj3MtShCCqAj/0qlMOVtyMe2Y6OzomcQe+wZg3A68knxuNSUAiPM6lHqeDp06IrCubn1a6UqmOTb164Gbcgu3fTB+qU8CyXKe0Q/k7ybqQzyNrHOuVuucy7wi1F+7tsDsV2FeoZxsyopRBphg+iluYZj5cAErxE9AX+sxjhIK5KVH+dWz3d1RNerBJW5VHLFPqiScOPCZDKU3wq78yh5A/+EYgqlUMjBm48NT5uzrWA8Dwfi1IZ+SAPjYIUqyrmCHeJD/mNLunsyp42hSnVbbyXa39EX/Jk0ahLuAGVVDz73txXnIW1oBZpSn6uUEtGTTphN2jHf0awk/rliLTztY/9tbwLvziIW9bJeJ7uaHytyIMTai6V7Cmmx4VL8BMuWKoQxXCLvQohvcsFuict2fFpLJt8tHwOeVq+i+0R/GtNSnbm3b60KUFulSbsJRfalxIDF2PXFeuJUsBQ8KXBZ5IJNeARjzUGEPKhdVWbQ/iZxxzu5OGzbLe6TlsEWQAdOIj9ck29gF4Ec+Iqw2iCFfASGnDrbXai9qXyMKfGmjiRVqFYFjDRyooi+S5lYkBaFCk+SpXFzOKOOoF7Aj0TdZC0UnfwPOe6355kOIwSwS5ZVC4Hw3JsnH2/ctu/izVfc3pxKOtquMszhWftbtJO3vOlnkErvyYc/nPEBWHHQjWzJfUZYEkhYKKuC1Gx5d7JC+BLgReQ9zXmAAspD10OTyrRdiwLGG88J9wOYypU57wqE/wAeiUxOOLx5Kg8wF0ofcA6PWCatioUyMekNUmL2TUjvN0cbtif91/iIrxznbkegDVq+zP6nw1P7HcU6hmfCbFq94WCiJekiWAK7vIF8cW0XcysLHaWnceg/ZquSfaYoY6FAZa5vZYvxnxXMhQqORJtJRInyncggyiZlk6+KiqX7/+yIDoeOBVvv3gtunnN4eT9lZvlaJqV79oRRsVPXPYpjLdbOTRk8ZtsAXxjIO+dxIU3/19WqIWnufW1AHcDyhrZvyC0FF9J3mVqbCpp07b/HHkH4s6BrAZQaPUneS8VIGoxqimocYc2lxLwDQoi4LpUlc35VQo59LGeEn33F/0Mft2W7AbMeFEW3y7V7E/kLwSLS/N5AWnkNOc4Ywr/q9wsSZXkL1KorpZZ0D3B96Iz5hfD+/VCvIvR/iH6NHD0g8bWhy6KsYdcymQmdUWZgjsQo2C+rCbfnQxVIhWWC3yvxTXeDCPRaCctuFNgD31KMahVek7dkOe0nRLSvYzBfk5QOIfge5IkKl6yGPlYwQBeVqiFsQTzFXaHb0smnTyY7PDqtG/1yTvCHsafJZvDWidXsk/ZGnDiijbv3o7yri6rUJQI7PpHUdxN4FV5mJ3BReyRdc+7fNd3guk7Ye1KC3gy5vfizzS+1tNF/JHQamG08qjha6YL0c6tsQWu4SEusA4NLo3SvukjaWX7DFBJJdSK9mJInlz2sqFMZnJYoXbyMof5OpRDE8jc9I7v4xZcbruOVsG9RNVVv0tTsZdo3FpySunOz3lNcmfjY0l4OitlQQIqov5qa0oUSgVweJQ1N+UsyQwJrzR5q0ynaBO6mm0s4oUO1GVUNZust0tP6mCsNyDxiT5zpuvoBgOnQgXvVEsQpgO34YmOW8NWvDk1YVG+kPwMfwaEbmXwXKF2GIu4f83c9sM7xEmUul2Hyxe3+mtRVdUUVIrG7nDF5wpcU57n6zB3dspOS1rcS2v1wCT6iKez/C0KZU7IAXst1GxNwt+EKMU2inOCObo4O811zpsa90apTK1QiyTyysrVMFMtbLRN5ah8BVfY0G6pO77wVM5gFcRylGu/eO3DdrkObikX4ZX5wrmTBvMveObrtTLxpdWa3wofTJpg9kfSM28lFttMyi/EmYMCL2lpQRsks5dCJnXmtlZc8S2kEjxPZWAfsU40OxtYS3JGo5+xd+n8/oQ1o+3mmG0s0mzd4KQaMDRKu8jknEnWxR44CpFri1K6e/Ns8+rqYvP66mxzdeFmu1KOyEuhmnQ1U0q1lLaCQc7NxGdOxW6K8ONmeYQ1vMLFIzikHDFs+1q85AeaMRfMaMjIJsNUMZJHpJdBRQbSt3gS6NqvWFmokqsgy92eJfL+tSBMgVWixjZxDne8ufZ8RbgVIK5OTipXNdOYDCe1t9datbqybj7Cu0aUd3GhLl7ydG6jBTlnq6VD3x1K5XzKFfAjrkeHNxCdE0n6NOK2XstjwJy8zmF2dYlCXZ7jH23wMuTF6EQicHcIjfSlzLhON9+CLKDGtP1TPyCIE2UayAvOzAos860uzFbl8AUQ5KYQKBPj404mT+ycsK723Yq5nzLHi1dxKyY7Q97Kt4Ww+VsFGjYz7LBpVZyCVFjKdp114mRkIRrWvvipPPyCycfVaZUG67I0gpLayMWnwlIIqXunOXdSma6eLjLxVvnysvjBVya+9NXXBlKxZh7CsImMJ1T4+fE5OzdPUKRSKBXpnJrTOmkFLUv2mhcZ9/16Mz4YL623yruQjYByyG8UJ9Cqj66XfQplUEHNQ5yqmwi2MKm0IBBUAX0NtYhThDt5BvfgraWZiUpgjPghIU3cJ9rn3AJqZG2J2T+shs3xkN/c5lysIKuGhWnEIUTX28dLhZDecP1uPqWywS/GprgnNi49sb335A6J2YXAdvLNlrALk/WODwIYZE1TRvB1jeni/Hzz+mKzeY0ivWKYuzwHdlZfwlTJqyNAUUSpO4g1NavJIg2mEVjmtT0GjDhl1hkPTDkCKX+IMyBf9qJOEEfBdjRml6E8F7cTWaBfCLR0uyixULu8RGzk/XATF0X1g2p0K6SpxDIsTNPtuy+VIqacFGGmV/0y7qMome8Im1zlYpNVg0uz9L6qLpql0roM4hj2Muz6kMOeCnOBRXpke4qJ2jw/UrhlB+fHayRl64rmP2ZqaAkGiAnY0+bdq5PNm1dHm1co0QXkTsaVN2jgiLa6lJpoSVv+mhpslyigElPiGVMYrwhzMZqj7KO+QDIflylc+3I49woMuDzaRY9JqamDUianToZoYLfg7TcG8Zlfg5/7YjWmTJ6tQzXC7MumidbmrKKsymQlqChpk0EhlW/i3ctdb/1HZVFice084p/SQM5J0oBmh+syqrSxHjQCVFwlS6WXyU5PLLKIWjil7iqUcySHEZcGZJxtKFol4tc3d5sPH+5QJpqYFpL7I4IdscX37IRdmVc0DEK+RqGukPUcm840LJe8ba5un5q823hcpM31VgCBdVXnEgcHSKqur+y1cmtMLkpthwRBZbJz+KChUp9B2EOu9MpStQNLAjU/BDg7M9Ytlst4hA14Dhbgz9135lBF2iI99xtSApQyWYw0OpK4zUMcL57OY5mub57Ydut+bpXKN/VcaJPbQNzU7yT5nGHkNZX3hmHF7+B4KEsWwyOMQqQCpoIXCvd2I2e86v+q1bChg9aPVVRklxNOmKSoWNfXt5s/PnyiGLQa8rj2aeOcoOXOla5QrKOjy80lMvJf6074UVTwdpUJHotqKBeZKVbEzi2Rqi/TcYBFsePZ6W6pp2v2v9/eVke8Yx+8uyXcNXGKTH5xc0E98aCJTKVYT1jOdEZ4JRcZmvWiNEIF4hTYYBAbnkiSB1bCf+5WTPcUqtm1v7KspjHeiqQQpUxUv8HI2JRapc/Xm83HT0+b9x9vUCq/LnEPEVs+VCgqKN/Asfp4cXm1efv6dHODFXhziWJxbWh0FaCUigANVcXuwrdP0uSULmNrHpnt1loxaU+iBM6J3MZrb9+i3J9VqD8+xUIJbJU4pdXeYJLeXqCWsHSR1Mqy4ZSp5BoZp9erhpa+r5G24ykz1/BMElvKm66vz0+bj5/vkItPvPxmkKu24PBd4PnF5hIt9ynTZYtXV8zpsOyvLnkCRan8+ku54sijJJntN5C2UElVEJ2YHQ7gu297CtV8ZG4muv2MqjpLwVSoGibErAKUeVaZfv/wtPnj/WcswGcqaVUoe6OVVAp1hkI9onBXm5ubs83DW3cf0eg0pHOF7mQsTY4czGlPpog6YIRj7sWy8rhUsigAKJn74GthnIzf3DxsPqLwDnNPJEahIDsncMLT3cPWLcGrIpmLV5wJS8DIuIKwYAE3jATDgs+qZ35ac6pn8wed748PN6kz6+vm5h7Lfh/F17KfXzygPA8Mv3ygenfBMsglaTCQP+XMS+oUFBA8HeGVqFTKkE6/oKXKEnTc9O91Vd49hRLYGRfCLvulaQCrTOsQJ57DiUMb05LNv35/2Pz3rx+onOvNHx+vMeOYbkq49VEdOnF5uQab+83p7REK9bi5+Qy/h1eoKN/E0dhOOo+ZK1SRlUdV23NhNMHIQ3ydw6SV2q6DKpMWSqtlg/hVDBsv+crFWRodwnQ+QPCjhSMEaKVuevU04VSVFENFGqEz1A+xCfBDmGATTT5A0ZnMMf/4+LT5799vNr+//7R5nw7IN4N3W2SrDyScoJ8xqbq5PwL/EcvFh6rU6b1K9cC3Jm99d0nZqS+z9FI8L/OqOqlpQDqZIi0YhbmOQqZ9n9tTKJmYU2pqcEzOAy6olKotUwsdwbmpTO+pnH/9/mnzv/75BxV0vfnw6TaVUNpBj8c2O77nPAGHJoag81PMvFaJvGsexUo0Q5+VpEhKYU8znwoTiAUitgMEDkY+bxITc+Wfldp0VrYKpduiPaVQYAFXmZxHnaH4yqkVLeUr/ORFfmZtUzmcrvUlsIUxHUa5zMwnTPiTHArzIuzU4CNzzN8/bDf/+u3j5jcU6o8P15tP1/dZL3MTn4d4+EBxirW6zPwKxUITb6nsRx6hnx6vqKeLzdUVw6LzKfJpZ17mrlQ66yJyL7IZ70sMZf5W1+VrGmQMqfwC89aR9mfmplflNLRFUXAnlU7A//hwv/nw8XbzwbnALb3p4Zh5k9bF7nNO5ahQVcF58vJxHrt/cvSA8t1vfju73lyxuv3qijUjaueCyXFVyjwfGBLQspHUGzkYW4qn5ox4l0Y+SQ8+qTbWo5NxLkyXI4gzri1fuzxmOC8rDDh00sq2u5XwjLGRAqbh27mRFhMZgkoiaKr1hQFiyeJp8+v7JxTp8+Y3hrsPn/l+ECt0x8a9B2SL5aSuXITbYjFvtch3fnDB5j6ULV8vw8u51ds3LuISoc6U0TzwckUswlU/a6ykEdqw6rSgfsXJuWlW1C98lydBuWqiFsUKrkybnX4UCqW4poLe08NUqI+f7ngs9xs2VqNpoJwZQEXFQtmQ8MlFpfvUd8I3cB8/3/OUt928vTzevHv7Jk80Wikf1XuIbbl8TI8M3LR49cSl3KqNDqmiVBVL5XJrUAwccmT7CjTOqbROzqceVSjT5DUKutATbx7Fef8upi4U8WWRC5C+iutTL7OBza+/X0ehYpmY091RX/cqOf39EfNYZy2Ugt9v7xma2THKB4cPKJa16MELb15fMURipXhadi4VPSYPXeddMeIRT6iuU/VNaN+0P+9eGPJklFwnjsb7WsFmrzK5eOlHlT7yfsIyOWfym7gtFfNE7zqidz15YaW2WihKVcsMNFqsFR9h8tn3DZVUigg9w6d87ZRzMQ2Xs7GtUGOjEsWltcuWIW8TDqKUSpy+VBgfj7jq2zw5geWwrFKhYYM0WaYGTJ6BJUzdk4FBAmk5kYuHUcn68uHE+nKOmSc75kUqE6+heeo8i1JrQTcnZwy9WHbrwuISsP6o3M01Zy+cMOzesEB7d3+R5QfWYuPicet8oYhY8RcMYy2R/poalD9521WohZ9Mm3H7cl7DswgW0k379cn3FqvUyqSy1JlLDncP2GJ7vsMJdYEh8f3ZaEyGO9/X3T/cbK6xVE5I7cHOcdL4oHeeSrI4h4N2jbCKOYiGQQfeliV6KD4KpQzHPNEtS8/i2aCkKef+vD/ZdR7h0QIIFKAvk+ET7kY11aJ7qVDOOVdlAkbdbDijygeCJ60UCnWCMh0xR1KLXTlXs9wj746JOzrg5yiUH7Lu1hdZRJqphoAoUzulqZFnVFTiuziN+23+rkJJ0/XRlbLHp0TYBQbGrZ+YfAK5Z7Lpp9q+6jg+rgrCfqMcwKJUDJxPpMVC2Gh+98a8AQVynuAL3LZO3aDms7hDgnRiEEfF6TnPApapSOIBDZgKXw12xMJhngDBOaYBsyVmUtjBcadJFlO1CNdYCmN4V5labH3LdUs5P9MB8zbBuSSKdKRyH9XLbBXaL5ozjGVIdpLEAWkOhyiUh34c5WnQqUWMVvgu4hBoZV4l02I62VCZxPRaU4l8t3uuULIK/90MOts5J2E6O6Jv9U/ylR8TcCpJhfJjSLeI+Fb+Ka81avhzgll1bZHIjkrzoozB9QymmHrTuHT63dN2JUty3cJsBBEqQ1fDmtGErvIomy+Pnc2eMPtnCx6TX+wpL+1cLDwFSbw5T/dTleSDWSzRfgZNtFLOoiRMkkrlGpOWKMPuUKjqXCwEs0TwhIyOylaRb8vK6p8x53Qm5tc3foXjRB0crvqQwjoMwahDJR51MsQ2eXUDOVhttXbLveJOIcnWIiLdS25CnPAX7E7Wp7wUmsah5o/QjCcmjtsth3hxoJfDiGP+Ee/Kjqm0Y0qpYngSnM65iI/PTJ+w5Ew4GRjdrMQ0PorajSmNFO1LqxNmDxy1JqiACSQnkvgDR1l1Gh2XAs447+nq/BMPAJ9QprPN6eUrGo1hDjlPOWnsDbXDe+HNOdZCTrpqLLMwUx0IaTnD5mCz45blBOPi1l5GQ/Lq6+iROuLyuz5XSLJHi/QnNU0lYWL6hJxaT1l6eAcTBnA5/Ix6Ot2yIvp4S5Xpm67lX6WLdVes1HfnHoDAceEt5TG8H3seLywRm4e+pdTJv13BK9b5jjSTGrXR4gukMFbSBXuP3ry+rHdSZ4zrlOiJg73yxATyMdaJJogcktkW7v1RrjNfw7gjkhXhiwu27oLYK9vmM19E4+SxCFWg6Q5FrGEpcR7BSVWZtD6//LTZ/H//72set53rveKqhwatwynbfK8YXf7BguFbXm9YNvP3ZoOVa18pDKs8uMzYhRmPOo8wQyuhdvJ8RTl/efdqc8Q61H1O0/Pd3S2UPL44/+QV0CmVIG7KijIdP/Ey++EanGve5z2yXnfFbggsKq1pR+1OaJ0yTU2dlyzNpf2WZlXAyqPLU5I2Vsu9+s9TnluoXV5VCugk3U+ScViSoGIYvmD96A0vma6vt5uPZ1QMk8YHLI9PS8dYq2OGxXoKo4jQeLVCnTM5vqRWfFelYrpcoPWz+PLui+BwZkxwaeCGTz61WpvPCuYL4WOejC44NuWXdzTa6evN//OPK+ZsDNX35uQchXwJurPg7asN7/NKocwsMnjTmXfckKzhNHo1oGpR4ZqzOG9RqWAOrehXUajXTK550jvi9RRzoi0W6xEzenZ6Tn34dKxckIQGhXqkPlWop8+bSzZp/fLuEjmpsyiU9VXyRhxuUhdEBR+8RllMKbG9d5hgClcpxla3FHoFhUPRP1co0Zqm+Rkn3NHmNMDpETY8nTpvwd+yJvL5mndOrPY6fN2yUMdUAL4Oh3WIl4/kcTCxJ9mAZyjcFfOYN69d1OQdH23rS9nucVUx8hlXCyoDnfDZ7YF9ID9iqDg9oYejUH6nd3b6uHnNy9V7BHxgi3BmGgx5OZzV8iADokTps294NM+SV1eC+UaxyTT5mqAyUQfmG2tVK29wh78WhRe7vID+ibfh17wU/nzF8OYk6K52kR4RfuK0PTugquzO1SM65yl1al2/otJ8gf0O66Slu4BfDpYlR0Xoi2Bcd4uK7VfWQIr3pTQR5vQUdiFGrO93zcoGRxeyT8d9TW9en/HkcsbaCOxptCMWN49ciMMcPdADn3i680mvJqH0WOyyC5fnp/fZF/X2DW/Uo1BUEJqqsnVekTYRNRS+ZG7PTRl3kKpcnVR+9V2f3k5PVCh5q1Q0OePhI+/EjnjaVHH7tF/TnLhrScvSMTySnqwM6Ibv2lDtT7ezKJ89voSSp/ZKxVIKMdz1+ZoF3HvK+1mFYv3uCeuj4tRLYeXCtsHCLNTXk80tdUVnZY737gLLhIWyrq4wT+6Rcr9UvyqqnPfqLvJ0CkwPuq+lF1EX31hTPFeoTpkzOgQbTGRqclkotse6/YQ5yc0dHwU8MJFkk9oJVuDkxkU7nlqcsLtEwBrLURbsmGSeXOYdlFtF3r2hx749442686myUG2ASqSYOoLmTJjENvAp4CilMg2MNK1U2gk+hiJ/n6oYjGgpHwhsZvksT5/CiIaeW/acY2Wdy6jcbTHNQ6evUkexiamU6zwq3MHQ+qlK4qtQZU1esaKy5ZXJ9fUFL3vZj2Lq0R114lafeyy763OlVEdU8hkWlp0+m3eYzp+vfJugRb/Kq5c8lapQZDLLBtMvxBtTLF1JuIYrVLXR4Zf9Uqh9ngfxrd4Ud0kV0qSGrWw3fbmr4D7bPi7Yw+O2C3ojw5+bx1xvYVkuPT4Hn9qruDKZZ+70t5/PNj//5A5JNt75otMGXPLhCTDNTG498bXlo1g2EalDoFkhVBpWMjLs5jhDFwV91HbdhlFJ61QWCiQsp09Kzutc+3HItefnOucIH0yAMtmBbLiIoycpl65EsGoFFLCVvmqw4Ers/nTd3TuXD16TX32hc8mUwbcGdyzGxUJp6cn0gpfVb6iXn7BKPzPUeb15c7VOEcCJXPAszmEfKRw4lafhKna59o11uP2BssDlYVqVq/wVtxSqafb94JUQldTMjJU4LZ6oFuTCCqI1XKh09fkUhVKpLpinXLPgaSVlMg6+ipRv5piAX2Cy31yebv7GU9VP7Il6haWzEVdlKhtTBRiFiVKZs2l0zUk8IUbNy/mbT5t+lHBDA7kY6Ft8j5t2SNn6ugPF8mXrhuH4yRfZ0Kk0bre1k/g0lfOhSHMYLI2iFkaeeotLBGIXjyKFgLJO0TqTAqG+QHFIxRiRJO9X+UrnMq+v3A+lQsVGsVnDedLx5i0PLj+xZfMnrNQ7zPgr1jau2KqcDgg/20H+u26WcFWlFbMp2t+lXmOmz7zWFEOW+LALXwn3r1UEU3Z7HhaFuck5JXqNiXDrxym9+pJtFW9uTlI57uXx3Z4P8idnWLCzS3B4QqHhrlDGNzxRub3VylmVyZy0TmX+1yILF2uoj8MfIK2RVkmor294rYgi+ZrDXs87L4ZdF12jRCoSJuDRVXysVm3KqzIew0wd883+A9qnEt4h1zkNesELM/pBlMH54yoTmSpWnLKZKMBGtNQqh/AJDWKM8+bd67KIl1TAW170qky3D66YY1H5O2bSfY55fEW9vqbO3qDtTFdRdoZCfOVY6yxZLJmUfHT/BBYBB5LAwhiAP+mt/Gq1bY1PfAUeuta8SgSbrUL2QdXAHnKMtTmn+11QU69oyFsvlMmGfPL9HXinZ1gwGsjLXu+vFpxTYveUA7IpwrlN9ZrzHBrClwi1nwmQCqVV8gX1tfu0WT/8jInynHIVqg4LU1koZcZHcmPMko2vhJAq5XhggdZlj1seKhwubzlO+vLharOlbI9+TkUd5dggy4zcQ4wSMKLZxF6mWTsAzY9/k8X3sjM5oXYP2DuGYHQJZdJ/k/eJDyxoZg6FQl1QR5dUMg92+XAie6CgTf7FGo7FX1/+uvYrxl05hKplkXVJOYA8pUmaqPcqRd3bQu3kVKiF2ASzX4xXkmLVVNULfTCm+hSUisrHkmjIpcMLFdWfK3kiSnqVPqh0sqwWq24qk83Q+cjXsI3SxSEQVyoNnH/lcM7h658McczZVKZrhtpbLxTsnneM6MakTMpqjiNX5cZZ3w43Dzx1eU75E62cF9axaKyqM0SZqYuHPqVKVpQSy0FHgngjIZ1jCZMEngbMMitCz9vO6AwX5KO1LYtL34eNbyOsp1zwOSNTFbHzXvKX3yKDdTci8cTqRMIdBLq4GTYzBaGSZoSFqoe8ObHD+oeuldh0G5gZU9dXaEp4U2woLZAT7OzcyZymTf5EFOWxOZeLrLV0cWO225VGVQEu2VJVJKSzAVWZet6Ujf+8kci2ZKyjypTtIQxvPjh0D60zyrWvdgOvmu+Yn/w9WjEH5T/xMx1uyc0kXlvzCqvA2zW04YjhSHmVSjoDhr31p+5GKyEpCTr5t3iWWwvjhF/lWleuDGtxYYqGnMI8dSQNl69PVTSz9Bbf8HAkA7MUq0sYfmm9OWFFeTEkvwg+MJp/54zsggrtsN/p7Q9OEw3lQaVmHqpMKZS+glsJ+jZ45SO8XPupVEBWcq4pXTI5lmsKeKT1VsmtfHu0u0djmdwyiyL5Vv8ORXhgucJ3dUNHR2OPym1FUjIqHLukxHAkTj4Oj3lXmfkc79/Y4nLGk4UPDy6Sal0Up3l3AVMbETm33SKEZ9gHbl2qO9bFyDn+lsVMIb6E8eWVypurRAtt3+ZaqpKRAnB9ZSTmkEWvCQTP7ktp4BWHRnJu6EQhYIGVvPJr2D58xZhDpTgFKdZyrFB6Akk2j7IL7VJ0LlLGOgCol6D4IlsRVGK6YejEnJ1INkM1gNbJdSP3Zvn7Lj5Z5oNJxriaYKNMMpZMRzgyRAtoQlenh1Aq0zGLiD5onDIRfmRNaItiHsmfIfCEedXNPR+EMqS6Fdd3j2Et++ZfuYzqNS9rQ2eI/NAeO08EUrkoigoljpdKRTfIVTWIMgGrSQVpxSy4gBcXsDcK0zhBGmUL986oqSJHRyZfOLy+khyCSaGMHyKJVMXxmdjhsdxWCyIoRRp+hR1MrM7Opau2rZtjPpsSchleph7WSFbWV8qSVQ71xGiKl3MjlwOcjLuLMXuzMIs5EVieVqKywTMVbUZSUvE5lENfpeKvrJELs+A6ydOysbDoE9c91u7kwY8vVCgeLlCmc578lgk6XM1mdvJMPvqLEzZkUqGAp7iD1toqpRLQdt/QwF34VGCQJTLX9DNhBn0QZ3GKzVfu5nKYaE+hXuIziylOx9ufYOSzZleNpqK18ihGi9K+6brqeeUHAII4SU3X1QQIWa+aj0lZrqyTX5PwiI9WufMzHxzIi5bKi1Z42fA2XCodnk8MKbFMsNI3z7xqAcnJclQsAoogHx4wssHNn0jzKbXezR2hVA596t/iFFcn4xo3ZQ5gIC1lAgWYUVPMTlJRu/5MKcpgkrq64taZCZfRFE8BC8sy/O9w36BQc8azMA3f85U/gre4pPPveG8Z+E8ldWoXV7gVmPTwaIzCr2qkZUNtV7a/i+jkuJy+T5HZisx60y0K5XdtvmbJMJctx+aBQqFUTqjDjzHW+UXexclNObnyRYmKHHVCpVSuFAQIPKNQbM25g88dNXnL7gAn1W4jeVZQQKkX68ZLPhZ2ccKJ5KqEUixlB6xA5r8QtYqJK5GuGVRsvXe6jFZoQsZl8ZL7WvoenUUnj8pl5duhPT9aLYwr4T1usuGai2o9DPbVWSQFx7mOzmRv+lYgT+iFb7pXEgjSUFWZoYCHDQw8GdjkdbltOB9HskTh05tnYTpVjEzE64MJlQT8CKHt8YU1hK71qFxcKlsV0ck4ShnLUnqQhlVWcBz+nJs52ffypXdER7ZIKl4Ao2AB5oYEJgwXJMJkmpV6FW6kZ8Oc6YL6qlwGIBkQ1hlu/gHUbcrqWfpO2mHyidMIrvLNaVGoymAWpAWafcPj2hdgiic4WI22nvNLeVWarj8TxTuIO1MOng2SXiVRoUzyss1LodhPhBJ4Uu+ZyxU0sg8EDo+1Sl8E4aFictXB+KxGu7N0sVwIBmO36G7RGlf+M0eCVx1RjbKZTsYuK9TSgnmVPCmTgukstNXn2kDcSBA2xzusNnelgOprmUSjaCCFTh59STh4Lr6wdiMjPdFG9CDqnN7kO34z2QEmgkI1Z+Mdnv0RTndt+GDU8hONgkzxgbF6U5pcMrQPds31GY9OsIUIp5yOekYYinysz/lJiQt3yGOXKMOdT2MqXIY34NqpKCBM5JO8pHOinVQZq3a6Ugl1QKfFcDh84v1k/MjiZLlsu/xUrBoGXTOqS3iLG21Q7GRgSuUUOSpYgpGii/RDqWJdhUimXlp56uXCqyi8/2knD/l+za0iT5gSt/Dlsy7WAPGeIwQWZRp8DmTeBV0E22c5SOMN+qWjjrQMd6Z5jYaMOMSzv5qhJQuE1iSt4p9wT/Z1hcZjgWwsh6Y7FMqVcn82I+PWIv8QDJ7VsFqaMSQWgATzkWM1YM2rnG+Zo/xUHAW0ZblDF0XVJ74lzZV451+ZmAOL7yuBFM4C6soviVSfhgsxLN8RTAC4PlfOAjVtUSoj7YJMpDg39EW/0fcRhH+BRSt5ka2IY8gT3Ka4E/U7XGRVwhfCFpSr20WsyORtuCm4ch5ZRClF4Nrn43DhsHTkRKoddBaqLUPqVhh4WilGIMJCaXhgKcsQwCwrD0OliMMYECct5lOrJIE8vFQIq8umr4m+YfPXIonZw6+5CbMuRs6ZgwNenQS65BXpwqM4pSAmVkIQuSUT/B72FsCMMIct33/WucKCWJ3xvo8wXfD2lW8OG5eMOk/d7LFYUJdA4RttVILlmk8n6HOVFSEwKjJKJAXWJb+SIA75hycBfz3BbSlaMK/09eRPGD9ByMsfmURpaP5YLJWMyTVJblV+YB3rEatz4kvtGBon6g54KnkNk8okzRGW0l0BeUcpa5xrY+6/0lKlCMnSWwujJCUNXPIvXUANbl+ypeYSEYBrBP0ZnsT/TTfz2c2LGtLkv+BaRpNF6vgewWyVFk6NK4BwLEAnNn37wBOcNDIWRHwTkkEhp/cDsgHl2UOn2cUaAHDj3jHnI7jibubZkhIhjONatsEj2mjeLjhlaHMoRDnIN3vfVUxHQT9aBUXZ/DTMibzrXvL3mCKFUR6yL5FHVspqui+QVSp1skpjngrJRf67r0ZEMqMx9EmQ8uDDp+rF+R84S9kMayL0KodCDDhoJgVBVF2jdXyGBeFbbjKpSxv+3M3M59TOXNiMM8Nn/IRBJH1Uy1qABa+qpCp0AKkMN+hXHlY/NQiPUfVRJqZISe56UxwtgT9IfcbLNb9A9lfPa2nAVBqMy9COk49AlUeFMkx2BTPgqw6VoRRCpWDLYA1zNLZPhVqjEz4fj5VEzh7uoqPhDXtq2g5Q7zKTHVwBoF7eK8P2LSlQGeJXetEHHABJcT00Oy0QYDlDnQ4RlL6ZEJyBIHw/Luyb3MxsJXCB5vvcTqFgsROXqY1nxXQGFLRbf8lRnMYtHqP64MdcCHLT69CvUkmxbTAvw2k08lb/xHft6Zx9Vu6AvGe7SvXhquTgQ6Nv5c/SFbNSKifi1So2+fhogbZVmUqhZMDOTvBOVCjtPPk6cZdOvsrXGbjY6TWBkKvioENCLJZKDOMlbzAaMfBxKyJRgylVnj4tFP9WsyiSPqvzWD0SgjG8ylbgdzhzWl1ZqJcY7uKuVDtwifsSpcI1se0H6xLflCYtRRJbqK5Vq1RK+kfGh6wdMU/xgDOHDq86Ja8VTivhLkoae8xd3PHo+zxPeNuyUu5jdk2wIU6llxRWuE4J+jJ3h7m80kFhhIuXuQ/DnsoSOVRezI7K5LZnNwmiU9nlcM8XLD4UuHQhg5xrzi5Ut/r6zk9e4QkvJTHPlDpioUzI2EpVwyDYJfLqQ6ds5UzUkuPXOB+wXJqs8MY9QGUbqY20MtxBfzki4S5RKdTLFM9TOvOkyExFeO5XU6zknW37XTNzvLgURyfifsNf3/j7wz80EN3eVemPn7ebT59ueIfGtlzMkl8c//zzm827d1gMSnRJF71nC+1ncPwOL0pUqkAQBcvTWslm43a+1n4PSXliI6EtoMUuJSmlUkFPeW/nt4R9Gq9zdk/v9YysG667Oz50RT4/InjL9l53Y17ymZm7U1WooQJpdGVKnZkhsvZk33y9otD4cQBaZn0RxCmuhhQ8gODtt0VRD6IwKNzQzHHBg8/AWLyRy4RQiC8r1CFGO7BWpBLPnFoW/TbaJVERluKJueJWzHv1SS1A8XG44QmL+A09vY9ZZgPB5r3ndnIUtBbI7/w8ve347GpzxSnCzmf8gNIPI/yc/IT3edk9wJiY1XCziqtJt0GHCDurlw2nDHhx+j2EuPqQp0esgGtV2Ynqh6B8IOA2XC2Up8b8wWfl799/4Du7G4beLYrOkTvv+OT9Ldt74eHnYR5t7cY8lWpVrORGhjDKqyCtVcnk4n3LpGBVR4ZKvjY2Yi12Scs8YZZiNRc5EDa6w0yOuBlWkAOouxzN97BCdZ6DUbwJ1kJWnvO9+0L5psy4jjZOkjPqeEtL0RD4fuzpMONDuA2qM0u2M204KZAT8TjtzWMWOZzr9z8+5PJrX3N6+5bv0q7eYgle87UMjYslcPg7Y+f+w7nnULo25aRVieDuEOoaFZNw97enCcjMdtRC4SXziAi6csRSRfAHFKcm4ucMdX7YqkLlyQ5Ct828//g5B9a+f/+Rs7LuN28/PGzevr/Z/PLzu83ffvGbQ79ffOJjDPaFw8O99OaRfPGVUjXLwWLkLzyXMpqUW/lWoYqsMzy7HvLSBsiu0olSaN7NaQAr05W8kNb4CDVVJyzKOwDPFWqf0X48Qqxq0nLMFklYzZ6YS1AKGzKvJRiyXL/J6xJgWV+iFnLmAfML9xypTOhQlE4ZP7NR7j1zkl//uNv8+ivnUP72x+a339/nciLux5d+mvX23Q3Dnt+18Yk2MtvA5zzteULu9ohWRm7XpB5ZWc+LZeVymElF+1ECf9DFQuEbjhJBif6MsJN8T4zDwrCbzm8J84kVCpx5FQV3U59HQv7rtw+bf/36nqH5dvPq9XbzGoX6xPmjtw9/3/zEN3ivX/NBrJf5kKn5qhd4KbvW0PLlHM1IV5ZM5WnFccK9KFMrFfSz63axxWo+hpDQVZdvTHP9dhcZX0B/rlAz4k4+pToKtoZKxyURVmk0GiHnNvmyhFrJR5XOf4B5lmYUihbwySi/pkDre7bUEds/tBAu6Vj5n5grfeAA2PfvbzfvUajf/2Co++Nzfkrj40eHMKwQX9j6I3ieOHyKRdo+vqWhfbZjaMECYAs4ixJT7Je4vlJhKNkyIcvwpaKrCficmQMFGfOv8YJr4CdRfBoTWL4vZF53lq95+BYOzTUPHef658Da3/642fymBeVo6A+cMWoZ7skzX9o8fcp55G/fM9/ji9+fmPPVxZMp2Tu3Uokz2qH4j55ag3X1DYHK4PKFndChNudxMQ46ybfzOOHPYqryI083nb7xFWJ4xhjx1tJCFvhFt/IttM7PWlxdQ1fICHUu7StS6/jss8BHS/l23oOyPK7Pz6YeaMD6sNI0Fcrep0LRfrRU5hLMQdyclsaku/7zt9vNP//5HgXix30+eTi9ykWYQ+qv+Qr5hh/8cYg8Y3vuI6eVnJ19iKweB/TLT6/ynZ8/+XHK6XRsqqQRsFLIVgrkpjvKwnaVJy4GMMIgZUZOeahcS+q9nlaRk7rxJ85OsUyXflipMjHU0QfitEy/e5rv77+j+MjN8dAep/3ZyTmfYvlxhD9TosK9faM1fcPR0ZdYV55IqRMn6x7MkSZA7/3KxrOh8vEpctWQ67xS5eEkdx5r/ZmOzMUsiuVRKfhX1naWo7hWd294QysuQZW4BBjRSlxR5vgL4V2FWpBKjCWazCrLgrXEVfFi26PzCTpD1B27JPORYo5GbKXSUmmlVCbo6HGuRvuTq7nckI1CebTzIz3v1z8eNv/rXxwE/zuN8plJLcPe7Q3HJd6yxsS+ow3nIRzTW49QKPcl3W/5aQ8a1c11vhj2IAq/THZB8YSPCbQwLh8c2auFofB+yJBzDrSpWK8n8vayRTLFotynNNQZdH62dIkVZYmr5j+cK8B3qlE+V8t9WPj8+SMy3MBXJZUPB4FkGD9HoU5RLKAcqmm4fhVL+Vnnwsy8ct2MoTMqY4+LhdJK2fuQnUouS+X80I7JthnOjnDoPWcR128EVZkz6rUtla1ULcW9LdBoS1tzqBBYusKs8PPoAv9KgKqdlWcK7/FvPm2Z2hcuFXWVhrzhXPIbDsbwJy88CTjH5NDAVgB1hDK5P2lVqFoQxIxrnZhIb2lw6geF2m7++esdPf6Wo258HIfu0cVEVq4x+ad85XgSheQUtzNagwp78Gxv+CuL9ZOPSPXRPy2VFtGwX/+eoU13KHgpVXUIFVnlbMVy4PToVn74jM8Ln4ZCHUehtCguE6CXNKyTcSznzSeUhaUCKuSYRD8fO8PycSTY6GwMfyx13PGxwxGn0h1z2szJOcfzgJcPKbBipyo9VtM1ihx9RN1FoaJUUVPKQFmB359tsVKUmbnc1uO6UUctlSdQRX8oO/9VGcIS9qYy2YLVdivctN2YkD/jhkIh9MJH9Wi3AAeg4+2XQFagClOnAJdCeT55nVGuItnIKpFKwdMLfq1G++juezeyp8IetWCwdgp9fU+v5hcC/PTphl56k8PAeL1BpbkSfuaVfdye7/TAEx4TXM5EyBICSuMTm3ydQB/7SK9vI2NlePCj4T0dBiuF8CqF022acFEmlepkWKYL/AsEvETZTk45m+mcM6aYr1kLGssoKjV55iSdxabXLA/4cegRinJ0c4r1OkORHGZZ5qBD3G/5nZaHcyboHHnE3mF/58VPX1QCV+I9HjETaOrNnwsh+9SPMO1QzUHhR8/JnBSeInmWRE3UCVNwy2xrKmfdq21VpkrptCBMt6KYAN8cLIVS4oOu4RajnHrd4jSMMlNhrhVhmbRQuRwGsDZUSrbFptDueHSTGrU2iPW08Dp0cgPJhvamcni8fvMLPZe1HHq9PfvJXki6L39VqlecrfSG+cxPnK/091+ONv/g0s/SAdaurXyUiTErcw8aecsM2HlLlEklRqkcrlUoHwh62PNsAxXJT76jTJ4chwA5nigrZCgosroS/o6lCz+GOD69QrY7lgYeOX/cJz7XpR43H7af6QBlXS8488hfljplAqaF1tkptaw2pW8Fjq0vn0K7bSlE/sgfaTOsuhdMebRKvnI6PmHHqQ84kPqsIrNVqWw3Oegql1KshiXh375RHzC3VXXJrSMNKBFMVKB9J7ZDmesv+dS7509OylEyK0oce06WCaxAAcL1cY1jhaqc9kAPoviJM6L4AmDzwEkkjzc3KBRAev4bzuB8Q4P5Sws/c1rL334+2vzX31Gov6lgHNRBA+e9G7xtLi8l12plfsQwoRI7PfHqT6zMW0T1XaJ8a4evQjn3fuJwVOdHWro8cRVaGv0nFzc5/vkSq/man7J6x08a/HbJz4zwGzZnT9ccuHadenK4P2fh6TUFvNJawpvuUd/mIUu5CmiNVahcsU42PmqA8DV9AI9C+eBwxLyqFIo5KZ0J3Up5IVuc/CjFiA9FTPqEtGB/PSDVqLIF2Q6GG0lJnZkbbovUfjGxyKKrDH3ofSzTOAMqcyaHNnpbrJKLiGnRopO2C6ufODAnz5pre88xLXzHwa9XJ8xLzq9ZDrjk8inuIk9yP7875ugfrAOLOb7acMGQ5OWgDft4laB8ouXITHiGF/OmG6vcaUbjg0gvQ2aoGMJo2TMOSdMadL+WxnxcnPQ4ds8aeM1E+R0/eP0z517+jV+V/IUTwv7BMPiRlXMvz/h8hbJ5jOErlPvCD0mhi7zKlhFjdMDkXTetkYLmRTDzSDuoZ3FqXV2h97xyPhZkPur8DXmAjwaeuCj5KODimyxsz5HdQTehTsGgloU6SCWwM95FMB8VKRc16oRS6+QCo76Wye0jzkt4jJmuSSlbEvzmZS4qlOsqWXdhon7n0c+nLJWf36A8nNr27hRrdLH5r3+cbf72UynUa1eqySZPclXn6Yuz9LGGUwXZVy0enTkWwOi+a/RamKU0KNJJOsUO52ggo2+GPkbfzSPKffuGdTQU/SOn8f2d86l///lk89//+n3zT55ctwydl5yneYkWXjqxZl7mBxWqqXKpTyovKlFWhgpa/lIQ0rGSYvhbMM7X/P7+kTladlu4TgYIo1Xfx4LXZZFGvoGEF5DkJbxSDS0EiXz77bBCha8iTAow8hAa4bgpj2EVwg1ktQfJCTg9B6EzRKJQ+fEbCi5uLvjrz/KnUwZImh2N26V2G6tz8jfWaujhP7/jkC2U6u+/HDPMcfAWac6XPFtKka2XlinxkcVgu1jEznrBAaHDps1O2qxZpTRtlwo/VpQMlT02Cyby0cLlB4/8pU2E8gnxCnPI98WEz3jQsNNQLjrMqRN8VvLzcBIuI3d4Wn89R0rBwttMonaLRCkzjcAqGz/Lhm7B36Gc/6rnwTKyEdaPxHknaawgAXuz0N/pJosI07Rqc9rNxNh+PgsGCb5V97VGtsamhGKXeU1vW5Cbf5JTloW3PYrHZRdCnUx6YOspv29/df4zluERZXrF5Zv7swxzlz7+UwJx5aH45qqCG7fadYbrZqBcYASbruHxZTJc1q7gGjxgK13BYjlUKifSJJouucPpkXO5WE6WD3h5XSe11KsiSphOpwV3qSL5SJ8MHILhzJUPIqzPlmGxkIDITRxVx3p3TNjSBs5FnSOGRyRa5Qp7SXFlBStcUneqPDvc6d/ml0IttAZktrpO6ix2Uklc01kc1PRaQC5tm5VTl2F7W/GNx61pExjAvGdDqfxlKIcxn4bOmIdcMon1cHetkifc5dQ20m3EVhy5y9Ons+I5csAboRJg4BlZ+lDyF7IElrC2taHyKbstLi4NKowGzWy+8opyIZ/l9yUwUx4sF8f/8GTn+lydTjcWKLtiksuQFMK8e6RK4xAgr6pQqHzRTL6lTPhozxMdDnVCkXhWjTaZYcmyX3b57cK6dPq7Kcl7vn0lebJQM9XLYfnl4tbtFqVB+nVjWAnYhrkb3IZI/Se5GkkbVm1SFeN4V1/vkkKreAreW5YGfHqzYTw1N5ZrNFaXr2VScoec9E4qNy5I8KMx5l6ZF8Nkrh/X/sK0ApbPIc2SWwbvg2Dxc7CGvLQgELSiqlha0TZfbk/+dH3KDy2iKZw39MTJfvc+sqUzgiytGSKSOY2qGrmaZhkqW7104iDDL4qkBnpRQV90crdEB1wY78EPIu7hEP2KQlmcw5yEzpdKk14JUF9K37ZZ+FRLKgygjbbWki0Vl94GTnCloUVMcu3Gpzef5Dx3E/0K3DTQnl22pHAr2veKaagIEShpTQWS8kUYZVLZlZf0yGc64dF6XSapFwTxFx6CJfQa2k5I/DwsAPJrGF/X+JziL5zW4mqWUwcd/CSvSoufBWBAJVPJU51Cpan8nD1pIY2XPJWvZIeddO3msNJGgGIwgo15yG/qqpeXFMqKCUajFaspu1gBocKsbM8Q8POlUx71twBc00nP70YF08oqKwbRyCMrwqlFRaNiggQefg2hfh5ei3Vpa9DE1AqJani0udDw4BZ6V7qDp5ADVuUSDxePW+fZ8UoFPnBCX6pYSYO+GAw8+YiPz389lDBYCgt9eTybUJ5SMv2Ut+V2yGxZJKJgPrV1XfVkPDIkn1Ikh2S3QefUF9thTBfq49QhcYtsnfBXHanS1rtIQ1iBU3DFWUPNcoW8pFBizC1BVN6dXfsNs8wWoi7eMxF3wlRjvD1Hk962oSxPrBcpcs7QE+5UELQ1R3BO5n5NTzTh5a6vEoipnzsF7VLZEOmlIuCIZ/SZkZcKGoE0HuG0ujRcNtSOayL9IJTfeEkecGAZahEyr5eccPuUq+Cg2PF0VFWUyrmeClXWRbm9HFyrhlMP0Iih0zIllEoA1+nB6IR2HvnWvvXxMDDyC3GKNZTJci+tmdRxmwlm+PPwfi2VxC8q1JcZd6qWwXAsFLfsycG3oqIwqWCFIbthRoqW3mShpA+T0RBQpe6tONKtWH86w4pKI5hXX9CSFLZl5rtBrGiLN7mRd1XiBI/0c1y6knDlMcFEDWtvfQlcXWel39Zp8QeaOeSBw6UEXgW5DcVjGq0zleTJ954JD2kGU+misGKyYs9W1wlmbQAAE1JJREFUhDz9Wt/WvQeDeDC/W1rcvBELKE3yLXmrXgMYKaO8DfoGv/gdRjwwh4rYO9gzZM7esFcUigLE1NLixtPr0pNASAMXdu5WkP/46b2pPqvTIc9eaM+FD6SnrVAjvijUyFfc6tlVYTZI8kseEEXCrgLjc5jo4kzDBWXgLHJXUpVj5NN87BidR7Mwb6HxUA0CCxUB4TnNFwU44weL3IKSLRbME+pwfR8mVClKC26yCEfBdj6VToVi/QrStkxni4LSuVGqaoeFEFZKoWubV+FkEri3kn2J7gWaQ4ONN4XhAwoFNFiN1qRFODMUw8uekF5BxaSCKJg9yYcOK0icFAHioi/THfp0XytJPHpadiP6opMhFMb5mTMqrfNqP1Klwa18rROceXSuHGYpg1lw8zKptLgTBIywfhD20qZck2cni9sXwbAx3mHkAea+r3aiOJRl1wMK5S9I5Otj3n3eRlGst5qoh11pJWyIwdpOZ8VaX8dc9SNHrnOxJZlLa5e1L9BVKJ2e6lnWqepeSIeCtHMbhDuwZL8DGSWF0yg6/mGFGoXYod6LdJaiOhk840Wnjf/AthCvUijWRqwEexV/ZdIFQES3K12qMEjVc1Gkc/j4xco5innFFy1WkJbJPL3iZEMvrc+ioBUhRcNLTS6YAasH/JvNglbW0PxrUYCUchNpAHPcAtOQixLLT6cZSbgBAxag+GPhAXItiu8cfVGcH1IKKd8QsiLpGlJZKZXROnGZQAFSQPLQAvOg4kW6Q53Dpr9TWDs4ncuCDboUUipRD3V2WmG7Lhi7oL3YVKqk7Mcb/bBCdeoLfgtpcoqK5K61bHmsf6Cm3LNdzu0rVhyFohF8q+9OAv+qmBZ0oFI5+WATJfJHGC/41kgFde3JdafkA6q+bZcNaDasZtCKj5KaGIzGxDen9aG67CUCDyuV7OEnWcKDsjICNtLCKDexaDHyS9NEuUYjRTCRFFA8fS8VyjJUOVQoLXo6WfaJufuBumFelPzQel/3RJGUC+FaNnn5VOdOUIdNlSj1ZZ1xGbeDtzIVnTLIRzlnuQJN2pduRb1i7MfXlJcsVDCarItivMPFomOUDU7cqAQ30D0+1j4flxJKoawsV4WrF2qpMsRBkkdbS48T/4oXc6/YXO1Q4O+fZCuv7U+6l6haGXtyfQzZcpIgholRqrVKncOUAlV12ry2s5SiV0BgkbZyJU9JgQ8RE66bFsemLYuhFZaZjVZu+A7DBmWCIiqBChXrTPiR7wdtZg8zszwO8/e8w3QXaNuYWClwZCJ7DXANdfyMLT+BohXXSmU7MJ1a/slOFrioPoCCKUxdi1g72CFZbuLM7lBcvs3rRQsVwmDtspiJm0nMq4WgJWKB2KrrZjYXJd1Hnv1GaNY92zH9EZ58SkXlq0xuVanPiKgIaF5dolBUkp8n+c2bypo2IjPzjq5Q8SpkDT3d67rYwRKTKys0CSvrzkWyOuB62dCF+CkLaeZjw6lIXtLq6yIDaQJ93UJ3ISxAkEplWLXFl9B4LGjUKXzsf+53j/QpoLsNGN45F/0OjXBLULapmAcpWYEnpCXWAjnXdFSIQtEB3SfvUKfl8wlSCXTlK4Q5Ga+w8XSCDPeNLcXqxJzd1+LiHlSofcKVqSlr5oYaom8D+HTh7/n6xOcWXUckL+cH9/6goPMrzTtzAC2S5zvpOwnX97NyK0pzbgNa104bkpEVRR5eKmN2wqUxBILjbWiH7WcVzk9YNrFy2vm1nH6dw4cleTtfL1RRcph3B1GZES+P4Gc2InFETFatXAqT3RQRUhFAMhc9Lx0y2pAuDChDWapSUEYo0vzzgcS5kNuF+UDVh7jUXSmCVMWSuvIXHNxDRT1dsqfKL5GzTodQymfVNL6K3UpUYGtAZbJTVt6p5HAvOu9ize5LcdO6qAcVamZkWOSZ4RzvsL4FsZf4lj1zAlo1hgTiLUPhHfvCH/zig5JYIH9s0Mm3Smiv8uqMbMg0GrRWrLcausikNAqgbkiWhjTqpJb8ibuhL6mQ6IcNvnvI3ZDmLtP6UmYolZvURoP4MtfGZhqXX4q68iOKjO0ll/zMMldqyKoE4BCY3MAw2mF8G7Ya13nQNEm3A8HbId69ZZ4co0Jp3f1CqFnIzvxUeOsu8lHX6OAki3mOrOMr6a5SBkIb2EbZLBg5pfr33UGFCn8bZEcQY7rK3XvFG5LEpQf3LsgYDJIU3l605XMnnXAbzV6WX6UaDRl80tLTgsmNzGxo0IfrnI2aWDIlMY/oIOsDLktVyoS+RJk+8knWh09sgOObuc9+4+cpLSiZQ3M9VflpV1nKVzTYO34Z/R3vE/2xa4dn9cocvchp8ZNnhGjVbTnxtQiDLihQ1V/Vo0VwG7mzLL/62eZ7Q9pAVhMb8VIX1geCuBnRutKRtLgKF2EpsekdJwyjWPnU3Uy5sPiuwHOFmnivwVWQUqtK6fQur3GtlAXWtTJV2KWFgiXOTbxUkDReJuhgaFw2+jXMiGyauXWOBHVGRRQBvyaxgAXhTLZd3NjmL1T9xocD//z1lo9I/Rjzhi9+/fhgWDMtB8p4gqa76vyGrZj/9ctrOoQbBbEKWBGdI23EMRxAyVsxISNzc8e6RlnpQXkIAea8y0FQvMaUjdZHhc2HEgquG36P7hIsxR3VUohrrsZLgYq4lanx/KZRi7/mrhR9Nda3+C2ktBiIL5OI1ASFqWAtYtMWK2IDPYU1kfgu9aBYCEZ8Dxx6CBc06z2MvDXH9iUW06saqAnFUJHQoSjTRyyS17/+UKE+8YUvCsU3TNd8Q5ivhyHMKXZUtj8i7Sku13zQWVbrKhbB309+5EnKIdmG13Xuhh3KSkahLaO+w05LtNKoVKYs1reZNe/BIlHDBAIa/q7VI71QuIvVeQ4mJhY1fiuTnMPdxH/DlXBfUaiXBFGsYrAvQYvWlB3fxzsUb9z0xEZoRokbGVfDu6umZpvDgpWtsB5Qxlfhm9/4VPzX94+bf/2OMn3gJJfrLd//sf+bz7NUqP5W0KGL2V3Wgo557P+Nz995PmXO8ob5Cpv8OOQim+bQnW7QHqpVYKWIJC2OChpdb4DCiymeja5S1ZwqwC5b+wI7jL902CDXrTlXbFYkCZt4IvhLgsV3zvsrCmWuh4RR4OpvL8nVmTyj7oQXCF9OHpz2GRoP0UopqC/nRv5e3ifmTb+9v+cjgQ8MeTd8K8eXvoyB7oPP18a+nEU7sl0EBfAJcuvBr+x4OH5iIxxmzon51eUvmfe50p3HvlEOFYspWF5Ym3f0R8FsfflFvNyaAl9MnfWpgkn17W7mNlMVvHnPKYb3qTqu3+F9mkqZOXbrr+OVtDx5PidtyEy+H66Mi+muEDOmnHZTi3fjHErr3OM3YgP34+Eul74asZpKdBvZhXuf6j6zQ/IPTkX59Ll+/1hFeszhB3xAytOUSwkMZugA1YKVekBL7jgB5TO/5LnhwIsPn9g9+pmDzS6v2PRXNsacF7EIGHZ+Ug6GmfMR2zErYs2UzQGlUjPj2h/Rb/SKqvm138T7PDvefuMd9sXa5diWsFOsvS+6mbzDnbnxDg8mgGZIUyxZjMQZZ0l7zm1OGiWZOcpljq/oM9RwDrNAJ1So9ygU343yGTg6wskFR3xnxzfjsU7syMZGACOeuQ3KwFdhOQWFkxo2H/kc6uPnV5yecskku7qTdmWnPESysIli1PMDlS7CDtIqa4WU0quR8FOIjs/4wkY63nOM5hUGM+Fe+DnlHsLBaFHNeXQ+Nb3/ikLJswlm/sK+LtA+xiFOK9c9njNywg1of6U8JIuNiX3I4mUtYpaVyu/ouWLPU5vrVPapJxUK3GwZJuwZAfY914GOeCXCDCiqpmJ6PNF8wIZSWM4McTsFHgoF4zJYJs6y74VjmWbYxGwGL7m1FVSCdiLuIHfCF/zOp/0voL6YtOb5DQollyZovzM33uERbBTJZjehzeAKHyASv8HO0hNugFQjHL6GdzNQoRzuVKblYrXwgaXx7dYThcH38yVZ4bIjIibFIYsZzWBvmhYmuyfJ05+JrZ8762UGMcqJ1/yElIUaiRFxTh3weINwyjPrEh1vMhlGO/VN7ISZ16HwjNdh/Tl8iO7LsKLeleMbFUrGEs6uGbU/pz0P71OvGKbMqYippDPbORzCfZqZfuKs2RlJVXgBvlQWDsRVQ1+Z4Nde93qTn4VLk7FQvi5xbc0dpoaLRn/wLsYReQRJGGmNE+uDRRkKm/QgN8XEpGnNoJMD63j74VJyzHgDfNhrxNk33PGVSojiP09pHFO9dt2fUKgmbCYvZLUHbuym3vVbqMJqexEWzcckw0tjNI2cii7+1GNDOqH1KyHfD3qxUsBePN9loUz51MrPLmsFPDgsCsW6geeeo96vnXd8xH0iM49c5JM50hCn4V2WgdXYYuEgUr6FUJiUOhnqT/HgCmsn4BmwE1/wm99L/nOyxnyesg9ZZTk0EO9jT3EJZ9cF24fPOH8mXHyaayi7VPoqTcdToQMzylS0S27g1VDF0z2lrDfxvnyuNaHV2miharO/lqmsERYJRrFO5BMYN9eSvFSsHt4WfxatRY1lci4F4xGuAsAA7hW2QF7t9uPAGzT7jf5NfvOf/W9gtlela1Zzwhw+tFJueue7cBC4S/gtPWSfYmGXQPNsX2A9Oc14EcXbwozAokANbB769bQRJUArfN2T45+zHeaCvVYc4srakr8Dky9ss92WRz73I/mHcnlyXI5tZP+Wu0KPWTXPRwC+kHXfEVoVxUIuRcvVMg6RygvHxnheZSUu6fuuE2Z/D8f8dJVRhQ/eW7BOjLQj0kw6DX+f3xw/gL5SlqzfMeTJoohXZn9NqGR3qWxX8qhZg5YCGuiIvvMjkQpRhXK7ia9PLlmQvI1CudeKwyqy06D3Zbl+QMOjpLzBYyh0zQnCTK9YXmcNymc83+zn7b5KhSnT6rWdad+cvSLWGKITX8pTMVHipmiVuctjguHyJ7QBC/U33JqPqLtcnsdB6exf4twivZQO/DsVqjm2BPvCfl225lB+r7euytScTS/uQrjaOi0IA57aUKnEr9cYaWiI3RajYr1mI9rPP71h9LkGm/d0nLTnr296kp1bbp1TscEGpZID292g8+TfN6+PNz9zaMdPby/4gvkVC5tsIJwUSvn6UozoEresR7FAWlOlKkWXJoLmVla5iiNO10WF6y6i1q6xhHqtXkXm+0q54K5Szoh/LqwII+tDhN+hUM2xfdmuYUN/znUFFpemb19eK/eJ845iidGXSlUKZbljqbid8xHF6ysOAeMnMtxZ4CuZI47R8T2fh3r6BYmLlTkwFdAJq+UeufOKdyzvXp9wwBlHL3KU0Ft+tyVHLmKl5D9fKrCudpPChHxr92bB15ZYW6Sl1tftW+eClzIZllKczleaXde8m2NRrHmL3TjtA2r0XWaHYy3IgdTvUKgDXAJarctLGIfgh8ohbIZ3uIo/pxJO9x+wbB6yWbvKq+qc7/juzZe6HL3K6jh73tlIdMHprZ/YD/U5lqoWMn3l4uX5lxfsVXnHUS9//+k0lyfmeQKMG+EyhyInZcrVQhKPQ66Sl3uWJ4BGVuIhGHh4eyVKQrErRC1Ts19JDRWrBJZYY3bqfryxi75j3+fPvIvDc4U6mM8h4CHYnxdLLs/F+hKfOd8ODz/M5OZFBE+Qw5PnJL7jpOAL5lLnHGx5ef4Gi8WvNPD7MZ94JeOpe3csgdcvebIXCsQ3nPH5E6fR/Y1fPPiFoxffclKep+U5l/KJUKfXVwABCjHzQuoPGJ5brD9T9uJVeczhJdcp0OmjHqaUknYH8G9EOh9ZVLjO1TNf3ZxekJeAE1yiurw3K4Lf6KonV9FXATrUfuVR1qdymStLrHG1FTCZyyFPUIY+dl/6awUqmGdiOpy9Jv7pmtcyHjLLT3j4UyEq1QVnZL59xSl5WDWV6h2XX+DwpRIDajlHXXmbc25DpLZNlVBpzqt6DlTUdQ/tDBjhXbgxmVc2xnbTk7R3O4TRsPYnkgZVNlPCgeDoKGuKxHWxQJwp5Jq2E2rus985N2LH22/4t/ia8uYtvlVefIQ2x4IKadw5LJ1O7KaoTWuWLEtApDSFMyyOZMqR1/76gUdfu7fcDxZ8d9dWxX3uDpMeGe0BZ1f4KqJDXefSObYP6zUjw0FUiHH52mTRQBEKffb3w8bLdc3ItiSoe6fPvqVtN4dnijncuHu+pAfRmqf+jIRkX1YoM2hiwy+5g7m+hLwHX/lX6DmvgjRe+7Lp8Exj+DCF2CpU2nffJzHc2h9cbP9ZkfZzAu1wnZvQTsYzYcOHn3z3YF+LfoHdRHqI87dRTkxeCB7m/Q0K9QK//0PBqQZuq4+NXOpmDlvAmtzXz4f8H1rg/7DYzyfl/2EB/tPZpX96U4uGP08JdodgpUOpskTxV/Xs/3SJ/7P5/Y+zUHP1vjR9nOG9jtT+TP8j/LwG/kcr1PPqmCA9DP4wTFOlfD34P27I+3qVDIwfivTNVTUj9pLKDPsR/lED310DPxTqu6vuB+GhGvihUIdq5Qfsu2vgh0J9d9X9IDxUAz8U6lCt/IB9dw38X/+UN68p7dfSj7Wl/Rr59+P/P+PTmb+lsDi+AAAAAElFTkSuQmCC;" parent="1" vertex="1">
          <mxGeometry x="1127" y="472.5" width="35.34" height="32" as="geometry" />
        </mxCell>
        <mxCell id="Iwh2j_EmFfEqPvJCqRrq-36" value="" style="shape=image;verticalLabelPosition=bottom;labelBackgroundColor=default;verticalAlign=top;aspect=fixed;imageAspect=0;image=data:image/png,iVBORw0KGgoAAAANSUhEUgAAAJQAAACGCAYAAAA7IqNEAAAKq2lDQ1BJQ0MgUHJvZmlsZQAASImVlwdQk9kWgO//p4eElhCKlNCbIJ0AUkJooUsHGyEJEEoIgaBiwcLiCqwoIiKgCLoqouCqFFkrolhYFFSwL8iioqyLBVFReT8wBHffvPfmnZkz58vJOeeee+femfMDQJbniEQpsDwAqcJMcYi3Oz0qOoaOGwYwoABlMB/IcrgZImZwsD9AZNb+XT70AmjK3jabqvXv//9XUeDxM7gAQMEIx/EyuKkIn0L0JVckzgQAtQ/x667IFE1xO8JUMdIgwvemOGGGR6Y4bprRYDomLISFMBUAPInDEScAQKIjfnoWNwGpQ3JD2ELIEwgRFiHskpqaxkP4OMJGSAziI03VZ8R9VyfhbzXjpDU5nAQpz+xlWvAeggxRCmfV/3kc/1tSUySzaxggSkoU+4QgVhE5s3vJaX5SFsYFBs2ygDcdP82JEp/wWeZmsGJmmcfx8JPmpgT6z3K8wIstrZPJDptlfoZn6CyL00Kka8WLWcxZ5ojn1pUkh0v9iXy2tH52YljkLGcJIgJnOSM51G8uhiX1iyUh0v75Qm/3uXW9pHtPzfhuvwK2NDczMcxHunfOXP98IXOuZkaUtDce38NzLiZcGi/KdJeuJUoJlsbzU7yl/oysUGluJnIh53KDpWeYxPENnmXAAmkgBVExoAN/5JcHAJn8lZlTG2GliVaJBQmJmXQm8sL4dLaQaz6fbmVhZQvA1HuduQ7vaNPvEKJdn/NtGARg4R+Tk5Nn5nz+yKVsRM6E+HbOZ7QaAHIXAFdzuBJx1oxv+i1hABHIASpQBZpAFxgBM2AF7IATcAOewBcEgTAQDZYBLkgEqUjnK8AasAHkgQKwDewE5aAK7AeHwTFwAjSDM+AiuAJugFvgLngI+sEQeAVGwQcwAUEQDiJDFEgV0oL0IVPICmJALpAn5A+FQNFQLJQACSEJtAbaBBVAxVA5VA3VQr9Ap6GL0DWoG7oPDUDD0FvoM4yCSTAV1oAN4AUwA2bCfnAYvBROgNPhbDgX3gqXwTXwUbgJvgjfgO/C/fAreAwFUDIoGkobZYZioFioIFQMKh4lRq1D5aNKUTWoelQrqgN1G9WPGkF9QmPRFDQdbYZ2Qvugw9FcdDp6HboQXY4+jG5Ct6NvowfQo+hvGDJGHWOKccSwMVGYBMwKTB6mFHMQ04i5jLmLGcJ8wGKxNKwh1h7rg43GJmFXYwuxe7AN2AvYbuwgdgyHw6niTHHOuCAcB5eJy8Ptxh3Fncf14IZwH/EyeC28Fd4LH4MX4jfiS/FH8OfwPfjn+AmCPEGf4EgIIvAIqwhFhAOEVsJNwhBhgqhANCQ6E8OIScQNxDJiPfEy8RHxnYyMjI6Mg8wiGYHMepkymeMyV2UGZD6RFEkmJBZpCUlC2ko6RLpAuk96RyaTDchu5BhyJnkruZZ8ifyE/FGWImsuy5blyebIVsg2yfbIvpYjyOnLMeWWyWXLlcqdlLspNyJPkDeQZ8lz5NfJV8iflu+TH1OgKFgqBCmkKhQqHFG4pvBCEadooOipyFPMVdyveElxkIKi6FJYFC5lE+UA5TJliIqlGlLZ1CRqAfUYtYs6qqSoZKMUobRSqULprFI/DUUzoLFpKbQi2glaL+2zsoYyU5mvvEW5XrlHeVxlnoqbCl8lX6VB5a7KZ1W6qqdqsup21WbVx2poNRO1RWor1PaqXVYbmUed5zSPOy9/3ol5D9RhdRP1EPXV6vvVO9XHNDQ1vDVEGrs1LmmMaNI03TSTNEs0z2kOa1G0XLQEWiVa57Ve0pXoTHoKvYzeTh/VVtf20ZZoV2t3aU/oGOqE62zUadB5rEvUZejG65botumO6mnpBeit0avTe6BP0GfoJ+rv0u/QHzcwNIg02GzQbPDCUMWQbZhtWGf4yIhs5GqUblRjdMcYa8wwTjbeY3zLBDaxNUk0qTC5aQqb2pkKTPeYds/HzHeYL5xfM7/PjGTGNMsyqzMbMKeZ+5tvNG82f71Ab0HMgu0LOhZ8s7C1SLE4YPHQUtHS13KjZavlWysTK65VhdUda7K1l3WOdYv1GxtTG77NXpt7thTbANvNtm22X+3s7cR29XbD9nr2sfaV9n0MKiOYUci46oBxcHfIcTjj8MnRzjHT8YTjX05mTslOR5xeLDRcyF94YOGgs44zx7naud+F7hLrss+l31XbleNa4/rUTdeN53bQ7TnTmJnEPMp87W7hLnZvdB9nObLWsi54oDy8PfI9ujwVPcM9yz2feOl4JXjVeY1623qv9r7gg/Hx89nu08fWYHPZtexRX3vftb7tfiS/UL9yv6f+Jv5i/9YAOMA3YEfAo0D9QGFgcxAIYgftCHocbBicHvzrIuyi4EUVi56FWIasCekIpYQuDz0S+iHMPawo7GG4UbgkvC1CLmJJRG3EeKRHZHFkf9SCqLVRN6LVogXRLTG4mIiYgzFjiz0X71w8tMR2Sd6S3qWGS1cuvbZMbVnKsrPL5ZZzlp+MxcRGxh6J/cIJ4tRwxuLYcZVxo1wWdxf3Fc+NV8Ib5jvzi/nP453ji+NfJDgn7EgYTnRNLE0cEbAE5YI3ST5JVUnjyUHJh5InUyJTGlLxqbGpp4WKwmRhe5pm2sq0bpGpKE/Un+6YvjN9VOwnPpgBZSzNaMmkIoNRp8RI8oNkIMslqyLr44qIFSdXKqwUruxcZbJqy6rn2V7ZP69Gr+aublujvWbDmoG1zLXV66B1cevacnRzcnOG1nuvP7yBuCF5w28bLTYWb3y/KXJTa65G7vrcwR+8f6jLk80T5/Vtdtpc9SP6R8GPXVust+ze8i2fl3+9wKKgtOBLIbfw+k+WP5X9NLk1fmtXkV3R3m3YbcJtvdtdtx8uVijOLh7cEbCjqYRekl/yfufynddKbUqrdhF3SXb1l/mXtezW271t95fyxPK7Fe4VDZXqlVsqx/fw9vTsddtbX6VRVVD1eZ9g371q7+qmGoOa0v3Y/Vn7nx2IONDxM+Pn2oNqBwsOfj0kPNR/OORwe619be0R9SNFdXCdpG746JKjt455HGupN6uvbqA1FBwHxyXHX/4S+0vvCb8TbScZJ+tP6Z+qbKQ05jdBTauaRpsTm/tbolu6T/uebmt1am381fzXQ2e0z1ScVTpbdI54Lvfc5Pns82MXRBdGLiZcHGxb3vbwUtSlO+2L2rsu+12+esXryqUOZsf5q85Xz1xzvHb6OuN68w27G02dtp2Nv9n+1thl19V00/5myy2HW63dC7vP9bj2XLztcfvKHfadG3cD73b3hvfe61vS13+Pd+/F/ZT7bx5kPZh4uP4R5lH+Y/nHpU/Un9T8bvx7Q79d/9kBj4HOp6FPHw5yB1/9kfHHl6HcZ+Rnpc+1nte+sHpxZthr+NbLxS+HXoleTYzk/anwZ+Vro9en/nL7q3M0anTojfjN5NvCd6rvDr23ed82Fjz25EPqh4nx/I+qHw9/Ynzq+Bz5+fnEii+4L2Vfjb+2fvP79mgydXJSxBFzpkcBFKJwfDwAbw8hc0I0AJRbyPyweGaenhZo5htgmsB/4pmZe1rsAKhHzNRYxLoAwHFEDREmIzo1EoW5AdjaWqqzs+/0nD4lWOSLZZ/NFPXQ0kngHzIzw3/X9z8tmKo6nf43+y8G9wY6F7oCEgAAAJZlWElmTU0AKgAAAAgABQESAAMAAAABAAEAAAEaAAUAAAABAAAASgEbAAUAAAABAAAAUgEoAAMAAAABAAIAAIdpAAQAAAABAAAAWgAAAAAAAACQAAAAAQAAAJAAAAABAAOShgAHAAAAEgAAAISgAgAEAAAAAQAAAJSgAwAEAAAAAQAAAIYAAAAAQVNDSUkAAABTY3JlZW5zaG90WCZ/mgAAAAlwSFlzAAAWJQAAFiUBSVIk8AAAAttpVFh0WE1MOmNvbS5hZG9iZS54bXAAAAAAADx4OnhtcG1ldGEgeG1sbnM6eD0iYWRvYmU6bnM6bWV0YS8iIHg6eG1wdGs9IlhNUCBDb3JlIDYuMC4wIj4KICAgPHJkZjpSREYgeG1sbnM6cmRmPSJodHRwOi8vd3d3LnczLm9yZy8xOTk5LzAyLzIyLXJkZi1zeW50YXgtbnMjIj4KICAgICAgPHJkZjpEZXNjcmlwdGlvbiByZGY6YWJvdXQ9IiIKICAgICAgICAgICAgeG1sbnM6ZXhpZj0iaHR0cDovL25zLmFkb2JlLmNvbS9leGlmLzEuMC8iCiAgICAgICAgICAgIHhtbG5zOnRpZmY9Imh0dHA6Ly9ucy5hZG9iZS5jb20vdGlmZi8xLjAvIj4KICAgICAgICAgPGV4aWY6VXNlckNvbW1lbnQ+U2NyZWVuc2hvdDwvZXhpZjpVc2VyQ29tbWVudD4KICAgICAgICAgPGV4aWY6UGl4ZWxYRGltZW5zaW9uPjE0ODwvZXhpZjpQaXhlbFhEaW1lbnNpb24+CiAgICAgICAgIDxleGlmOlBpeGVsWURpbWVuc2lvbj4xMzQ8L2V4aWY6UGl4ZWxZRGltZW5zaW9uPgogICAgICAgICA8dGlmZjpSZXNvbHV0aW9uVW5pdD4yPC90aWZmOlJlc29sdXRpb25Vbml0PgogICAgICAgICA8dGlmZjpYUmVzb2x1dGlvbj4xNDQvMTwvdGlmZjpYUmVzb2x1dGlvbj4KICAgICAgICAgPHRpZmY6WVJlc29sdXRpb24+MTQ0LzE8L3RpZmY6WVJlc29sdXRpb24+CiAgICAgICAgIDx0aWZmOk9yaWVudGF0aW9uPjE8L3RpZmY6T3JpZW50YXRpb24+CiAgICAgIDwvcmRmOkRlc2NyaXB0aW9uPgogICA8L3JkZjpSREY+CjwveDp4bXBtZXRhPgoeWEm5AABAAElEQVR4Ae292XYkOa6m65qlmDKzqva5Ohfn/d+sV+3KISaNLp3v+0GY0V2uiMio7FqrewclM5IgAIIkCNJoNPrRE27zw/2ogb+oBo7/Ij4/2PyogdTAD4X6oQh/aQ38UKi/tDp/MPuhUD904C+tgR8K9ZdW5w9mPxTqhw78pTXwQ6H+0ur8weyHQv3Qgb+0Bk43m5fWNV+Cm//RJMQcnsB/Ojjn12F5f4m/eI1rhh22nxRdQ+bUbw2L1xK0L6zdy5LNuTa2/ssUM9afCZvTv8d1lnUOV20eLdwP5DKjj2QUSjenvBQuzBJfHDl4dbjTv8eXR+f7RKjjKsYxuRwoTHAed+hWHoZOIojvAeT2ONh32PgW8gcC28ftRrzHJ/I6JjeyS+m4nXCdcTuDXcP0lUxehuOSkZDJLYnCjEwUO2kTzZ8Idm7tLywbcIjXgmRiI3adPyeotugWmIhX0rVokA8LNafOGe2Hjct0Zfw0hU39Hie3kqAVxFjLdLyEDNjYqxOnaYQ2nUgnS0zFUYEa+0FF2j5t7h42m9u7W/x70h83j4+nm+OTi83x8TEXSgObc5Tp6hxKMla5jgkKf+Lif3Xyf3xcYUncR5ooFEY3QEan1CQ9vz3HmtkktQEz8Uw2h4Ojysx1WPW0kpcyFdkkrAgCvdqRfEChGqN9seewTO2fDf1KNTTpi2jdO0Ts65GQYQtTvvnFLdEVd6VrWCmT+LuWCEUC5X5b1+39w+bm9n5ze3+72WJhtijE8cnp5kSN4f8EJbo4fcKKHcHnaXNGsYWdYq1ODVc1bI6SLTdwVrlL3Gf33R5Roo+6kc0XqqlYTbjJdtCE1tvs5ngQRuISNrBeJXvhCNUdjbYuyRbClUykCTyGPKVsFmK0m2ET1cyhUQ/5M/mh9B1YI+vP10Dq5IVmv+pXmkbVV6HaGqE/m7thme62WxTpbnNzd4eFuhsKRbUd32OMqBbYaxsvUB5GxM0T1/nJA0p1tDl3/DtneAxOVXXdWyZz7vAicMFeShpoX0memX05LKN99wXmh5SpyE3pIW+fIfUCz7mPUHN2s87dSjC8H29GpvdVocZsjMXfTyA+Z7zgJbAiV+iAZRLPxKWdWg7l12R3OQyXXRMdo7N5UJHuGN7unzY3948o0MPmnmHuFkXSOmXIg/kjlmhzdIKcqtJ5LM/25D7DnFlcnD5szjFNph0z/h0PjUq5uB0dYxkZOlPL5D0JW+FF9iQuyco5F82wbgfdSCckdfe2g7ubtMt8J62Z6s8c5oxm+A5xIvup1RXDTCbNSLSOd7hJ9deroeHet2bT8faFPyPYRe7kdW7WkGaCv/AxzWtVpqfYFeOggef8Sct0c4syMWm6vr0jjkJtuR71txnqZNmSSFcXcyJwro9ggmZuz7xK4U4yNEJE9hkhI6YdoRXctAAJdHiOF7jzNNbhxjLe4WAn8gyaJG/Jrpks0L1Ak7efHJYIyHO4aXekaOBBv4a88JDIy4jXd7qvkXb6Ujmdz07CqMivFaRlLh4qU8leE/maPzH5xjLd3qIYN7ebzzc3UaIHxjGf7raYHudHakUkgOURkyLnU08oGyFYPjDseaFQWybuWKIzlOsUa6WV4uEwVZcGxcopxyL50soLpKp5SKrk5uvVGJFjxGc4oGeuaZ4l7AO+yOhLXOa0OTwy2AOdpiSmLRnOGIa7eINBPOGN1/6c/mfDnUf7M/2X+JclUsaaA5SvdcuSAJbp/n5cD1ss05bhT0WqeQFjFJjYFB7pjnysOzojY/vYqVBUjVSUSaWKpUO3jnnMuydyz6Piw/Y4E3Ts12KXoj/QLdWZokxlGEHTu7T7fmPv8gijnZt4X8NZMtmhnCOd2wzrcEtm/ABeC9Do+GWhGrBIJ+YB7Gfi72Uy5988X/KXvF4iahlg8BJKeA/LMtBUJtG1TvdOwFGoOx7t7hj3MtShCCqAj/0qlMOVtyMe2Y6OzomcQe+wZg3A68knxuNSUAiPM6lHqeDp06IrCubn1a6UqmOTb164Gbcgu3fTB+qU8CyXKe0Q/k7ybqQzyNrHOuVuucy7wi1F+7tsDsV2FeoZxsyopRBphg+iluYZj5cAErxE9AX+sxjhIK5KVH+dWz3d1RNerBJW5VHLFPqiScOPCZDKU3wq78yh5A/+EYgqlUMjBm48NT5uzrWA8Dwfi1IZ+SAPjYIUqyrmCHeJD/mNLunsyp42hSnVbbyXa39EX/Jk0ahLuAGVVDz73txXnIW1oBZpSn6uUEtGTTphN2jHf0awk/rliLTztY/9tbwLvziIW9bJeJ7uaHytyIMTai6V7Cmmx4VL8BMuWKoQxXCLvQohvcsFuict2fFpLJt8tHwOeVq+i+0R/GtNSnbm3b60KUFulSbsJRfalxIDF2PXFeuJUsBQ8KXBZ5IJNeARjzUGEPKhdVWbQ/iZxxzu5OGzbLe6TlsEWQAdOIj9ck29gF4Ec+Iqw2iCFfASGnDrbXai9qXyMKfGmjiRVqFYFjDRyooi+S5lYkBaFCk+SpXFzOKOOoF7Aj0TdZC0UnfwPOe6355kOIwSwS5ZVC4Hw3JsnH2/ctu/izVfc3pxKOtquMszhWftbtJO3vOlnkErvyYc/nPEBWHHQjWzJfUZYEkhYKKuC1Gx5d7JC+BLgReQ9zXmAAspD10OTyrRdiwLGG88J9wOYypU57wqE/wAeiUxOOLx5Kg8wF0ofcA6PWCatioUyMekNUmL2TUjvN0cbtif91/iIrxznbkegDVq+zP6nw1P7HcU6hmfCbFq94WCiJekiWAK7vIF8cW0XcysLHaWnceg/ZquSfaYoY6FAZa5vZYvxnxXMhQqORJtJRInyncggyiZlk6+KiqX7/+yIDoeOBVvv3gtunnN4eT9lZvlaJqV79oRRsVPXPYpjLdbOTRk8ZtsAXxjIO+dxIU3/19WqIWnufW1AHcDyhrZvyC0FF9J3mVqbCpp07b/HHkH4s6BrAZQaPUneS8VIGoxqimocYc2lxLwDQoi4LpUlc35VQo59LGeEn33F/0Mft2W7AbMeFEW3y7V7E/kLwSLS/N5AWnkNOc4Ywr/q9wsSZXkL1KorpZZ0D3B96Iz5hfD+/VCvIvR/iH6NHD0g8bWhy6KsYdcymQmdUWZgjsQo2C+rCbfnQxVIhWWC3yvxTXeDCPRaCctuFNgD31KMahVek7dkOe0nRLSvYzBfk5QOIfge5IkKl6yGPlYwQBeVqiFsQTzFXaHb0smnTyY7PDqtG/1yTvCHsafJZvDWidXsk/ZGnDiijbv3o7yri6rUJQI7PpHUdxN4FV5mJ3BReyRdc+7fNd3guk7Ye1KC3gy5vfizzS+1tNF/JHQamG08qjha6YL0c6tsQWu4SEusA4NLo3SvukjaWX7DFBJJdSK9mJInlz2sqFMZnJYoXbyMof5OpRDE8jc9I7v4xZcbruOVsG9RNVVv0tTsZdo3FpySunOz3lNcmfjY0l4OitlQQIqov5qa0oUSgVweJQ1N+UsyQwJrzR5q0ynaBO6mm0s4oUO1GVUNZust0tP6mCsNyDxiT5zpuvoBgOnQgXvVEsQpgO34YmOW8NWvDk1YVG+kPwMfwaEbmXwXKF2GIu4f83c9sM7xEmUul2Hyxe3+mtRVdUUVIrG7nDF5wpcU57n6zB3dspOS1rcS2v1wCT6iKez/C0KZU7IAXst1GxNwt+EKMU2inOCObo4O811zpsa90apTK1QiyTyysrVMFMtbLRN5ah8BVfY0G6pO77wVM5gFcRylGu/eO3DdrkObikX4ZX5wrmTBvMveObrtTLxpdWa3wofTJpg9kfSM28lFttMyi/EmYMCL2lpQRsks5dCJnXmtlZc8S2kEjxPZWAfsU40OxtYS3JGo5+xd+n8/oQ1o+3mmG0s0mzd4KQaMDRKu8jknEnWxR44CpFri1K6e/Ns8+rqYvP66mxzdeFmu1KOyEuhmnQ1U0q1lLaCQc7NxGdOxW6K8ONmeYQ1vMLFIzikHDFs+1q85AeaMRfMaMjIJsNUMZJHpJdBRQbSt3gS6NqvWFmokqsgy92eJfL+tSBMgVWixjZxDne8ufZ8RbgVIK5OTipXNdOYDCe1t9datbqybj7Cu0aUd3GhLl7ydG6jBTlnq6VD3x1K5XzKFfAjrkeHNxCdE0n6NOK2XstjwJy8zmF2dYlCXZ7jH23wMuTF6EQicHcIjfSlzLhON9+CLKDGtP1TPyCIE2UayAvOzAos860uzFbl8AUQ5KYQKBPj404mT+ycsK723Yq5nzLHi1dxKyY7Q97Kt4Ww+VsFGjYz7LBpVZyCVFjKdp114mRkIRrWvvipPPyCycfVaZUG67I0gpLayMWnwlIIqXunOXdSma6eLjLxVvnysvjBVya+9NXXBlKxZh7CsImMJ1T4+fE5OzdPUKRSKBXpnJrTOmkFLUv2mhcZ9/16Mz4YL623yruQjYByyG8UJ9Cqj66XfQplUEHNQ5yqmwi2MKm0IBBUAX0NtYhThDt5BvfgraWZiUpgjPghIU3cJ9rn3AJqZG2J2T+shs3xkN/c5lysIKuGhWnEIUTX28dLhZDecP1uPqWywS/GprgnNi49sb335A6J2YXAdvLNlrALk/WODwIYZE1TRvB1jeni/Hzz+mKzeY0ivWKYuzwHdlZfwlTJqyNAUUSpO4g1NavJIg2mEVjmtT0GjDhl1hkPTDkCKX+IMyBf9qJOEEfBdjRml6E8F7cTWaBfCLR0uyixULu8RGzk/XATF0X1g2p0K6SpxDIsTNPtuy+VIqacFGGmV/0y7qMome8Im1zlYpNVg0uz9L6qLpql0roM4hj2Muz6kMOeCnOBRXpke4qJ2jw/UrhlB+fHayRl64rmP2ZqaAkGiAnY0+bdq5PNm1dHm1co0QXkTsaVN2jgiLa6lJpoSVv+mhpslyigElPiGVMYrwhzMZqj7KO+QDIflylc+3I49woMuDzaRY9JqamDUianToZoYLfg7TcG8Zlfg5/7YjWmTJ6tQzXC7MumidbmrKKsymQlqChpk0EhlW/i3ctdb/1HZVFice084p/SQM5J0oBmh+syqrSxHjQCVFwlS6WXyU5PLLKIWjil7iqUcySHEZcGZJxtKFol4tc3d5sPH+5QJpqYFpL7I4IdscX37IRdmVc0DEK+RqGukPUcm840LJe8ba5un5q823hcpM31VgCBdVXnEgcHSKqur+y1cmtMLkpthwRBZbJz+KChUp9B2EOu9MpStQNLAjU/BDg7M9Ytlst4hA14Dhbgz9135lBF2iI99xtSApQyWYw0OpK4zUMcL57OY5mub57Ydut+bpXKN/VcaJPbQNzU7yT5nGHkNZX3hmHF7+B4KEsWwyOMQqQCpoIXCvd2I2e86v+q1bChg9aPVVRklxNOmKSoWNfXt5s/PnyiGLQa8rj2aeOcoOXOla5QrKOjy80lMvJf6074UVTwdpUJHotqKBeZKVbEzi2Rqi/TcYBFsePZ6W6pp2v2v9/eVke8Yx+8uyXcNXGKTH5xc0E98aCJTKVYT1jOdEZ4JRcZmvWiNEIF4hTYYBAbnkiSB1bCf+5WTPcUqtm1v7KspjHeiqQQpUxUv8HI2JRapc/Xm83HT0+b9x9vUCq/LnEPEVs+VCgqKN/Asfp4cXm1efv6dHODFXhziWJxbWh0FaCUigANVcXuwrdP0uSULmNrHpnt1loxaU+iBM6J3MZrb9+i3J9VqD8+xUIJbJU4pdXeYJLeXqCWsHSR1Mqy4ZSp5BoZp9erhpa+r5G24ykz1/BMElvKm66vz0+bj5/vkItPvPxmkKu24PBd4PnF5hIt9ynTZYtXV8zpsOyvLnkCRan8+ku54sijJJntN5C2UElVEJ2YHQ7gu297CtV8ZG4muv2MqjpLwVSoGibErAKUeVaZfv/wtPnj/WcswGcqaVUoe6OVVAp1hkI9onBXm5ubs83DW3cf0eg0pHOF7mQsTY4czGlPpog6YIRj7sWy8rhUsigAKJn74GthnIzf3DxsPqLwDnNPJEahIDsncMLT3cPWLcGrIpmLV5wJS8DIuIKwYAE3jATDgs+qZ35ac6pn8wed748PN6kz6+vm5h7Lfh/F17KfXzygPA8Mv3ygenfBMsglaTCQP+XMS+oUFBA8HeGVqFTKkE6/oKXKEnTc9O91Vd49hRLYGRfCLvulaQCrTOsQJ57DiUMb05LNv35/2Pz3rx+onOvNHx+vMeOYbkq49VEdOnF5uQab+83p7REK9bi5+Qy/h1eoKN/E0dhOOo+ZK1SRlUdV23NhNMHIQ3ydw6SV2q6DKpMWSqtlg/hVDBsv+crFWRodwnQ+QPCjhSMEaKVuevU04VSVFENFGqEz1A+xCfBDmGATTT5A0ZnMMf/4+LT5799vNr+//7R5nw7IN4N3W2SrDyScoJ8xqbq5PwL/EcvFh6rU6b1K9cC3Jm99d0nZqS+z9FI8L/OqOqlpQDqZIi0YhbmOQqZ9n9tTKJmYU2pqcEzOAy6olKotUwsdwbmpTO+pnH/9/mnzv/75BxV0vfnw6TaVUNpBj8c2O77nPAGHJoag81PMvFaJvGsexUo0Q5+VpEhKYU8znwoTiAUitgMEDkY+bxITc+Wfldp0VrYKpduiPaVQYAFXmZxHnaH4yqkVLeUr/ORFfmZtUzmcrvUlsIUxHUa5zMwnTPiTHArzIuzU4CNzzN8/bDf/+u3j5jcU6o8P15tP1/dZL3MTn4d4+EBxirW6zPwKxUITb6nsRx6hnx6vqKeLzdUVw6LzKfJpZ17mrlQ66yJyL7IZ70sMZf5W1+VrGmQMqfwC89aR9mfmplflNLRFUXAnlU7A//hwv/nw8XbzwbnALb3p4Zh5k9bF7nNO5ahQVcF58vJxHrt/cvSA8t1vfju73lyxuv3qijUjaueCyXFVyjwfGBLQspHUGzkYW4qn5ox4l0Y+SQ8+qTbWo5NxLkyXI4gzri1fuzxmOC8rDDh00sq2u5XwjLGRAqbh27mRFhMZgkoiaKr1hQFiyeJp8+v7JxTp8+Y3hrsPn/l+ECt0x8a9B2SL5aSuXITbYjFvtch3fnDB5j6ULV8vw8u51ds3LuISoc6U0TzwckUswlU/a6ykEdqw6rSgfsXJuWlW1C98lydBuWqiFsUKrkybnX4UCqW4poLe08NUqI+f7ngs9xs2VqNpoJwZQEXFQtmQ8MlFpfvUd8I3cB8/3/OUt928vTzevHv7Jk80Wikf1XuIbbl8TI8M3LR49cSl3KqNDqmiVBVL5XJrUAwccmT7CjTOqbROzqceVSjT5DUKutATbx7Fef8upi4U8WWRC5C+iutTL7OBza+/X0ehYpmY091RX/cqOf39EfNYZy2Ugt9v7xma2THKB4cPKJa16MELb15fMURipXhadi4VPSYPXeddMeIRT6iuU/VNaN+0P+9eGPJklFwnjsb7WsFmrzK5eOlHlT7yfsIyOWfym7gtFfNE7zqidz15YaW2WihKVcsMNFqsFR9h8tn3DZVUigg9w6d87ZRzMQ2Xs7GtUGOjEsWltcuWIW8TDqKUSpy+VBgfj7jq2zw5geWwrFKhYYM0WaYGTJ6BJUzdk4FBAmk5kYuHUcn68uHE+nKOmSc75kUqE6+heeo8i1JrQTcnZwy9WHbrwuISsP6o3M01Zy+cMOzesEB7d3+R5QfWYuPicet8oYhY8RcMYy2R/poalD9521WohZ9Mm3H7cl7DswgW0k379cn3FqvUyqSy1JlLDncP2GJ7vsMJdYEh8f3ZaEyGO9/X3T/cbK6xVE5I7cHOcdL4oHeeSrI4h4N2jbCKOYiGQQfeliV6KD4KpQzHPNEtS8/i2aCkKef+vD/ZdR7h0QIIFKAvk+ET7kY11aJ7qVDOOVdlAkbdbDijygeCJ60UCnWCMh0xR1KLXTlXs9wj746JOzrg5yiUH7Lu1hdZRJqphoAoUzulqZFnVFTiuziN+23+rkJJ0/XRlbLHp0TYBQbGrZ+YfAK5Z7Lpp9q+6jg+rgrCfqMcwKJUDJxPpMVC2Gh+98a8AQVynuAL3LZO3aDms7hDgnRiEEfF6TnPApapSOIBDZgKXw12xMJhngDBOaYBsyVmUtjBcadJFlO1CNdYCmN4V5labH3LdUs5P9MB8zbBuSSKdKRyH9XLbBXaL5ozjGVIdpLEAWkOhyiUh34c5WnQqUWMVvgu4hBoZV4l02I62VCZxPRaU4l8t3uuULIK/90MOts5J2E6O6Jv9U/ylR8TcCpJhfJjSLeI+Fb+Ka81avhzgll1bZHIjkrzoozB9QymmHrTuHT63dN2JUty3cJsBBEqQ1fDmtGErvIomy+Pnc2eMPtnCx6TX+wpL+1cLDwFSbw5T/dTleSDWSzRfgZNtFLOoiRMkkrlGpOWKMPuUKjqXCwEs0TwhIyOylaRb8vK6p8x53Qm5tc3foXjRB0crvqQwjoMwahDJR51MsQ2eXUDOVhttXbLveJOIcnWIiLdS25CnPAX7E7Wp7wUmsah5o/QjCcmjtsth3hxoJfDiGP+Ee/Kjqm0Y0qpYngSnM65iI/PTJ+w5Ew4GRjdrMQ0PorajSmNFO1LqxNmDxy1JqiACSQnkvgDR1l1Gh2XAs447+nq/BMPAJ9QprPN6eUrGo1hDjlPOWnsDbXDe+HNOdZCTrpqLLMwUx0IaTnD5mCz45blBOPi1l5GQ/Lq6+iROuLyuz5XSLJHi/QnNU0lYWL6hJxaT1l6eAcTBnA5/Ix6Ot2yIvp4S5Xpm67lX6WLdVes1HfnHoDAceEt5TG8H3seLywRm4e+pdTJv13BK9b5jjSTGrXR4gukMFbSBXuP3ry+rHdSZ4zrlOiJg73yxATyMdaJJogcktkW7v1RrjNfw7gjkhXhiwu27oLYK9vmM19E4+SxCFWg6Q5FrGEpcR7BSVWZtD6//LTZ/H//72set53rveKqhwatwynbfK8YXf7BguFbXm9YNvP3ZoOVa18pDKs8uMzYhRmPOo8wQyuhdvJ8RTl/efdqc8Q61H1O0/Pd3S2UPL44/+QV0CmVIG7KijIdP/Ey++EanGve5z2yXnfFbggsKq1pR+1OaJ0yTU2dlyzNpf2WZlXAyqPLU5I2Vsu9+s9TnluoXV5VCugk3U+ScViSoGIYvmD96A0vma6vt5uPZ1QMk8YHLI9PS8dYq2OGxXoKo4jQeLVCnTM5vqRWfFelYrpcoPWz+PLui+BwZkxwaeCGTz61WpvPCuYL4WOejC44NuWXdzTa6evN//OPK+ZsDNX35uQchXwJurPg7asN7/NKocwsMnjTmXfckKzhNHo1oGpR4ZqzOG9RqWAOrehXUajXTK550jvi9RRzoi0W6xEzenZ6Tn34dKxckIQGhXqkPlWop8+bSzZp/fLuEjmpsyiU9VXyRhxuUhdEBR+8RllMKbG9d5hgClcpxla3FHoFhUPRP1co0Zqm+Rkn3NHmNMDpETY8nTpvwd+yJvL5mndOrPY6fN2yUMdUAL4Oh3WIl4/kcTCxJ9mAZyjcFfOYN69d1OQdH23rS9nucVUx8hlXCyoDnfDZ7YF9ID9iqDg9oYejUH6nd3b6uHnNy9V7BHxgi3BmGgx5OZzV8iADokTps294NM+SV1eC+UaxyTT5mqAyUQfmG2tVK29wh78WhRe7vID+ibfh17wU/nzF8OYk6K52kR4RfuK0PTugquzO1SM65yl1al2/otJ8gf0O66Slu4BfDpYlR0Xoi2Bcd4uK7VfWQIr3pTQR5vQUdiFGrO93zcoGRxeyT8d9TW9en/HkcsbaCOxptCMWN49ciMMcPdADn3i680mvJqH0WOyyC5fnp/fZF/X2DW/Uo1BUEJqqsnVekTYRNRS+ZG7PTRl3kKpcnVR+9V2f3k5PVCh5q1Q0OePhI+/EjnjaVHH7tF/TnLhrScvSMTySnqwM6Ibv2lDtT7ezKJ89voSSp/ZKxVIKMdz1+ZoF3HvK+1mFYv3uCeuj4tRLYeXCtsHCLNTXk80tdUVnZY737gLLhIWyrq4wT+6Rcr9UvyqqnPfqLvJ0CkwPuq+lF1EX31hTPFeoTpkzOgQbTGRqclkotse6/YQ5yc0dHwU8MJFkk9oJVuDkxkU7nlqcsLtEwBrLURbsmGSeXOYdlFtF3r2hx749442686myUG2ASqSYOoLmTJjENvAp4CilMg2MNK1U2gk+hiJ/n6oYjGgpHwhsZvksT5/CiIaeW/acY2Wdy6jcbTHNQ6evUkexiamU6zwq3MHQ+qlK4qtQZU1esaKy5ZXJ9fUFL3vZj2Lq0R114lafeyy763OlVEdU8hkWlp0+m3eYzp+vfJugRb/Kq5c8lapQZDLLBtMvxBtTLF1JuIYrVLXR4Zf9Uqh9ngfxrd4Ud0kV0qSGrWw3fbmr4D7bPi7Yw+O2C3ojw5+bx1xvYVkuPT4Hn9qruDKZZ+70t5/PNj//5A5JNt75otMGXPLhCTDNTG498bXlo1g2EalDoFkhVBpWMjLs5jhDFwV91HbdhlFJ61QWCiQsp09Kzutc+3HItefnOucIH0yAMtmBbLiIoycpl65EsGoFFLCVvmqw4Ers/nTd3TuXD16TX32hc8mUwbcGdyzGxUJp6cn0gpfVb6iXn7BKPzPUeb15c7VOEcCJXPAszmEfKRw4lafhKna59o11uP2BssDlYVqVq/wVtxSqafb94JUQldTMjJU4LZ6oFuTCCqI1XKh09fkUhVKpLpinXLPgaSVlMg6+ipRv5piAX2Cy31yebv7GU9VP7Il6haWzEVdlKhtTBRiFiVKZs2l0zUk8IUbNy/mbT5t+lHBDA7kY6Ft8j5t2SNn6ugPF8mXrhuH4yRfZ0Kk0bre1k/g0lfOhSHMYLI2iFkaeeotLBGIXjyKFgLJO0TqTAqG+QHFIxRiRJO9X+UrnMq+v3A+lQsVGsVnDedLx5i0PLj+xZfMnrNQ7zPgr1jau2KqcDgg/20H+u26WcFWlFbMp2t+lXmOmz7zWFEOW+LALXwn3r1UEU3Z7HhaFuck5JXqNiXDrxym9+pJtFW9uTlI57uXx3Z4P8idnWLCzS3B4QqHhrlDGNzxRub3VylmVyZy0TmX+1yILF2uoj8MfIK2RVkmor294rYgi+ZrDXs87L4ZdF12jRCoSJuDRVXysVm3KqzIew0wd883+A9qnEt4h1zkNesELM/pBlMH54yoTmSpWnLKZKMBGtNQqh/AJDWKM8+bd67KIl1TAW170qky3D66YY1H5O2bSfY55fEW9vqbO3qDtTFdRdoZCfOVY6yxZLJmUfHT/BBYBB5LAwhiAP+mt/Gq1bY1PfAUeuta8SgSbrUL2QdXAHnKMtTmn+11QU69oyFsvlMmGfPL9HXinZ1gwGsjLXu+vFpxTYveUA7IpwrlN9ZrzHBrClwi1nwmQCqVV8gX1tfu0WT/8jInynHIVqg4LU1koZcZHcmPMko2vhJAq5XhggdZlj1seKhwubzlO+vLharOlbI9+TkUd5dggy4zcQ4wSMKLZxF6mWTsAzY9/k8X3sjM5oXYP2DuGYHQJZdJ/k/eJDyxoZg6FQl1QR5dUMg92+XAie6CgTf7FGo7FX1/+uvYrxl05hKplkXVJOYA8pUmaqPcqRd3bQu3kVKiF2ASzX4xXkmLVVNULfTCm+hSUisrHkmjIpcMLFdWfK3kiSnqVPqh0sqwWq24qk83Q+cjXsI3SxSEQVyoNnH/lcM7h658McczZVKZrhtpbLxTsnneM6MakTMpqjiNX5cZZ3w43Dzx1eU75E62cF9axaKyqM0SZqYuHPqVKVpQSy0FHgngjIZ1jCZMEngbMMitCz9vO6AwX5KO1LYtL34eNbyOsp1zwOSNTFbHzXvKX3yKDdTci8cTqRMIdBLq4GTYzBaGSZoSFqoe8ObHD+oeuldh0G5gZU9dXaEp4U2woLZAT7OzcyZymTf5EFOWxOZeLrLV0cWO225VGVQEu2VJVJKSzAVWZet6Ujf+8kci2ZKyjypTtIQxvPjh0D60zyrWvdgOvmu+Yn/w9WjEH5T/xMx1uyc0kXlvzCqvA2zW04YjhSHmVSjoDhr31p+5GKyEpCTr5t3iWWwvjhF/lWleuDGtxYYqGnMI8dSQNl69PVTSz9Bbf8HAkA7MUq0sYfmm9OWFFeTEkvwg+MJp/54zsggrtsN/p7Q9OEw3lQaVmHqpMKZS+glsJ+jZ45SO8XPupVEBWcq4pXTI5lmsKeKT1VsmtfHu0u0djmdwyiyL5Vv8ORXhgucJ3dUNHR2OPym1FUjIqHLukxHAkTj4Oj3lXmfkc79/Y4nLGk4UPDy6Sal0Up3l3AVMbETm33SKEZ9gHbl2qO9bFyDn+lsVMIb6E8eWVypurRAtt3+ZaqpKRAnB9ZSTmkEWvCQTP7ktp4BWHRnJu6EQhYIGVvPJr2D58xZhDpTgFKdZyrFB6Akk2j7IL7VJ0LlLGOgCol6D4IlsRVGK6YejEnJ1INkM1gNbJdSP3Zvn7Lj5Z5oNJxriaYKNMMpZMRzgyRAtoQlenh1Aq0zGLiD5onDIRfmRNaItiHsmfIfCEedXNPR+EMqS6Fdd3j2Et++ZfuYzqNS9rQ2eI/NAeO08EUrkoigoljpdKRTfIVTWIMgGrSQVpxSy4gBcXsDcK0zhBGmUL986oqSJHRyZfOLy+khyCSaGMHyKJVMXxmdjhsdxWCyIoRRp+hR1MrM7Opau2rZtjPpsSchleph7WSFbWV8qSVQ71xGiKl3MjlwOcjLuLMXuzMIs5EVieVqKywTMVbUZSUvE5lENfpeKvrJELs+A6ydOysbDoE9c91u7kwY8vVCgeLlCmc578lgk6XM1mdvJMPvqLEzZkUqGAp7iD1toqpRLQdt/QwF34VGCQJTLX9DNhBn0QZ3GKzVfu5nKYaE+hXuIziylOx9ufYOSzZleNpqK18ihGi9K+6brqeeUHAII4SU3X1QQIWa+aj0lZrqyTX5PwiI9WufMzHxzIi5bKi1Z42fA2XCodnk8MKbFMsNI3z7xqAcnJclQsAoogHx4wssHNn0jzKbXezR2hVA596t/iFFcn4xo3ZQ5gIC1lAgWYUVPMTlJRu/5MKcpgkrq64taZCZfRFE8BC8sy/O9w36BQc8azMA3f85U/gre4pPPveG8Z+E8ldWoXV7gVmPTwaIzCr2qkZUNtV7a/i+jkuJy+T5HZisx60y0K5XdtvmbJMJctx+aBQqFUTqjDjzHW+UXexclNObnyRYmKHHVCpVSuFAQIPKNQbM25g88dNXnL7gAn1W4jeVZQQKkX68ZLPhZ2ccKJ5KqEUixlB6xA5r8QtYqJK5GuGVRsvXe6jFZoQsZl8ZL7WvoenUUnj8pl5duhPT9aLYwr4T1usuGai2o9DPbVWSQFx7mOzmRv+lYgT+iFb7pXEgjSUFWZoYCHDQw8GdjkdbltOB9HskTh05tnYTpVjEzE64MJlQT8CKHt8YU1hK71qFxcKlsV0ck4ShnLUnqQhlVWcBz+nJs52ffypXdER7ZIKl4Ao2AB5oYEJgwXJMJkmpV6FW6kZ8Oc6YL6qlwGIBkQ1hlu/gHUbcrqWfpO2mHyidMIrvLNaVGoymAWpAWafcPj2hdgiic4WI22nvNLeVWarj8TxTuIO1MOng2SXiVRoUzyss1LodhPhBJ4Uu+ZyxU0sg8EDo+1Sl8E4aFictXB+KxGu7N0sVwIBmO36G7RGlf+M0eCVx1RjbKZTsYuK9TSgnmVPCmTgukstNXn2kDcSBA2xzusNnelgOprmUSjaCCFTh59STh4Lr6wdiMjPdFG9CDqnN7kO34z2QEmgkI1Z+Mdnv0RTndt+GDU8hONgkzxgbF6U5pcMrQPds31GY9OsIUIp5yOekYYinysz/lJiQt3yGOXKMOdT2MqXIY34NqpKCBM5JO8pHOinVQZq3a6Ugl1QKfFcDh84v1k/MjiZLlsu/xUrBoGXTOqS3iLG21Q7GRgSuUUOSpYgpGii/RDqWJdhUimXlp56uXCqyi8/2knD/l+za0iT5gSt/Dlsy7WAPGeIwQWZRp8DmTeBV0E22c5SOMN+qWjjrQMd6Z5jYaMOMSzv5qhJQuE1iSt4p9wT/Z1hcZjgWwsh6Y7FMqVcn82I+PWIv8QDJ7VsFqaMSQWgATzkWM1YM2rnG+Zo/xUHAW0ZblDF0XVJ74lzZV451+ZmAOL7yuBFM4C6soviVSfhgsxLN8RTAC4PlfOAjVtUSoj7YJMpDg39EW/0fcRhH+BRSt5ka2IY8gT3Ka4E/U7XGRVwhfCFpSr20WsyORtuCm4ch5ZRClF4Nrn43DhsHTkRKoddBaqLUPqVhh4WilGIMJCaXhgKcsQwCwrD0OliMMYECct5lOrJIE8vFQIq8umr4m+YfPXIonZw6+5CbMuRs6ZgwNenQS65BXpwqM4pSAmVkIQuSUT/B72FsCMMIct33/WucKCWJ3xvo8wXfD2lW8OG5eMOk/d7LFYUJdA4RttVILlmk8n6HOVFSEwKjJKJAXWJb+SIA75hycBfz3BbSlaMK/09eRPGD9ByMsfmURpaP5YLJWMyTVJblV+YB3rEatz4kvtGBon6g54KnkNk8okzRGW0l0BeUcpa5xrY+6/0lKlCMnSWwujJCUNXPIvXUANbl+ypeYSEYBrBP0ZnsT/TTfz2c2LGtLkv+BaRpNF6vgewWyVFk6NK4BwLEAnNn37wBOcNDIWRHwTkkEhp/cDsgHl2UOn2cUaAHDj3jHnI7jibubZkhIhjONatsEj2mjeLjhlaHMoRDnIN3vfVUxHQT9aBUXZ/DTMibzrXvL3mCKFUR6yL5FHVspqui+QVSp1skpjngrJRf67r0ZEMqMx9EmQ8uDDp+rF+R84S9kMayL0KodCDDhoJgVBVF2jdXyGBeFbbjKpSxv+3M3M59TOXNiMM8Nn/IRBJH1Uy1qABa+qpCp0AKkMN+hXHlY/NQiPUfVRJqZISe56UxwtgT9IfcbLNb9A9lfPa2nAVBqMy9COk49AlUeFMkx2BTPgqw6VoRRCpWDLYA1zNLZPhVqjEz4fj5VEzh7uoqPhDXtq2g5Q7zKTHVwBoF7eK8P2LSlQGeJXetEHHABJcT00Oy0QYDlDnQ4RlL6ZEJyBIHw/Luyb3MxsJXCB5vvcTqFgsROXqY1nxXQGFLRbf8lRnMYtHqP64MdcCHLT69CvUkmxbTAvw2k08lb/xHft6Zx9Vu6AvGe7SvXhquTgQ6Nv5c/SFbNSKifi1So2+fhogbZVmUqhZMDOTvBOVCjtPPk6cZdOvsrXGbjY6TWBkKvioENCLJZKDOMlbzAaMfBxKyJRgylVnj4tFP9WsyiSPqvzWD0SgjG8ylbgdzhzWl1ZqJcY7uKuVDtwifsSpcI1se0H6xLflCYtRRJbqK5Vq1RK+kfGh6wdMU/xgDOHDq86Ja8VTivhLkoae8xd3PHo+zxPeNuyUu5jdk2wIU6llxRWuE4J+jJ3h7m80kFhhIuXuQ/DnsoSOVRezI7K5LZnNwmiU9nlcM8XLD4UuHQhg5xrzi5Ut/r6zk9e4QkvJTHPlDpioUzI2EpVwyDYJfLqQ6ds5UzUkuPXOB+wXJqs8MY9QGUbqY20MtxBfzki4S5RKdTLFM9TOvOkyExFeO5XU6zknW37XTNzvLgURyfifsNf3/j7wz80EN3eVemPn7ebT59ueIfGtlzMkl8c//zzm827d1gMSnRJF71nC+1ncPwOL0pUqkAQBcvTWslm43a+1n4PSXliI6EtoMUuJSmlUkFPeW/nt4R9Gq9zdk/v9YysG667Oz50RT4/InjL9l53Y17ymZm7U1WooQJpdGVKnZkhsvZk33y9otD4cQBaZn0RxCmuhhQ8gODtt0VRD6IwKNzQzHHBg8/AWLyRy4RQiC8r1CFGO7BWpBLPnFoW/TbaJVERluKJueJWzHv1SS1A8XG44QmL+A09vY9ZZgPB5r3ndnIUtBbI7/w8ve347GpzxSnCzmf8gNIPI/yc/IT3edk9wJiY1XCziqtJt0GHCDurlw2nDHhx+j2EuPqQp0esgGtV2Ynqh6B8IOA2XC2Up8b8wWfl799/4Du7G4beLYrOkTvv+OT9Ldt74eHnYR5t7cY8lWpVrORGhjDKqyCtVcnk4n3LpGBVR4ZKvjY2Yi12Scs8YZZiNRc5EDa6w0yOuBlWkAOouxzN97BCdZ6DUbwJ1kJWnvO9+0L5psy4jjZOkjPqeEtL0RD4fuzpMONDuA2qM0u2M204KZAT8TjtzWMWOZzr9z8+5PJrX3N6+5bv0q7eYgle87UMjYslcPg7Y+f+w7nnULo25aRVieDuEOoaFZNw97enCcjMdtRC4SXziAi6csRSRfAHFKcm4ucMdX7YqkLlyQ5Ct828//g5B9a+f/+Rs7LuN28/PGzevr/Z/PLzu83ffvGbQ79ffOJjDPaFw8O99OaRfPGVUjXLwWLkLzyXMpqUW/lWoYqsMzy7HvLSBsiu0olSaN7NaQAr05W8kNb4CDVVJyzKOwDPFWqf0X48Qqxq0nLMFklYzZ6YS1AKGzKvJRiyXL/J6xJgWV+iFnLmAfML9xypTOhQlE4ZP7NR7j1zkl//uNv8+ivnUP72x+a339/nciLux5d+mvX23Q3Dnt+18Yk2MtvA5zzteULu9ohWRm7XpB5ZWc+LZeVymElF+1ECf9DFQuEbjhJBif6MsJN8T4zDwrCbzm8J84kVCpx5FQV3U59HQv7rtw+bf/36nqH5dvPq9XbzGoX6xPmjtw9/3/zEN3ivX/NBrJf5kKn5qhd4KbvW0PLlHM1IV5ZM5WnFccK9KFMrFfSz63axxWo+hpDQVZdvTHP9dhcZX0B/rlAz4k4+pToKtoZKxyURVmk0GiHnNvmyhFrJR5XOf4B5lmYUihbwySi/pkDre7bUEds/tBAu6Vj5n5grfeAA2PfvbzfvUajf/2Co++Nzfkrj40eHMKwQX9j6I3ieOHyKRdo+vqWhfbZjaMECYAs4ixJT7Je4vlJhKNkyIcvwpaKrCficmQMFGfOv8YJr4CdRfBoTWL4vZF53lq95+BYOzTUPHef658Da3/642fymBeVo6A+cMWoZ7skzX9o8fcp55G/fM9/ji9+fmPPVxZMp2Tu3Uokz2qH4j55ag3X1DYHK4PKFndChNudxMQ46ybfzOOHPYqryI083nb7xFWJ4xhjx1tJCFvhFt/IttM7PWlxdQ1fICHUu7StS6/jss8BHS/l23oOyPK7Pz6YeaMD6sNI0Fcrep0LRfrRU5hLMQdyclsaku/7zt9vNP//5HgXix30+eTi9ykWYQ+qv+Qr5hh/8cYg8Y3vuI6eVnJ19iKweB/TLT6/ynZ8/+XHK6XRsqqQRsFLIVgrkpjvKwnaVJy4GMMIgZUZOeahcS+q9nlaRk7rxJ85OsUyXflipMjHU0QfitEy/e5rv77+j+MjN8dAep/3ZyTmfYvlxhD9TosK9faM1fcPR0ZdYV55IqRMn6x7MkSZA7/3KxrOh8vEpctWQ67xS5eEkdx5r/ZmOzMUsiuVRKfhX1naWo7hWd294QysuQZW4BBjRSlxR5vgL4V2FWpBKjCWazCrLgrXEVfFi26PzCTpD1B27JPORYo5GbKXSUmmlVCbo6HGuRvuTq7nckI1CebTzIz3v1z8eNv/rXxwE/zuN8plJLcPe7Q3HJd6yxsS+ow3nIRzTW49QKPcl3W/5aQ8a1c11vhj2IAq/THZB8YSPCbQwLh8c2auFofB+yJBzDrSpWK8n8vayRTLFotynNNQZdH62dIkVZYmr5j+cK8B3qlE+V8t9WPj8+SMy3MBXJZUPB4FkGD9HoU5RLKAcqmm4fhVL+Vnnwsy8ct2MoTMqY4+LhdJK2fuQnUouS+X80I7JthnOjnDoPWcR128EVZkz6rUtla1ULcW9LdBoS1tzqBBYusKs8PPoAv9KgKqdlWcK7/FvPm2Z2hcuFXWVhrzhXPIbDsbwJy88CTjH5NDAVgB1hDK5P2lVqFoQxIxrnZhIb2lw6geF2m7++esdPf6Wo258HIfu0cVEVq4x+ad85XgSheQUtzNagwp78Gxv+CuL9ZOPSPXRPy2VFtGwX/+eoU13KHgpVXUIFVnlbMVy4PToVn74jM8Ln4ZCHUehtCguE6CXNKyTcSznzSeUhaUCKuSYRD8fO8PycSTY6GwMfyx13PGxwxGn0h1z2szJOcfzgJcPKbBipyo9VtM1ihx9RN1FoaJUUVPKQFmB359tsVKUmbnc1uO6UUctlSdQRX8oO/9VGcIS9qYy2YLVdivctN2YkD/jhkIh9MJH9Wi3AAeg4+2XQFagClOnAJdCeT55nVGuItnIKpFKwdMLfq1G++juezeyp8IetWCwdgp9fU+v5hcC/PTphl56k8PAeL1BpbkSfuaVfdye7/TAEx4TXM5EyBICSuMTm3ydQB/7SK9vI2NlePCj4T0dBiuF8CqF022acFEmlepkWKYL/AsEvETZTk45m+mcM6aYr1kLGssoKjV55iSdxabXLA/4cegRinJ0c4r1OkORHGZZ5qBD3G/5nZaHcyboHHnE3mF/58VPX1QCV+I9HjETaOrNnwsh+9SPMO1QzUHhR8/JnBSeInmWRE3UCVNwy2xrKmfdq21VpkrptCBMt6KYAN8cLIVS4oOu4RajnHrd4jSMMlNhrhVhmbRQuRwGsDZUSrbFptDueHSTGrU2iPW08Dp0cgPJhvamcni8fvMLPZe1HHq9PfvJXki6L39VqlecrfSG+cxPnK/091+ONv/g0s/SAdaurXyUiTErcw8aecsM2HlLlEklRqkcrlUoHwh62PNsAxXJT76jTJ4chwA5nigrZCgosroS/o6lCz+GOD69QrY7lgYeOX/cJz7XpR43H7af6QBlXS8488hfljplAqaF1tkptaw2pW8Fjq0vn0K7bSlE/sgfaTOsuhdMebRKvnI6PmHHqQ84kPqsIrNVqWw3Oegql1KshiXh375RHzC3VXXJrSMNKBFMVKB9J7ZDmesv+dS7509OylEyK0oce06WCaxAAcL1cY1jhaqc9kAPoviJM6L4AmDzwEkkjzc3KBRAev4bzuB8Q4P5Sws/c1rL334+2vzX31Gov6lgHNRBA+e9G7xtLi8l12plfsQwoRI7PfHqT6zMW0T1XaJ8a4evQjn3fuJwVOdHWro8cRVaGv0nFzc5/vkSq/man7J6x08a/HbJz4zwGzZnT9ccuHadenK4P2fh6TUFvNJawpvuUd/mIUu5CmiNVahcsU42PmqA8DV9AI9C+eBwxLyqFIo5KZ0J3Up5IVuc/CjFiA9FTPqEtGB/PSDVqLIF2Q6GG0lJnZkbbovUfjGxyKKrDH3ofSzTOAMqcyaHNnpbrJKLiGnRopO2C6ufODAnz5pre88xLXzHwa9XJ8xLzq9ZDrjk8inuIk9yP7875ugfrAOLOb7acMGQ5OWgDft4laB8ouXITHiGF/OmG6vcaUbjg0gvQ2aoGMJo2TMOSdMadL+WxnxcnPQ4ds8aeM1E+R0/eP0z517+jV+V/IUTwv7BMPiRlXMvz/h8hbJ5jOErlPvCD0mhi7zKlhFjdMDkXTetkYLmRTDzSDuoZ3FqXV2h97xyPhZkPur8DXmAjwaeuCj5KODimyxsz5HdQTehTsGgloU6SCWwM95FMB8VKRc16oRS6+QCo76Wye0jzkt4jJmuSSlbEvzmZS4qlOsqWXdhon7n0c+nLJWf36A8nNr27hRrdLH5r3+cbf72UynUa1eqySZPclXn6Yuz9LGGUwXZVy0enTkWwOi+a/RamKU0KNJJOsUO52ggo2+GPkbfzSPKffuGdTQU/SOn8f2d86l///lk89//+n3zT55ctwydl5yneYkWXjqxZl7mBxWqqXKpTyovKlFWhgpa/lIQ0rGSYvhbMM7X/P7+kTladlu4TgYIo1Xfx4LXZZFGvoGEF5DkJbxSDS0EiXz77bBCha8iTAow8hAa4bgpj2EVwg1ktQfJCTg9B6EzRKJQ+fEbCi5uLvjrz/KnUwZImh2N26V2G6tz8jfWaujhP7/jkC2U6u+/HDPMcfAWac6XPFtKka2XlinxkcVgu1jEznrBAaHDps1O2qxZpTRtlwo/VpQMlT02Cyby0cLlB4/8pU2E8gnxCnPI98WEz3jQsNNQLjrMqRN8VvLzcBIuI3d4Wn89R0rBwttMonaLRCkzjcAqGz/Lhm7B36Gc/6rnwTKyEdaPxHknaawgAXuz0N/pJosI07Rqc9rNxNh+PgsGCb5V97VGtsamhGKXeU1vW5Cbf5JTloW3PYrHZRdCnUx6YOspv29/df4zluERZXrF5Zv7swxzlz7+UwJx5aH45qqCG7fadYbrZqBcYASbruHxZTJc1q7gGjxgK13BYjlUKifSJJouucPpkXO5WE6WD3h5XSe11KsiSphOpwV3qSL5SJ8MHILhzJUPIqzPlmGxkIDITRxVx3p3TNjSBs5FnSOGRyRa5Qp7SXFlBStcUneqPDvc6d/ml0IttAZktrpO6ix2Uklc01kc1PRaQC5tm5VTl2F7W/GNx61pExjAvGdDqfxlKIcxn4bOmIdcMon1cHetkifc5dQ20m3EVhy5y9Ons+I5csAboRJg4BlZ+lDyF7IElrC2taHyKbstLi4NKowGzWy+8opyIZ/l9yUwUx4sF8f/8GTn+lydTjcWKLtiksuQFMK8e6RK4xAgr6pQqHzRTL6lTPhozxMdDnVCkXhWjTaZYcmyX3b57cK6dPq7Kcl7vn0lebJQM9XLYfnl4tbtFqVB+nVjWAnYhrkb3IZI/Se5GkkbVm1SFeN4V1/vkkKreAreW5YGfHqzYTw1N5ZrNFaXr2VScoec9E4qNy5I8KMx5l6ZF8Nkrh/X/sK0ApbPIc2SWwbvg2Dxc7CGvLQgELSiqlha0TZfbk/+dH3KDy2iKZw39MTJfvc+sqUzgiytGSKSOY2qGrmaZhkqW7104iDDL4qkBnpRQV90crdEB1wY78EPIu7hEP2KQlmcw5yEzpdKk14JUF9K37ZZ+FRLKgygjbbWki0Vl94GTnCloUVMcu3Gpzef5Dx3E/0K3DTQnl22pHAr2veKaagIEShpTQWS8kUYZVLZlZf0yGc64dF6XSapFwTxFx6CJfQa2k5I/DwsAPJrGF/X+JziL5zW4mqWUwcd/CSvSoufBWBAJVPJU51Cpan8nD1pIY2XPJWvZIeddO3msNJGgGIwgo15yG/qqpeXFMqKCUajFaspu1gBocKsbM8Q8POlUx71twBc00nP70YF08oqKwbRyCMrwqlFRaNiggQefg2hfh5ei3Vpa9DE1AqJani0udDw4BZ6V7qDp5ADVuUSDxePW+fZ8UoFPnBCX6pYSYO+GAw8+YiPz389lDBYCgt9eTybUJ5SMv2Ut+V2yGxZJKJgPrV1XfVkPDIkn1Ikh2S3QefUF9thTBfq49QhcYtsnfBXHanS1rtIQ1iBU3DFWUPNcoW8pFBizC1BVN6dXfsNs8wWoi7eMxF3wlRjvD1Hk962oSxPrBcpcs7QE+5UELQ1R3BO5n5NTzTh5a6vEoipnzsF7VLZEOmlIuCIZ/SZkZcKGoE0HuG0ujRcNtSOayL9IJTfeEkecGAZahEyr5eccPuUq+Cg2PF0VFWUyrmeClXWRbm9HFyrhlMP0Iih0zIllEoA1+nB6IR2HvnWvvXxMDDyC3GKNZTJci+tmdRxmwlm+PPwfi2VxC8q1JcZd6qWwXAsFLfsycG3oqIwqWCFIbthRoqW3mShpA+T0RBQpe6tONKtWH86w4pKI5hXX9CSFLZl5rtBrGiLN7mRd1XiBI/0c1y6knDlMcFEDWtvfQlcXWel39Zp8QeaOeSBw6UEXgW5DcVjGq0zleTJ954JD2kGU+misGKyYs9W1wlmbQAAE1JJREFUhDz9Wt/WvQeDeDC/W1rcvBELKE3yLXmrXgMYKaO8DfoGv/gdRjwwh4rYO9gzZM7esFcUigLE1NLixtPr0pNASAMXdu5WkP/46b2pPqvTIc9eaM+FD6SnrVAjvijUyFfc6tlVYTZI8kseEEXCrgLjc5jo4kzDBWXgLHJXUpVj5NN87BidR7Mwb6HxUA0CCxUB4TnNFwU44weL3IKSLRbME+pwfR8mVClKC26yCEfBdj6VToVi/QrStkxni4LSuVGqaoeFEFZKoWubV+FkEri3kn2J7gWaQ4ONN4XhAwoFNFiN1qRFODMUw8uekF5BxaSCKJg9yYcOK0icFAHioi/THfp0XytJPHpadiP6opMhFMb5mTMqrfNqP1Klwa18rROceXSuHGYpg1lw8zKptLgTBIywfhD20qZck2cni9sXwbAx3mHkAea+r3aiOJRl1wMK5S9I5Otj3n3eRlGst5qoh11pJWyIwdpOZ8VaX8dc9SNHrnOxJZlLa5e1L9BVKJ2e6lnWqepeSIeCtHMbhDuwZL8DGSWF0yg6/mGFGoXYod6LdJaiOhk840Wnjf/AthCvUijWRqwEexV/ZdIFQES3K12qMEjVc1Gkc/j4xco5innFFy1WkJbJPL3iZEMvrc+ioBUhRcNLTS6YAasH/JvNglbW0PxrUYCUchNpAHPcAtOQixLLT6cZSbgBAxag+GPhAXItiu8cfVGcH1IKKd8QsiLpGlJZKZXROnGZQAFSQPLQAvOg4kW6Q53Dpr9TWDs4ncuCDboUUipRD3V2WmG7Lhi7oL3YVKqk7Mcb/bBCdeoLfgtpcoqK5K61bHmsf6Cm3LNdzu0rVhyFohF8q+9OAv+qmBZ0oFI5+WATJfJHGC/41kgFde3JdafkA6q+bZcNaDasZtCKj5KaGIzGxDen9aG67CUCDyuV7OEnWcKDsjICNtLCKDexaDHyS9NEuUYjRTCRFFA8fS8VyjJUOVQoLXo6WfaJufuBumFelPzQel/3RJGUC+FaNnn5VOdOUIdNlSj1ZZ1xGbeDtzIVnTLIRzlnuQJN2pduRb1i7MfXlJcsVDCarItivMPFomOUDU7cqAQ30D0+1j4flxJKoawsV4WrF2qpMsRBkkdbS48T/4oXc6/YXO1Q4O+fZCuv7U+6l6haGXtyfQzZcpIgholRqrVKncOUAlV12ry2s5SiV0BgkbZyJU9JgQ8RE66bFsemLYuhFZaZjVZu+A7DBmWCIiqBChXrTPiR7wdtZg8zszwO8/e8w3QXaNuYWClwZCJ7DXANdfyMLT+BohXXSmU7MJ1a/slOFrioPoCCKUxdi1g72CFZbuLM7lBcvs3rRQsVwmDtspiJm0nMq4WgJWKB2KrrZjYXJd1Hnv1GaNY92zH9EZ58SkXlq0xuVanPiKgIaF5dolBUkp8n+c2bypo2IjPzjq5Q8SpkDT3d67rYwRKTKys0CSvrzkWyOuB62dCF+CkLaeZjw6lIXtLq6yIDaQJ93UJ3ISxAkEplWLXFl9B4LGjUKXzsf+53j/QpoLsNGN45F/0OjXBLULapmAcpWYEnpCXWAjnXdFSIQtEB3SfvUKfl8wlSCXTlK4Q5Ga+w8XSCDPeNLcXqxJzd1+LiHlSofcKVqSlr5oYaom8D+HTh7/n6xOcWXUckL+cH9/6goPMrzTtzAC2S5zvpOwnX97NyK0pzbgNa104bkpEVRR5eKmN2wqUxBILjbWiH7WcVzk9YNrFy2vm1nH6dw4cleTtfL1RRcph3B1GZES+P4Gc2InFETFatXAqT3RQRUhFAMhc9Lx0y2pAuDChDWapSUEYo0vzzgcS5kNuF+UDVh7jUXSmCVMWSuvIXHNxDRT1dsqfKL5GzTodQymfVNL6K3UpUYGtAZbJTVt6p5HAvOu9ize5LcdO6qAcVamZkWOSZ4RzvsL4FsZf4lj1zAlo1hgTiLUPhHfvCH/zig5JYIH9s0Mm3Smiv8uqMbMg0GrRWrLcausikNAqgbkiWhjTqpJb8ibuhL6mQ6IcNvnvI3ZDmLtP6UmYolZvURoP4MtfGZhqXX4q68iOKjO0ll/zMMldqyKoE4BCY3MAw2mF8G7Ya13nQNEm3A8HbId69ZZ4co0Jp3f1CqFnIzvxUeOsu8lHX6OAki3mOrOMr6a5SBkIb2EbZLBg5pfr33UGFCn8bZEcQY7rK3XvFG5LEpQf3LsgYDJIU3l605XMnnXAbzV6WX6UaDRl80tLTgsmNzGxo0IfrnI2aWDIlMY/oIOsDLktVyoS+RJk+8knWh09sgOObuc9+4+cpLSiZQ3M9VflpV1nKVzTYO34Z/R3vE/2xa4dn9cocvchp8ZNnhGjVbTnxtQiDLihQ1V/Vo0VwG7mzLL/62eZ7Q9pAVhMb8VIX1geCuBnRutKRtLgKF2EpsekdJwyjWPnU3Uy5sPiuwHOFmnivwVWQUqtK6fQur3GtlAXWtTJV2KWFgiXOTbxUkDReJuhgaFw2+jXMiGyauXWOBHVGRRQBvyaxgAXhTLZd3NjmL1T9xocD//z1lo9I/Rjzhi9+/fhgWDMtB8p4gqa76vyGrZj/9ctrOoQbBbEKWBGdI23EMRxAyVsxISNzc8e6RlnpQXkIAea8y0FQvMaUjdZHhc2HEgquG36P7hIsxR3VUohrrsZLgYq4lanx/KZRi7/mrhR9Nda3+C2ktBiIL5OI1ASFqWAtYtMWK2IDPYU1kfgu9aBYCEZ8Dxx6CBc06z2MvDXH9iUW06saqAnFUJHQoSjTRyyS17/+UKE+8YUvCsU3TNd8Q5ivhyHMKXZUtj8i7Sku13zQWVbrKhbB309+5EnKIdmG13Xuhh3KSkahLaO+w05LtNKoVKYs1reZNe/BIlHDBAIa/q7VI71QuIvVeQ4mJhY1fiuTnMPdxH/DlXBfUaiXBFGsYrAvQYvWlB3fxzsUb9z0xEZoRokbGVfDu6umZpvDgpWtsB5Qxlfhm9/4VPzX94+bf/2OMn3gJJfrLd//sf+bz7NUqP5W0KGL2V3Wgo557P+Nz995PmXO8ob5Cpv8OOQim+bQnW7QHqpVYKWIJC2OChpdb4DCiymeja5S1ZwqwC5b+wI7jL902CDXrTlXbFYkCZt4IvhLgsV3zvsrCmWuh4RR4OpvL8nVmTyj7oQXCF9OHpz2GRoP0UopqC/nRv5e3ifmTb+9v+cjgQ8MeTd8K8eXvoyB7oPP18a+nEU7sl0EBfAJcuvBr+x4OH5iIxxmzon51eUvmfe50p3HvlEOFYspWF5Ym3f0R8FsfflFvNyaAl9MnfWpgkn17W7mNlMVvHnPKYb3qTqu3+F9mkqZOXbrr+OVtDx5PidtyEy+H66Mi+muEDOmnHZTi3fjHErr3OM3YgP34+Eul74asZpKdBvZhXuf6j6zQ/IPTkX59Ll+/1hFeszhB3xAytOUSwkMZugA1YKVekBL7jgB5TO/5LnhwIsPn9g9+pmDzS6v2PRXNsacF7EIGHZ+Ug6GmfMR2zErYs2UzQGlUjPj2h/Rb/SKqvm138T7PDvefuMd9sXa5diWsFOsvS+6mbzDnbnxDg8mgGZIUyxZjMQZZ0l7zm1OGiWZOcpljq/oM9RwDrNAJ1So9ygU343yGTg6wskFR3xnxzfjsU7syMZGACOeuQ3KwFdhOQWFkxo2H/kc6uPnV5yecskku7qTdmWnPESysIli1PMDlS7CDtIqa4WU0quR8FOIjs/4wkY63nOM5hUGM+Fe+DnlHsLBaFHNeXQ+Nb3/ikLJswlm/sK+LtA+xiFOK9c9njNywg1of6U8JIuNiX3I4mUtYpaVyu/ouWLPU5vrVPapJxUK3GwZJuwZAfY914GOeCXCDCiqpmJ6PNF8wIZSWM4McTsFHgoF4zJYJs6y74VjmWbYxGwGL7m1FVSCdiLuIHfCF/zOp/0voL6YtOb5DQollyZovzM33uERbBTJZjehzeAKHyASv8HO0hNugFQjHL6GdzNQoRzuVKblYrXwgaXx7dYThcH38yVZ4bIjIibFIYsZzWBvmhYmuyfJ05+JrZ8762UGMcqJ1/yElIUaiRFxTh3weINwyjPrEh1vMhlGO/VN7ISZ16HwjNdh/Tl8iO7LsKLeleMbFUrGEs6uGbU/pz0P71OvGKbMqYippDPbORzCfZqZfuKs2RlJVXgBvlQWDsRVQ1+Z4Nde93qTn4VLk7FQvi5xbc0dpoaLRn/wLsYReQRJGGmNE+uDRRkKm/QgN8XEpGnNoJMD63j74VJyzHgDfNhrxNk33PGVSojiP09pHFO9dt2fUKgmbCYvZLUHbuym3vVbqMJqexEWzcckw0tjNI2cii7+1GNDOqH1KyHfD3qxUsBePN9loUz51MrPLmsFPDgsCsW6geeeo96vnXd8xH0iM49c5JM50hCn4V2WgdXYYuEgUr6FUJiUOhnqT/HgCmsn4BmwE1/wm99L/nOyxnyesg9ZZTk0EO9jT3EJZ9cF24fPOH8mXHyaayi7VPoqTcdToQMzylS0S27g1VDF0z2lrDfxvnyuNaHV2miharO/lqmsERYJRrFO5BMYN9eSvFSsHt4WfxatRY1lci4F4xGuAsAA7hW2QF7t9uPAGzT7jf5NfvOf/W9gtlela1Zzwhw+tFJueue7cBC4S/gtPWSfYmGXQPNsX2A9Oc14EcXbwozAokANbB769bQRJUArfN2T45+zHeaCvVYc4srakr8Dky9ss92WRz73I/mHcnlyXI5tZP+Wu0KPWTXPRwC+kHXfEVoVxUIuRcvVMg6RygvHxnheZSUu6fuuE2Z/D8f8dJVRhQ/eW7BOjLQj0kw6DX+f3xw/gL5SlqzfMeTJoohXZn9NqGR3qWxX8qhZg5YCGuiIvvMjkQpRhXK7ia9PLlmQvI1CudeKwyqy06D3Zbl+QMOjpLzBYyh0zQnCTK9YXmcNymc83+zn7b5KhSnT6rWdad+cvSLWGKITX8pTMVHipmiVuctjguHyJ7QBC/U33JqPqLtcnsdB6exf4twivZQO/DsVqjm2BPvCfl225lB+r7euytScTS/uQrjaOi0IA57aUKnEr9cYaWiI3RajYr1mI9rPP71h9LkGm/d0nLTnr296kp1bbp1TscEGpZID292g8+TfN6+PNz9zaMdPby/4gvkVC5tsIJwUSvn6UozoEresR7FAWlOlKkWXJoLmVla5iiNO10WF6y6i1q6xhHqtXkXm+0q54K5Szoh/LqwII+tDhN+hUM2xfdmuYUN/znUFFpemb19eK/eJ845iidGXSlUKZbljqbid8xHF6ysOAeMnMtxZ4CuZI47R8T2fh3r6BYmLlTkwFdAJq+UeufOKdyzvXp9wwBlHL3KU0Ft+tyVHLmKl5D9fKrCudpPChHxr92bB15ZYW6Sl1tftW+eClzIZllKczleaXde8m2NRrHmL3TjtA2r0XWaHYy3IgdTvUKgDXAJarctLGIfgh8ohbIZ3uIo/pxJO9x+wbB6yWbvKq+qc7/juzZe6HL3K6jh73tlIdMHprZ/YD/U5lqoWMn3l4uX5lxfsVXnHUS9//+k0lyfmeQKMG+EyhyInZcrVQhKPQ66Sl3uWJ4BGVuIhGHh4eyVKQrErRC1Ts19JDRWrBJZYY3bqfryxi75j3+fPvIvDc4U6mM8h4CHYnxdLLs/F+hKfOd8ODz/M5OZFBE+Qw5PnJL7jpOAL5lLnHGx5ef4Gi8WvNPD7MZ94JeOpe3csgdcvebIXCsQ3nPH5E6fR/Y1fPPiFoxffclKep+U5l/KJUKfXVwABCjHzQuoPGJ5brD9T9uJVeczhJdcp0OmjHqaUknYH8G9EOh9ZVLjO1TNf3ZxekJeAE1yiurw3K4Lf6KonV9FXATrUfuVR1qdymStLrHG1FTCZyyFPUIY+dl/6awUqmGdiOpy9Jv7pmtcyHjLLT3j4UyEq1QVnZL59xSl5WDWV6h2XX+DwpRIDajlHXXmbc25DpLZNlVBpzqt6DlTUdQ/tDBjhXbgxmVc2xnbTk7R3O4TRsPYnkgZVNlPCgeDoKGuKxHWxQJwp5Jq2E2rus985N2LH22/4t/ia8uYtvlVefIQ2x4IKadw5LJ1O7KaoTWuWLEtApDSFMyyOZMqR1/76gUdfu7fcDxZ8d9dWxX3uDpMeGe0BZ1f4KqJDXefSObYP6zUjw0FUiHH52mTRQBEKffb3w8bLdc3ItiSoe6fPvqVtN4dnijncuHu+pAfRmqf+jIRkX1YoM2hiwy+5g7m+hLwHX/lX6DmvgjRe+7Lp8Exj+DCF2CpU2nffJzHc2h9cbP9ZkfZzAu1wnZvQTsYzYcOHn3z3YF+LfoHdRHqI87dRTkxeCB7m/Q0K9QK//0PBqQZuq4+NXOpmDlvAmtzXz4f8H1rg/7DYzyfl/2EB/tPZpX96U4uGP08JdodgpUOpskTxV/Xs/3SJ/7P5/Y+zUHP1vjR9nOG9jtT+TP8j/LwG/kcr1PPqmCA9DP4wTFOlfD34P27I+3qVDIwfivTNVTUj9pLKDPsR/lED310DPxTqu6vuB+GhGvihUIdq5Qfsu2vgh0J9d9X9IDxUAz8U6lCt/IB9dw38X/+UN68p7dfSj7Wl/Rr59+P/P+PTmb+lsDi+AAAAAElFTkSuQmCC;" parent="1" vertex="1">
          <mxGeometry x="962" y="472.5" width="35.34" height="32" as="geometry" />
        </mxCell>
      </root>
    </mxGraphModel>
  </diagram>
</mxfile>
